<svg xmlns="http://www.w3.org/2000/svg" xmlns:xlink="http://www.w3.org/1999/xlink" width="500" zoomAndPan="magnify" viewBox="0 0 375 374.999991" height="500" preserveAspectRatio="xMidYMid meet" version="1.0"><defs><clipPath id="6e6fa80310"><path d="M 6.835938 0 L 375 0 L 375 368.25 L 6.835938 368.25 Z M 6.835938 0 " clip-rule="nonzero"/></clipPath></defs><g clip-path="url(#6e6fa80310)"><path fill="#006c35" d="M 375.085938 184.125 C 375.085938 187.136719 375.011719 190.148438 374.863281 193.160156 C 374.714844 196.167969 374.496094 199.171875 374.199219 202.171875 C 373.902344 205.171875 373.535156 208.160156 373.09375 211.140625 C 372.652344 214.121094 372.136719 217.089844 371.546875 220.046875 C 370.960938 223 370.300781 225.941406 369.566406 228.863281 C 368.835938 231.785156 368.03125 234.691406 367.15625 237.574219 C 366.28125 240.457031 365.339844 243.316406 364.324219 246.15625 C 363.308594 248.992188 362.222656 251.800781 361.070312 254.585938 C 359.917969 257.371094 358.695312 260.125 357.410156 262.847656 C 356.121094 265.574219 354.765625 268.261719 353.34375 270.921875 C 351.925781 273.578125 350.441406 276.199219 348.890625 278.785156 C 347.339844 281.367188 345.730469 283.914062 344.054688 286.417969 C 342.382812 288.925781 340.648438 291.386719 338.851562 293.808594 C 337.058594 296.226562 335.203125 298.601562 333.292969 300.933594 C 331.378906 303.261719 329.414062 305.542969 327.390625 307.777344 C 325.363281 310.007812 323.289062 312.191406 321.15625 314.320312 C 319.027344 316.453125 316.84375 318.527344 314.613281 320.550781 C 312.378906 322.578125 310.097656 324.542969 307.769531 326.457031 C 305.441406 328.367188 303.066406 330.21875 300.644531 332.015625 C 298.222656 333.808594 295.761719 335.546875 293.253906 337.21875 C 290.75 338.894531 288.203125 340.503906 285.621094 342.054688 C 283.035156 343.601562 280.414062 345.089844 277.757812 346.507812 C 275.097656 347.929688 272.410156 349.285156 269.683594 350.570312 C 266.960938 351.859375 264.207031 353.082031 261.421875 354.234375 C 258.640625 355.386719 255.828125 356.472656 252.992188 357.488281 C 250.152344 358.5 247.292969 359.445312 244.410156 360.320312 C 241.527344 361.195312 238.621094 362 235.699219 362.730469 C 232.777344 363.464844 229.835938 364.125 226.882812 364.710938 C 223.925781 365.300781 220.957031 365.816406 217.976562 366.257812 C 214.996094 366.699219 212.007812 367.066406 209.007812 367.363281 C 206.011719 367.660156 203.003906 367.878906 199.996094 368.027344 C 196.984375 368.175781 193.972656 368.25 190.960938 368.25 C 187.949219 368.25 184.9375 368.175781 181.925781 368.027344 C 178.917969 367.878906 175.914062 367.660156 172.914062 367.363281 C 169.914062 367.066406 166.925781 366.699219 163.945312 366.257812 C 160.964844 365.816406 157.996094 365.300781 155.039062 364.710938 C 152.085938 364.125 149.144531 363.464844 146.222656 362.730469 C 143.300781 362 140.394531 361.195312 137.511719 360.320312 C 134.628906 359.445312 131.769531 358.503906 128.929688 357.488281 C 126.09375 356.472656 123.285156 355.386719 120.5 354.234375 C 117.714844 353.082031 114.960938 351.859375 112.238281 350.570312 C 109.511719 349.285156 106.824219 347.929688 104.164062 346.507812 C 101.507812 345.089844 98.886719 343.601562 96.300781 342.054688 C 93.71875 340.503906 91.171875 338.894531 88.667969 337.21875 C 86.160156 335.546875 83.699219 333.8125 81.277344 332.015625 C 78.859375 330.21875 76.484375 328.367188 74.152344 326.457031 C 71.824219 324.542969 69.542969 322.578125 67.308594 320.550781 C 65.078125 318.527344 62.894531 316.453125 60.765625 314.320312 C 58.632812 312.191406 56.558594 310.007812 54.535156 307.777344 C 52.511719 305.542969 50.542969 303.261719 48.628906 300.933594 C 46.71875 298.601562 44.867188 296.226562 43.070312 293.808594 C 41.277344 291.386719 39.542969 288.925781 37.867188 286.417969 C 36.191406 283.914062 34.582031 281.367188 33.03125 278.785156 C 31.484375 276.199219 29.996094 273.578125 28.578125 270.921875 C 27.15625 268.261719 25.800781 265.574219 24.515625 262.847656 C 23.226562 260.125 22.003906 257.371094 20.851562 254.585938 C 19.699219 251.800781 18.613281 248.992188 17.597656 246.15625 C 16.585938 243.316406 15.640625 240.457031 14.765625 237.574219 C 13.890625 234.691406 13.085938 231.785156 12.355469 228.863281 C 11.621094 225.941406 10.960938 223 10.375 220.046875 C 9.785156 217.089844 9.269531 214.121094 8.828125 211.140625 C 8.386719 208.160156 8.019531 205.171875 7.722656 202.171875 C 7.425781 199.171875 7.207031 196.167969 7.058594 193.160156 C 6.910156 190.148438 6.835938 187.136719 6.835938 184.125 C 6.835938 181.113281 6.910156 178.101562 7.058594 175.089844 C 7.207031 172.082031 7.425781 169.078125 7.722656 166.078125 C 8.019531 163.078125 8.386719 160.089844 8.828125 157.109375 C 9.269531 154.128906 9.785156 151.160156 10.375 148.203125 C 10.960938 145.25 11.621094 142.308594 12.355469 139.386719 C 13.085938 136.464844 13.890625 133.558594 14.765625 130.675781 C 15.640625 127.792969 16.585938 124.933594 17.597656 122.09375 C 18.613281 119.257812 19.699219 116.449219 20.851562 113.664062 C 22.003906 110.878906 23.226562 108.125 24.515625 105.402344 C 25.800781 102.675781 27.15625 99.988281 28.578125 97.328125 C 29.996094 94.671875 31.484375 92.050781 33.03125 89.464844 C 34.582031 86.882812 36.191406 84.335938 37.867188 81.832031 C 39.542969 79.324219 41.277344 76.863281 43.070312 74.441406 C 44.867188 72.023438 46.71875 69.648438 48.628906 67.316406 C 50.542969 64.988281 52.511719 62.707031 54.535156 60.472656 C 56.558594 58.242188 58.632812 56.058594 60.765625 53.929688 C 62.894531 51.796875 65.078125 49.722656 67.308594 47.699219 C 69.542969 45.671875 71.824219 43.707031 74.152344 41.792969 C 76.484375 39.882812 78.859375 38.03125 81.277344 36.234375 C 83.699219 34.4375 86.160156 32.703125 88.667969 31.03125 C 91.171875 29.355469 93.71875 27.746094 96.300781 26.195312 C 98.886719 24.648438 101.507812 23.160156 104.164062 21.742188 C 106.824219 20.320312 109.511719 18.964844 112.238281 17.679688 C 114.960938 16.390625 117.714844 15.167969 120.5 14.015625 C 123.285156 12.863281 126.09375 11.777344 128.929688 10.761719 C 131.769531 9.746094 134.628906 8.804688 137.511719 7.929688 C 140.394531 7.054688 143.300781 6.25 146.222656 5.519531 C 149.144531 4.785156 152.085938 4.125 155.039062 3.539062 C 157.996094 2.949219 160.964844 2.433594 163.945312 1.992188 C 166.925781 1.550781 169.914062 1.183594 172.914062 0.886719 C 175.914062 0.589844 178.917969 0.371094 181.925781 0.222656 C 184.9375 0.0742188 187.949219 0 190.960938 0 C 193.972656 0 196.984375 0.0742188 199.996094 0.222656 C 203.003906 0.371094 206.011719 0.589844 209.007812 0.886719 C 212.007812 1.183594 214.996094 1.550781 217.976562 1.992188 C 220.957031 2.433594 223.925781 2.949219 226.882812 3.539062 C 229.835938 4.125 232.777344 4.785156 235.699219 5.519531 C 238.621094 6.25 241.527344 7.054688 244.410156 7.929688 C 247.292969 8.804688 250.152344 9.746094 252.992188 10.761719 C 255.828125 11.777344 258.640625 12.863281 261.421875 14.015625 C 264.207031 15.167969 266.960938 16.390625 269.683594 17.679688 C 272.410156 18.964844 275.097656 20.320312 277.757812 21.742188 C 280.414062 23.160156 283.035156 24.648438 285.621094 26.195312 C 288.203125 27.746094 290.75 29.355469 293.253906 31.03125 C 295.761719 32.703125 298.222656 34.4375 300.644531 36.234375 C 303.066406 38.03125 305.441406 39.882812 307.769531 41.792969 C 310.097656 43.707031 312.378906 45.671875 314.613281 47.699219 C 316.84375 49.722656 319.027344 51.796875 321.15625 53.929688 C 323.289062 56.058594 325.363281 58.242188 327.390625 60.472656 C 329.414062 62.707031 331.378906 64.988281 333.292969 67.316406 C 335.203125 69.648438 337.058594 72.023438 338.851562 74.441406 C 340.648438 76.863281 342.382812 79.324219 344.054688 81.832031 C 345.730469 84.335938 347.339844 86.882812 348.890625 89.464844 C 350.441406 92.050781 351.925781 94.671875 353.34375 97.328125 C 354.765625 99.988281 356.121094 102.675781 357.410156 105.402344 C 358.695312 108.125 359.917969 110.878906 361.070312 113.664062 C 362.222656 116.449219 363.308594 119.257812 364.324219 122.09375 C 365.339844 124.933594 366.28125 127.792969 367.15625 130.675781 C 368.03125 133.558594 368.835938 136.464844 369.566406 139.386719 C 370.300781 142.308594 370.960938 145.25 371.546875 148.203125 C 372.136719 151.160156 372.652344 154.128906 373.09375 157.109375 C 373.535156 160.089844 373.902344 163.078125 374.199219 166.078125 C 374.496094 169.078125 374.714844 172.082031 374.863281 175.089844 C 375.011719 178.101562 375.085938 181.113281 375.085938 184.125 Z M 375.085938 184.125 " fill-opacity="1" fill-rule="nonzero"/></g><path fill="#ffffff" d="M 194.988281 166.328125 C 191.769531 165.957031 188.210938 165.859375 184.652344 165.246094 C 180.257812 164.410156 178.957031 161.5625 181.804688 158.003906 C 183.597656 155.746094 186.199219 154.199219 188.457031 152.554688 C 189.636719 151.71875 191.058594 151.375 192.605469 150.761719 C 192.730469 149.679688 192.972656 148.625 193.195312 147.546875 C 194.03125 143.984375 197.222656 141.261719 200.78125 141.015625 C 205.054688 140.648438 208.367188 142.4375 209.914062 145.875 C 212.171875 151.226562 209.078125 155.375 203.261719 155.007812 C 200.535156 154.761719 197.6875 154.761719 194.964844 155.253906 C 191.746094 155.71875 188.898438 157.390625 186.175781 160.359375 C 187.71875 160.730469 188.777344 161.316406 189.855469 161.195312 C 196.019531 160.949219 202.207031 160.484375 208.269531 160.113281 C 209.816406 159.992188 211.238281 159.992188 213.128906 159.871094 C 212.882812 163.675781 211.707031 166.398438 209.570312 169.125 C 201.984375 169.246094 194.742188 170.304688 189.144531 177.203125 C 192.582031 177.570312 195.550781 177.792969 198.398438 178.035156 C 199.234375 182.675781 197.933594 184.445312 193.882812 184.101562 C 190.667969 183.730469 187.476562 183.144531 184.257812 182.429688 C 181.042969 181.71875 178.6875 179.707031 176.769531 177.078125 C 176.058594 176.121094 175.347656 175.066406 174.511719 173.765625 C 173.335938 174.722656 172.253906 175.777344 171.074219 176.488281 C 167.761719 178.75 164.421875 181.007812 160.984375 183.144531 C 159.5625 183.976562 157.890625 184.320312 156.246094 184.691406 C 150.550781 185.648438 148.882812 184.691406 146.15625 179.335938 C 145.199219 179.582031 144.144531 179.925781 143.0625 180.050781 C 138.667969 180.882812 134.273438 181.84375 129.882812 182.429688 C 128.457031 182.675781 126.910156 182.0625 125.144531 181.84375 C 126.101562 179.335938 127.746094 179.460938 129.414062 179.335938 C 135.476562 178.96875 141.050781 177.324219 146.28125 174.109375 C 147.828125 169.835938 147.828125 164.609375 152.097656 161.882812 C 152.46875 162.003906 152.6875 162.128906 153.054688 162.25 C 152.34375 165.097656 151.632812 167.945312 150.675781 171.507812 C 155.191406 168.660156 159.09375 166.277344 160.519531 161.539062 C 161.941406 156.800781 158.851562 152.996094 157.203125 149.191406 C 158.996094 145.972656 160.296875 145.507812 162.558594 147.398438 C 164.570312 149.066406 166.238281 151.203125 168.375 153.460938 C 166.828125 154.050781 165.992188 154.417969 165.0625 154.886719 C 167.910156 161.882812 164.691406 166.867188 159.488281 170.917969 C 156.640625 173.175781 153.792969 175.1875 150.578125 177.449219 C 151.164062 178.40625 151.753906 179.335938 152.589844 180.761719 C 161.5 180.394531 166.953125 174.941406 172.304688 168.78125 C 172.058594 167.699219 171.933594 166.644531 171.714844 165.6875 C 170.414062 160.113281 169.113281 154.519531 167.910156 148.945312 C 167.195312 145.730469 167.910156 144.550781 171.125 142.070312 C 171.492188 143.25 171.960938 144.328125 172.207031 145.386719 C 173.75 153.804688 175.421875 162.128906 178.980469 169.960938 C 179.816406 171.851562 181.238281 173.398438 182.539062 175.410156 C 186.933594 172.242188 191.085938 169.175781 194.988281 166.328125 Z M 205.914062 150.050781 C 206.378906 147.324219 206.28125 146.613281 204.734375 145.410156 C 203.433594 144.328125 202.132812 144.109375 200.707031 144.820312 C 198.816406 145.902344 197.738281 147.421875 198.105469 150.050781 C 200.804688 150.050781 203.308594 150.050781 205.914062 150.050781 Z M 205.914062 150.050781 " fill-opacity="1" fill-rule="nonzero"/><path fill="#ffffff" d="M 103.34375 218.078125 C 106.066406 218.542969 108.324219 219.035156 110.460938 219.15625 C 120.796875 219.992188 131.011719 221.171875 141.320312 221.292969 C 179.300781 221.660156 217.425781 221.660156 255.40625 221.761719 C 256.484375 221.761719 257.539062 221.636719 258.5 221.636719 C 259.675781 219.84375 257.785156 217.488281 260.167969 216.1875 C 262.671875 217.023438 262.304688 219.871094 263.605469 221.882812 C 268.464844 221.882812 273.449219 222.003906 278.554688 221.882812 C 282.238281 221.761719 284.128906 222.472656 285.550781 225.8125 C 286.265625 227.601562 286.632812 229.738281 286.632812 231.628906 C 286.511719 235.902344 283.539062 237.203125 280.101562 234.84375 C 279.855469 234.601562 279.511719 234.476562 278.800781 234.011719 C 276.789062 234.378906 274.40625 234.722656 271.3125 235.1875 C 269.644531 234.476562 267.289062 232.929688 264.195312 234.230469 C 263.726562 234.945312 263.015625 235.777344 262.304688 236.734375 C 258.867188 234.945312 259.921875 231.753906 259.578125 228.660156 C 258.398438 228.535156 257.195312 228.289062 256.019531 228.289062 C 219.21875 228.289062 182.417969 228.289062 145.617188 228.289062 C 135.648438 228.289062 125.683594 227.457031 115.9375 224.851562 C 110.117188 222.9375 106.558594 221.171875 103.34375 218.078125 Z M 263.136719 229.125 C 264.097656 231.972656 266.355469 232.339844 271.925781 230.792969 C 277.378906 232.585938 280.46875 232.21875 282.140625 229.835938 C 280.347656 228.535156 267.410156 228.046875 263.136719 229.125 Z M 263.136719 229.125 " fill-opacity="1" fill-rule="nonzero"/><path fill="#ffffff" d="M 145.960938 156.113281 C 139.800781 160.507812 137.417969 160.042969 133.488281 153.019531 C 133.023438 154.566406 132.53125 155.621094 132.410156 156.703125 C 132.164062 158.714844 132.410156 160.730469 132.164062 162.765625 C 131.328125 169.761719 127.648438 175.113281 121.828125 178.921875 C 114.585938 183.558594 106.632812 186.039062 97.84375 185.082031 C 95.460938 184.835938 92.980469 184.125 90.722656 183.070312 C 85.027344 180.34375 83.605469 174.992188 83.359375 169.296875 C 83.234375 165.148438 84.535156 161.097656 86.917969 157.539062 C 87.164062 157.167969 87.628906 156.824219 88.585938 156.824219 C 88.121094 158.496094 87.628906 160.140625 87.164062 161.808594 C 86.082031 165.492188 86.207031 169.175781 87.875 172.609375 C 90.601562 178.675781 95.585938 181.398438 103.070312 180.6875 C 109.847656 179.976562 116.253906 177.839844 121.582031 173.445312 C 126.566406 169.417969 127.867188 163.945312 128.113281 157.414062 C 126.6875 157.882812 125.730469 158.371094 124.800781 158.714844 C 124.429688 159.550781 124.085938 160.261719 123.839844 161.097656 C 120.625 172.144531 113.875 176.046875 103.660156 176.761719 C 93.695312 177.472656 88.929688 171.652344 91.066406 161.6875 C 91.777344 158.25 93.203125 155.15625 97.007812 153.609375 C 97.597656 155.621094 96.417969 156.921875 96.050781 158.46875 C 95.460938 160.851562 94.871094 163.207031 94.871094 165.710938 C 94.996094 168.929688 97.375 171.285156 100.445312 171.53125 C 105.894531 171.996094 110.902344 170.574219 115.273438 167.257812 C 117.777344 165.367188 118.488281 163.699219 118.832031 160.484375 C 117.410156 160.359375 116.109375 160.238281 114.683594 160.015625 C 110.289062 159.425781 108.988281 156.578125 111.246094 152.773438 C 112.082031 151.351562 113.136719 149.925781 114.339844 148.75 C 116.84375 146.246094 119.570312 146.367188 121.925781 148.992188 C 123.105469 150.296875 123.941406 151.964844 125.144531 153.730469 C 125.855469 153.488281 126.8125 153.144531 127.746094 152.652344 C 127.5 148.132812 127.277344 143.984375 126.910156 139.714844 C 126.320312 132.71875 125.730469 125.597656 125.117188 118.578125 C 124.996094 117.152344 125.242188 115.605469 125.585938 114.304688 C 125.953125 113.003906 126.664062 111.703125 128.433594 112.167969 C 131.15625 116.5625 134.960938 125.941406 134.71875 127.832031 C 133.636719 127.367188 132.457031 126.875 130.910156 126.164062 C 131.28125 133.871094 131.625 141.234375 131.992188 149.066406 C 134.003906 147.890625 135.675781 147.054688 137.34375 145.972656 C 139.480469 148.578125 136.753906 152.382812 140.316406 154.273438 C 145.175781 154.640625 143.40625 149.164062 145.886719 147.277344 C 148.488281 148.699219 147.3125 153.214844 150.992188 153.683594 C 152.296875 151.546875 152.296875 151.546875 150.40625 147.863281 C 151.238281 146.90625 152.296875 145.851562 153.621094 144.425781 C 154.578125 145.605469 155.757812 146.441406 155.878906 147.273438 C 156.246094 150.710938 155.757812 154.050781 153.277344 156.652344 C 151.3125 158.496094 149.421875 158.25 145.960938 156.113281 Z M 114.511719 154.101562 C 116.769531 155.402344 118.316406 155.523438 120.085938 154.691406 C 119.71875 153.511719 119.25 152.429688 118.785156 150.664062 C 117.238281 151.839844 116.183594 152.773438 114.511719 154.101562 Z M 114.511719 154.101562 " fill-opacity="1" fill-rule="nonzero"/><path fill="#ffffff" d="M 245.558594 167.160156 C 245.316406 168.242188 245.09375 169.175781 244.847656 170.253906 C 244.480469 172.265625 243.890625 174.183594 243.890625 176.195312 C 243.769531 178.921875 244.601562 179.878906 247.574219 180.589844 C 249.832031 179.632812 251.011719 177.621094 252.214844 175.605469 C 253.761719 172.882812 255.183594 170.035156 256.851562 167.40625 C 259.457031 163.132812 261.835938 162.765625 265.519531 165.984375 C 266.820312 167.0625 267.777344 168.488281 269.078125 169.542969 C 270.503906 170.71875 272.050781 171.679688 274.0625 173.101562 C 274.898438 171.433594 275.855469 170.378906 276.074219 169.175781 C 276.542969 166.449219 276.910156 163.601562 276.910156 160.875 C 276.910156 153.511719 276.664062 146.046875 276.542969 138.683594 C 276.542969 136.546875 275.585938 134.878906 274.039062 133.332031 C 270.109375 129.402344 266.207031 125.253906 262.402344 121.226562 C 259.429688 118.011719 259.429688 116.246094 262.523438 112.929688 C 264.78125 113.175781 268.6875 115.902344 272.859375 120.171875 C 272.148438 120.761719 271.4375 121.351562 270.480469 122.0625 C 272.148438 123.609375 273.792969 125.03125 275.585938 126.457031 C 275.21875 124.074219 274.996094 121.71875 274.503906 119.335938 C 273.792969 115.65625 274.382812 114.597656 278.433594 112.683594 C 280.324219 116.710938 281.746094 120.761719 282.460938 125.277344 C 281.625 125.648438 281.035156 125.867188 280.570312 126.113281 C 279.390625 132.175781 282.582031 136.082031 287.097656 139.640625 C 286.730469 136.792969 286.511719 133.820312 286.140625 130.972656 C 285.675781 127.046875 285.183594 123.144531 284.71875 119.335938 C 284.347656 116.246094 285.796875 113.984375 288.277344 111.75 C 290.878906 116.144531 292.082031 120.664062 294.097656 125.523438 C 292.550781 125.15625 291.714844 124.933594 291.003906 124.691406 C 290.878906 124.933594 290.632812 125.15625 290.632812 125.402344 C 291.003906 131.933594 291.347656 138.339844 291.8125 144.871094 C 291.933594 146.761719 292.523438 148.796875 293.238281 150.6875 C 294.785156 154.960938 296.453125 159.230469 298.097656 163.625 C 298.34375 164.09375 298.21875 164.707031 298.21875 165.296875 C 298.21875 165.417969 297.976562 165.664062 297.507812 166.128906 C 295.839844 163.160156 294.292969 160.3125 292.402344 156.75 C 291.320312 162.449219 292.769531 167.800781 290.976562 172.90625 C 289.085938 171.949219 289.308594 170.402344 289.1875 168.976562 C 288.941406 163.992188 288.597656 159.132812 288.597656 154.148438 C 288.597656 151.054688 287.417969 148.796875 285.503906 146.5625 C 284.421875 145.386719 283.492188 144.183594 281.820312 143.125 C 281.699219 144.207031 281.574219 145.140625 281.574219 146.21875 C 281.699219 151.792969 282.164062 157.488281 281.945312 163.085938 C 281.820312 166.179688 281.230469 169.371094 280.152344 172.21875 C 278.136719 177.449219 273.15625 178.75 268.636719 175.3125 C 267.335938 174.230469 266.132812 173.054688 264.953125 171.875 C 263.996094 170.917969 263.164062 169.984375 261.738281 168.558594 C 260.660156 170.230469 259.847656 171.40625 259.136719 172.710938 C 257.125 175.800781 255.332031 178.992188 253.195312 182.085938 C 252.359375 183.265625 251.058594 184.222656 249.882812 184.8125 C 245.488281 187.070312 241.460938 184.691406 240.96875 179.828125 C 240.601562 175.800781 241.214844 171.996094 243.570312 168.558594 C 243.941406 167.972656 244.160156 167.382812 244.40625 166.769531 C 244.628906 166.671875 245.09375 166.914062 245.558594 167.160156 Z M 245.558594 167.160156 " fill-opacity="1" fill-rule="nonzero"/><path fill="#ffffff" d="M 119.03125 112.660156 C 121.164062 115.628906 122 119.191406 123.769531 122.75 C 122.222656 122.871094 121.386719 122.996094 120.550781 122.996094 C 120.550781 123.460938 120.304688 123.832031 120.429688 124.074219 C 121.019531 126.578125 121.730469 129.058594 122.222656 131.5625 C 122.464844 132.863281 122.34375 134.289062 122.097656 135.589844 C 121.386719 140.574219 117.359375 142.832031 112.71875 140.820312 C 111.640625 140.351562 110.828125 139.738281 109.75 139.273438 C 108.203125 140.351562 106.78125 141.40625 105.109375 142.585938 C 104.03125 148.035156 105.476562 153.976562 102.972656 159.453125 C 101.082031 154.101562 102.605469 148.527344 101.425781 142.832031 C 98.578125 142.121094 95.144531 141.53125 94.183594 138.09375 C 93.351562 135.246094 93.226562 132.152344 92.761719 128.59375 C 92.050781 129.671875 91.460938 130.484375 91.09375 131.441406 C 89.667969 135 88.367188 138.558594 86.820312 142.121094 C 86.230469 143.667969 85.640625 145.433594 83.605469 145.679688 C 81.46875 145.925781 80.042969 144.5 79.457031 142.953125 C 78.277344 140.105469 77.074219 137.136719 76.605469 134.042969 C 76.140625 130.828125 76.363281 127.511719 76.484375 124.296875 C 76.484375 122.871094 76.730469 121.324219 78.742188 121.082031 C 80.167969 122.160156 79.921875 123.585938 79.921875 125.007812 C 79.921875 128.324219 80.042969 131.785156 80.511719 134.976562 C 80.757812 136.867188 81.589844 138.902344 83.824219 140.328125 C 84.535156 138.78125 85.25 137.480469 85.617188 136.054688 C 87.164062 130.949219 89.421875 126.210938 92.738281 122.039062 C 93.324219 121.324219 93.695312 120.492188 94.039062 120.023438 C 97.253906 120.859375 97.007812 122.996094 97.132812 124.886719 C 97.253906 127.734375 97.007812 130.457031 97.253906 133.304688 C 97.375 134.730469 97.71875 136.152344 98.335938 137.457031 C 98.703125 138.167969 99.636719 138.632812 100.9375 139.714844 C 100.9375 137.578125 101.058594 136.277344 100.9375 134.976562 C 100.347656 130.238281 99.636719 125.476562 99.046875 120.613281 C 98.578125 116.589844 99.757812 114.453125 103.5625 112.195312 C 106.164062 114.574219 106.535156 116 105.109375 118.847656 C 104.644531 119.925781 103.808594 121.105469 103.929688 122.285156 C 104.054688 127.390625 104.398438 132.496094 104.765625 137.945312 C 107.023438 136.867188 107.269531 135.441406 107.023438 133.550781 C 106.3125 129.402344 106.191406 125.351562 106.78125 121.203125 C 107.023438 119.65625 107.367188 118.109375 108.914062 117.273438 C 110.929688 118.109375 110.707031 119.78125 110.804688 121.300781 C 110.929688 124.738281 110.804688 128.296875 111.171875 131.761719 C 111.296875 133.429688 112.253906 135.074219 112.71875 136.496094 C 116.746094 137.085938 118.660156 135.417969 118.074219 131.761719 C 117.484375 128.445312 116.402344 125.230469 115.46875 122.011719 C 114.390625 119.066406 115.8125 114.796875 119.03125 112.660156 Z M 119.03125 112.660156 " fill-opacity="1" fill-rule="nonzero"/><path fill="#ffffff" d="M 183.128906 113.496094 C 185.632812 118.234375 186.222656 123.117188 186.566406 127.980469 C 186.691406 129.648438 187.035156 131.292969 187.523438 132.839844 C 188.113281 134.507812 189.316406 135.6875 191.328125 135.566406 C 193.121094 134.976562 193.832031 133.550781 193.589844 131.882812 C 193.121094 129.28125 192.507812 126.652344 191.796875 124.050781 C 191.550781 122.972656 190.960938 121.914062 190.617188 120.957031 C 188.949219 117.03125 189.195312 116.316406 193.121094 113.46875 C 195.136719 116.441406 197.269531 119.289062 199.527344 122.601562 C 198.570312 122.847656 198.226562 122.847656 197.859375 122.972656 C 197.492188 123.09375 197.269531 123.09375 196.78125 123.214844 C 196.78125 123.683594 196.78125 124.175781 196.902344 124.519531 C 197.984375 128.445312 198.914062 132.347656 197.613281 136.398438 C 196.3125 140.792969 191.453125 142.5625 187.648438 139.960938 C 186.691406 139.371094 185.976562 138.535156 184.921875 137.699219 C 182.320312 140.792969 179.347656 142.929688 175.078125 142.339844 C 170.683594 141.75 168.667969 138.660156 166.878906 134.507812 C 166.289062 135.6875 165.796875 136.523438 165.332031 137.355469 C 163.785156 140.574219 161.648438 141.875 158.800781 141.628906 C 155.832031 141.382812 152.859375 139.125 152.515625 135.933594 C 152.050781 131.292969 152.269531 126.554688 152.394531 121.914062 C 152.394531 120.246094 152.640625 118.601562 154.652344 116.808594 C 154.773438 118.601562 154.898438 119.535156 155.019531 120.613281 C 155.265625 124.542969 155.386719 128.445312 155.976562 132.25 C 156.222656 134.140625 157.402344 135.8125 157.992188 137.234375 C 160.496094 138.070312 161.917969 137.234375 162.507812 135.6875 C 163.21875 133.796875 163.933594 131.660156 164.054688 129.625 C 164.421875 126.0625 164.890625 122.75 166.65625 119.65625 C 167.246094 118.699219 168.082031 117.988281 168.914062 117.152344 C 170.707031 118.699219 170.214844 120.367188 170.339844 121.890625 C 170.339844 125.328125 170.585938 128.765625 170.929688 132.226562 C 171.050781 133.0625 171.519531 133.894531 172.007812 134.730469 C 173.433594 137.113281 175.324219 138.167969 177.457031 137.578125 C 179.964844 136.988281 181.976562 134.976562 181.976562 132.347656 C 181.976562 130.335938 181.507812 128.324219 181.019531 126.40625 C 180.648438 124.859375 179.9375 123.4375 179.59375 121.890625 C 178.367188 118.234375 179.324219 115.972656 183.128906 113.496094 Z M 183.128906 113.496094 " fill-opacity="1" fill-rule="nonzero"/><path fill="#ffffff" d="M 221.699219 149.214844 C 221.941406 157.757812 222.285156 166.179688 220.519531 174.84375 C 218.136719 174.011719 218.507812 172.710938 218.507812 171.53125 C 218.507812 167.601562 218.75 163.699219 218.628906 159.769531 C 218.261719 154.074219 217.792969 148.378906 217.082031 142.683594 C 216.960938 141.382812 216.371094 140.082031 215.660156 139.003906 C 210.921875 133.183594 206.15625 127.367188 201.296875 121.667969 C 198.792969 118.820312 198.328125 115.972656 200.707031 111.824219 C 204.023438 114.550781 207.359375 117.273438 211.042969 120.367188 C 209.742188 120.835938 209.03125 121.203125 207.949219 121.546875 C 210.207031 124.273438 212.46875 126.898438 214.601562 129.5 C 214.726562 129.378906 214.972656 129.378906 215.070312 129.253906 C 214.355469 125.820312 213.644531 122.382812 212.933594 118.796875 C 212.222656 115.113281 213.890625 112.636719 216.960938 110.253906 C 219.683594 114.894531 222.3125 119.386719 224.914062 123.902344 C 222.65625 125.574219 221.476562 123.316406 219.339844 122.945312 C 219.464844 124.371094 219.464844 125.792969 219.585938 127.09375 C 219.953125 130.3125 220.296875 133.625 220.765625 136.839844 C 221.011719 138.386719 221.476562 139.933594 222.3125 141.234375 C 226.238281 148.011719 229.675781 154.886719 231.691406 162.375 C 231.8125 162.964844 231.933594 163.550781 231.566406 164.507812 C 228.472656 159.28125 225.503906 154.050781 222.433594 148.722656 C 222.1875 148.992188 221.941406 149.117188 221.699219 149.214844 Z M 221.699219 149.214844 " fill-opacity="1" fill-rule="nonzero"/><path fill="#ffffff" d="M 300.0625 111.949219 C 300.652344 112.539062 301.019531 112.78125 301.140625 113.027344 C 302.566406 117.054688 303.988281 121.226562 305.535156 125.621094 C 304.578125 125.867188 303.742188 125.992188 302.566406 126.089844 C 303.03125 130.484375 303.523438 134.753906 303.867188 139.027344 C 304.578125 147.570312 305.289062 155.992188 304.113281 164.558594 C 303.277344 170.378906 300.894531 175.359375 295.914062 178.675781 C 292.820312 180.8125 289.382812 182.480469 286.066406 184.246094 C 285.234375 184.714844 284.054688 184.617188 283.097656 184.714844 C 282.976562 184.46875 282.976562 184.125 282.851562 183.878906 C 283.808594 183.289062 284.644531 182.699219 285.578125 182.210938 C 289.601562 179.953125 293.285156 177.226562 296.257812 173.542969 C 298.761719 170.449219 300.183594 167.011719 300.0625 162.988281 C 299.9375 157.757812 299.691406 152.429688 299.226562 147.203125 C 298.390625 138.902344 297.335938 130.703125 296.257812 122.503906 C 295.542969 118.355469 296.96875 115.042969 300.0625 111.949219 Z M 300.0625 111.949219 " fill-opacity="1" fill-rule="nonzero"/><path fill="#ffffff" d="M 237.140625 112.539062 C 238.6875 116.464844 240.234375 120.246094 241.878906 124.640625 C 240.332031 124.394531 239.496094 124.273438 238.316406 124.050781 C 238.316406 124.640625 238.195312 125.132812 238.316406 125.597656 C 239.988281 135.097656 241.164062 144.722656 240.699219 154.320312 C 240.332031 160.386719 239.277344 166.300781 236.671875 171.898438 C 234.660156 176.292969 231.222656 179.140625 226.460938 180.441406 C 223.859375 181.15625 221.230469 181.867188 218.628906 182.332031 C 217.550781 182.578125 216.492188 182.457031 215.316406 182.578125 C 215.316406 180.195312 217.105469 180.441406 218.164062 180.074219 C 221.132812 178.992188 224.105469 178.183594 226.953125 176.859375 C 230.167969 175.3125 232.402344 172.710938 233.726562 169.273438 C 236.230469 162.398438 237.164062 155.253906 236.230469 148.132812 C 235.054688 138.878906 233.507812 129.722656 232.082031 120.589844 C 231.566406 116.21875 232.277344 114.550781 237.140625 112.539062 Z M 237.140625 112.539062 " fill-opacity="1" fill-rule="nonzero"/><path fill="#ffffff" d="M 247.820312 115.261719 C 250.078125 119.410156 252.335938 123.460938 254.59375 127.609375 C 254.347656 127.855469 254.226562 128.078125 254.003906 128.324219 C 252.925781 128.078125 251.746094 127.855469 250.199219 127.488281 C 251.746094 143.398438 252.335938 159.058594 249.488281 174.746094 C 249.121094 174.746094 248.777344 174.746094 248.410156 174.871094 C 248.164062 173.199219 247.695312 171.554688 247.820312 169.886719 C 248.1875 154.445312 246.273438 139.246094 244.601562 123.953125 C 244.480469 122.527344 244.234375 121.105469 244.234375 119.558594 C 244.136719 116.929688 244.503906 116.589844 247.820312 115.261719 Z M 247.820312 115.261719 " fill-opacity="1" fill-rule="nonzero"/><path fill="#ffffff" d="M 77.34375 159.550781 C 77.808594 158.960938 78.179688 158.125 78.769531 157.660156 C 82.695312 154.566406 86.597656 151.375 90.75 148.527344 C 93.128906 146.734375 93.71875 146.859375 96.8125 147.9375 C 94.554688 151.496094 90.648438 152.210938 87.679688 154.46875 C 84.707031 156.726562 81.394531 158.496094 78.179688 160.53125 C 77.835938 160.140625 77.589844 159.917969 77.34375 159.550781 Z M 77.34375 159.550781 " fill-opacity="1" fill-rule="nonzero"/><path fill="#ffffff" d="M 259.703125 148.871094 C 262.425781 147.078125 262.792969 147.203125 264.339844 149.117188 C 265.175781 150.195312 266.011719 151.375 267.1875 152.921875 C 268.023438 150.320312 268.613281 148.28125 269.324219 146.144531 C 270.40625 146.023438 271.339844 145.902344 272.640625 145.777344 C 271.214844 149.804688 270.035156 153.363281 268.613281 157.046875 C 267.902344 156.921875 267.066406 157.046875 266.722656 156.679688 C 264.316406 154.199219 262.082031 151.597656 259.703125 148.871094 Z M 259.703125 148.871094 " fill-opacity="1" fill-rule="nonzero"/><path fill="#ffffff" d="M 144.539062 121.082031 C 140.976562 116.34375 141.6875 112.882812 146.082031 112.167969 C 149.519531 114.425781 147.386719 118.332031 148.933594 120.835938 C 146.425781 122.847656 144.070312 124.761719 141.8125 126.53125 C 141.566406 126.40625 141.445312 126.164062 141.222656 126.0625 C 142.179688 124.417969 143.359375 122.75 144.539062 121.082031 Z M 145.617188 115.261719 C 145.25 115.261719 144.90625 115.386719 144.539062 115.386719 C 144.78125 116.097656 144.90625 116.808594 145.125 117.398438 C 145.371094 117.398438 145.59375 117.273438 145.839844 117.273438 C 145.738281 116.6875 145.738281 115.972656 145.617188 115.261719 Z M 145.617188 115.261719 " fill-opacity="1" fill-rule="nonzero"/><path fill="#ffffff" d="M 81.273438 170.230469 C 81.515625 173.542969 77.710938 176.636719 80.804688 180.195312 C 81.984375 180.195312 83.1875 180.074219 84.953125 179.953125 C 84.585938 180.910156 84.488281 181.964844 83.996094 182.332031 C 81.984375 183.757812 78.300781 182.578125 77.34375 180.441406 C 76.042969 177.347656 77.957031 172.242188 81.273438 170.230469 Z M 81.273438 170.230469 " fill-opacity="1" fill-rule="nonzero"/><path fill="#ffffff" d="M 270.503906 134.386719 C 269.546875 138.660156 266.109375 140.792969 262.425781 142.585938 C 260.757812 143.421875 258.867188 144.722656 256.976562 142.339844 C 258.644531 139.738281 261.835938 140.449219 263.851562 138.902344 C 265.863281 137.234375 267.875 135.589844 270.011719 133.921875 C 270.035156 134.019531 270.257812 134.140625 270.503906 134.386719 Z M 270.503906 134.386719 " fill-opacity="1" fill-rule="nonzero"/><path fill="#ffffff" d="M 208.171875 181.742188 C 206.035156 180.441406 207.089844 178.648438 206.992188 176.761719 C 205.570312 177.226562 204.265625 177.71875 202.84375 178.183594 C 203.679688 174.746094 205.445312 173.789062 209.496094 174.378906 C 209.496094 176.046875 209.496094 177.691406 209.496094 179.609375 C 210.921875 179.363281 212.222656 179.238281 214.136719 179.019531 C 212.222656 181.523438 210.308594 182.113281 208.171875 181.742188 Z M 208.171875 181.742188 " fill-opacity="1" fill-rule="nonzero"/><path fill="#ffffff" d="M 187.035156 149.582031 C 185.242188 150.539062 183.71875 151.375 181.925781 152.183594 C 179.203125 151.71875 178.832031 151.226562 178.710938 147.078125 C 179.667969 148.378906 180.378906 149.335938 181.4375 150.882812 C 181.804688 149.214844 182.023438 148.160156 182.394531 146.734375 C 183.351562 147.324219 184.183594 147.816406 185.609375 148.527344 C 185.242188 146.734375 185.019531 145.558594 184.773438 144.253906 C 187.15625 145.3125 187.523438 146.246094 187.035156 149.582031 Z M 187.035156 149.582031 " fill-opacity="1" fill-rule="nonzero"/><path fill="#ffffff" d="M 86.5 113.714844 C 86.378906 115.605469 83.996094 117.03125 86.035156 119.066406 C 87.214844 118.355469 88.539062 117.644531 89.960938 116.929688 C 89.960938 119.4375 88.414062 121.203125 86.035156 121.449219 C 84.242188 121.695312 82.941406 120.738281 82.597656 119.066406 C 81.984375 116.6875 83.40625 114.671875 86.5 113.714844 Z M 86.5 113.714844 " fill-opacity="1" fill-rule="nonzero"/><path fill="#ffffff" d="M 264.4375 181.621094 C 263.480469 180.785156 262.769531 180.320312 261.589844 179.363281 C 263.726562 178.992188 265.152344 178.773438 266.574219 178.527344 C 267.164062 181.964844 264.683594 185.402344 260.046875 188.152344 C 259.921875 186.480469 259.921875 186.480469 261.589844 184.835938 C 262.550781 183.757812 263.382812 182.824219 264.4375 181.621094 Z M 264.4375 181.621094 " fill-opacity="1" fill-rule="nonzero"/><path fill="#ffffff" d="M 230.730469 133.207031 C 231.8125 135.933594 231.8125 135.933594 230.265625 138.070312 C 228.375 138.070312 226.582031 138.070312 224.816406 138.070312 C 223.734375 136.277344 223.734375 134.632812 225.183594 132.496094 C 225.308594 134.164062 225.429688 135.222656 225.550781 137.011719 C 226.632812 135.710938 227.222656 135 227.933594 134.042969 C 228.523438 134.878906 229.015625 135.589844 229.824219 136.546875 C 230.019531 135.097656 230.363281 134.140625 230.730469 133.207031 Z M 230.730469 133.207031 " fill-opacity="1" fill-rule="nonzero"/><path fill="#ffffff" d="M 144.070312 140.203125 C 145.25 140.203125 146.207031 140.203125 147.164062 140.203125 C 145.984375 142.710938 145.273438 142.808594 142.058594 141.507812 C 140.265625 137.945312 142.179688 135.34375 144.5625 132.128906 C 145.027344 135.222656 142.523438 137.480469 144.070312 140.203125 Z M 144.070312 140.203125 " fill-opacity="1" fill-rule="nonzero"/><path fill="#ffffff" d="M 140.855469 167.160156 C 139.898438 165.738281 139.183594 164.78125 138.472656 163.847656 C 138.597656 163.601562 138.71875 163.378906 138.71875 163.132812 C 139.675781 163.378906 140.976562 163.257812 141.320312 163.847656 C 142.03125 164.804688 142.621094 166.226562 142.621094 167.40625 C 142.5 169.789062 139.773438 172.390625 136.679688 173.226562 C 138.253906 170.941406 139.554688 169.050781 140.855469 167.160156 Z M 140.855469 167.160156 " fill-opacity="1" fill-rule="nonzero"/><path fill="#ffffff" d="M 227.761719 126.0625 C 227.171875 122.039062 226.460938 117.988281 225.75 113.25 C 228.941406 115.875 229.652344 121.449219 227.761719 126.0625 Z M 227.761719 126.0625 " fill-opacity="1" fill-rule="nonzero"/></svg>