<svg xmlns="http://www.w3.org/2000/svg" xmlns:xlink="http://www.w3.org/1999/xlink" width="500" zoomAndPan="magnify" viewBox="0 0 375 374.999991" height="500" preserveAspectRatio="xMidYMid meet" version="1.0"><defs><clipPath id="8a2c46eacd"><path d="M 132.910156 155 L 145 155 L 145 173 L 132.910156 173 Z M 132.910156 155 " clip-rule="nonzero"/></clipPath><clipPath id="720624952a"><path d="M 132.910156 154 L 139 154 L 139 157 L 132.910156 157 Z M 132.910156 154 " clip-rule="nonzero"/></clipPath><clipPath id="353a24bf3f"><path d="M 149 150 L 242.410156 150 L 242.410156 173 L 149 173 Z M 149 150 " clip-rule="nonzero"/></clipPath><clipPath id="6902d4547c"><path d="M 173 166 L 212 166 L 212 187.332031 L 173 187.332031 Z M 173 166 " clip-rule="nonzero"/></clipPath></defs><path fill="#000000" d="M 212.335938 164.652344 C 216.867188 163.675781 221.324219 162.386719 225.71875 160.933594 C 227.804688 160.246094 229.886719 159.527344 231.933594 158.726562 C 233.6875 158.042969 235.503906 157.265625 236.902344 155.980469 C 236.953125 155.933594 236.886719 155.84375 236.824219 155.882812 C 233.257812 158.269531 229.125 159.539062 225.066406 160.867188 C 220.859375 162.246094 216.589844 163.421875 212.3125 164.554688 C 212.25 164.570312 212.273438 164.664062 212.335938 164.652344 " fill-opacity="1" fill-rule="nonzero"/><path fill="#000000" d="M 181.824219 183.949219 C 188.855469 179.046875 196.171875 174.515625 203.359375 169.851562 C 204.722656 168.964844 206.074219 168.058594 207.429688 167.160156 C 207.519531 167.097656 207.4375 166.953125 207.339844 167.007812 C 199.984375 171.40625 192.914062 176.347656 185.824219 181.148438 C 184.476562 182.058594 183.121094 182.960938 181.800781 183.90625 C 181.777344 183.925781 181.800781 183.964844 181.824219 183.949219 " fill-opacity="1" fill-rule="nonzero"/><path fill="#000000" d="M 154.671875 175.96875 C 159.972656 175.707031 165.207031 175.527344 170.429688 174.507812 C 174.972656 173.621094 179.496094 172.625 184.011719 171.625 C 185.214844 171.359375 186.410156 171.082031 187.609375 170.8125 C 187.738281 170.78125 187.683594 170.585938 187.554688 170.613281 C 184.488281 171.304688 181.410156 171.964844 178.335938 172.628906 C 174.046875 173.550781 169.734375 174.582031 165.367188 175.101562 C 161.816406 175.523438 158.230469 175.59375 154.671875 175.914062 C 154.632812 175.917969 154.632812 175.972656 154.671875 175.96875 " fill-opacity="1" fill-rule="nonzero"/><path fill="#000000" d="M 183.527344 156.359375 C 186.085938 157.539062 188.792969 158.628906 191.515625 159.347656 C 191.679688 159.390625 191.746094 159.144531 191.585938 159.097656 C 188.863281 158.296875 186.234375 157.230469 183.558594 156.292969 C 183.519531 156.28125 183.492188 156.34375 183.527344 156.359375 " fill-opacity="1" fill-rule="nonzero"/><path fill="#000000" d="M 185.261719 159.179688 C 185.609375 159.429688 186.019531 159.597656 186.414062 159.769531 C 186.757812 159.917969 187.121094 160.121094 187.496094 160.183594 C 187.589844 160.199219 187.636719 160.089844 187.558594 160.03125 C 187.25 159.808594 186.855469 159.699219 186.503906 159.558594 C 186.101562 159.398438 185.695312 159.226562 185.269531 159.152344 C 185.253906 159.152344 185.246094 159.171875 185.261719 159.179688 " fill-opacity="1" fill-rule="nonzero"/><path fill="#000000" d="M 180.136719 156.636719 C 180.925781 157.074219 181.878906 157.714844 182.804688 157.777344 C 182.882812 157.785156 182.902344 157.675781 182.84375 157.640625 C 182.488281 157.417969 182.050781 157.328125 181.660156 157.183594 C 181.15625 157 180.640625 156.824219 180.152344 156.609375 C 180.132812 156.597656 180.117188 156.625 180.136719 156.636719 " fill-opacity="1" fill-rule="nonzero"/><path fill="#000000" d="M 200.027344 174.707031 C 198.851562 175.132812 197.613281 175.3125 196.4375 175.710938 C 196.339844 175.746094 196.347656 175.902344 196.460938 175.898438 C 197.6875 175.851562 198.96875 175.308594 200.082031 174.828125 C 200.152344 174.800781 200.101562 174.679688 200.027344 174.707031 " fill-opacity="1" fill-rule="nonzero"/><path fill="#000000" d="M 202.25 174 C 202.710938 174.019531 203.226562 173.929688 203.578125 173.617188 C 203.621094 173.578125 203.578125 173.496094 203.523438 173.519531 C 203.09375 173.691406 202.71875 173.867188 202.25 173.898438 C 202.183594 173.902344 202.183594 173.996094 202.25 174 " fill-opacity="1" fill-rule="nonzero"/><path fill="#000000" d="M 201.976562 173.285156 C 202.351562 173.308594 202.722656 173.230469 203.035156 173.015625 C 203.125 172.957031 203.046875 172.824219 202.949219 172.871094 C 202.636719 173.023438 202.324219 173.125 201.976562 173.140625 C 201.878906 173.144531 201.882812 173.28125 201.976562 173.285156 " fill-opacity="1" fill-rule="nonzero"/><path fill="#000000" d="M 147.191406 173.117188 C 149.53125 173.59375 151.894531 173.957031 154.253906 174.324219 C 154.402344 174.347656 154.46875 174.121094 154.316406 174.097656 C 151.949219 173.726562 149.582031 173.347656 147.195312 173.085938 C 147.179688 173.085938 147.175781 173.113281 147.191406 173.117188 " fill-opacity="1" fill-rule="nonzero"/><path fill="#000000" d="M 140.742188 165.003906 C 142.414062 167.238281 143.476562 169.855469 145.140625 172.070312 C 145.242188 172.203125 145.457031 172.089844 145.371094 171.9375 C 144.058594 169.554688 142.695312 166.941406 140.820312 164.945312 C 140.78125 164.90625 140.710938 164.960938 140.742188 165.003906 " fill-opacity="1" fill-rule="nonzero"/><path fill="#000000" d="M 139.929688 157.105469 C 141.71875 158.480469 143.828125 159.539062 145.761719 160.691406 C 148.980469 162.609375 152.199219 164.527344 155.421875 166.445312 C 156.183594 166.898438 156.953125 167.347656 157.714844 167.800781 C 157.871094 167.890625 158.007812 167.65625 157.855469 167.5625 C 152.65625 164.472656 147.472656 161.347656 142.246094 158.304688 C 141.503906 157.871094 140.757812 157.398438 139.972656 157.050781 C 139.9375 157.035156 139.894531 157.078125 139.929688 157.105469 " fill-opacity="1" fill-rule="nonzero"/><path fill="#000000" d="M 231.625 151.898438 C 231.46875 151.890625 231.53125 151.882812 231.386719 151.929688 C 231.289062 151.960938 231.308594 152.09375 231.40625 152.101562 C 232.511719 152.191406 233.679688 152.21875 234.785156 152.140625 C 234.957031 152.128906 234.957031 151.886719 234.785156 151.878906 C 234.226562 151.839844 233.660156 151.863281 233.097656 151.871094 C 232.660156 151.875 232.050781 151.796875 231.628906 151.925781 C 231.644531 151.921875 231.640625 151.898438 231.625 151.898438 " fill-opacity="1" fill-rule="nonzero"/><path fill="#000000" d="M 175.332031 185.839844 C 176.074219 186.03125 176.898438 186.1875 177.664062 186.097656 C 177.738281 186.089844 177.738281 185.988281 177.664062 185.980469 C 176.890625 185.90625 176.113281 185.917969 175.335938 185.816406 C 175.324219 185.816406 175.320312 185.835938 175.332031 185.839844 " fill-opacity="1" fill-rule="nonzero"/><path fill="#000000" d="M 210.71875 166.808594 C 210.648438 165.0625 208.355469 165.300781 207.195312 165.582031 C 204.640625 166.210938 202.113281 166.960938 199.597656 167.726562 C 197.214844 168.453125 194.851562 169.261719 192.460938 169.96875 C 190.929688 170.421875 189.304688 170.980469 188.832031 172.683594 C 188.800781 172.804688 188.941406 172.929688 189.054688 172.855469 C 189.722656 172.386719 190.261719 171.757812 190.984375 171.359375 C 191.550781 171.046875 192.183594 170.875 192.796875 170.679688 C 194.742188 170.0625 196.683594 169.4375 198.636719 168.832031 C 200.582031 168.234375 202.53125 167.648438 204.492188 167.105469 C 206.261719 166.613281 208.964844 165.296875 210.386719 166.945312 C 210.496094 167.070312 210.722656 166.96875 210.71875 166.808594 " fill-opacity="1" fill-rule="nonzero"/><path fill="#000000" d="M 134.484375 157.675781 C 136.933594 159.640625 139.964844 161.058594 142.691406 162.601562 C 143.726562 163.183594 144.722656 163.488281 145.058594 164.765625 C 145.257812 165.523438 145.257812 166.402344 145.355469 167.183594 C 145.5625 168.792969 145.757812 170.40625 145.976562 172.015625 C 146.007812 172.261719 146.394531 172.269531 146.371094 172.015625 C 146.179688 170.136719 145.972656 168.253906 145.757812 166.378906 C 145.671875 165.617188 145.703125 164.71875 145.46875 163.976562 C 145.296875 163.433594 144.886719 163.246094 144.40625 162.96875 C 142.726562 161.996094 141.027344 161.058594 139.332031 160.109375 C 137.765625 159.234375 136.199219 158.257812 134.507812 157.632812 C 134.484375 157.621094 134.464844 157.660156 134.484375 157.675781 " fill-opacity="1" fill-rule="nonzero"/><path fill="#000000" d="M 148.261719 160.417969 C 148.167969 162.371094 148.539062 164.394531 148.761719 166.332031 C 148.972656 168.179688 149.085938 170.082031 149.453125 171.90625 C 149.503906 172.175781 149.949219 172.117188 149.9375 171.839844 C 149.84375 169.871094 149.46875 167.882812 149.214844 165.925781 C 148.976562 164.097656 148.847656 162.175781 148.316406 160.410156 C 148.308594 160.378906 148.265625 160.386719 148.261719 160.417969 " fill-opacity="1" fill-rule="nonzero"/><path fill="#000000" d="M 138.191406 173.195312 C 140.257812 173.957031 142.710938 174.035156 144.890625 174.296875 C 147.25 174.582031 149.644531 174.878906 152.019531 174.984375 C 152.382812 175 152.363281 174.476562 152.019531 174.433594 C 149.722656 174.152344 147.402344 173.992188 145.101562 173.746094 C 142.859375 173.507812 140.457031 172.941406 138.207031 173.09375 C 138.144531 173.097656 138.132812 173.175781 138.191406 173.195312 " fill-opacity="1" fill-rule="nonzero"/><path fill="#000000" d="M 178.355469 181.753906 C 179.582031 181.964844 181.0625 182.5625 182.125 181.738281 C 183.226562 180.886719 184.226562 179.910156 185.265625 178.984375 C 185.375 178.882812 185.3125 178.699219 185.175781 178.660156 C 184.199219 178.386719 183.199219 178.1875 182.210938 177.941406 C 181.921875 177.871094 181.800781 178.308594 182.089844 178.390625 C 183.070312 178.660156 184.085938 178.792969 185.074219 179.035156 C 185.042969 178.925781 185.015625 178.820312 184.988281 178.710938 C 184.128906 179.527344 183.234375 180.308594 182.332031 181.078125 C 181.867188 181.472656 181.582031 181.824219 180.953125 181.796875 C 180.089844 181.761719 179.226562 181.722656 178.363281 181.6875 C 178.324219 181.683594 178.316406 181.746094 178.355469 181.753906 " fill-opacity="1" fill-rule="nonzero"/><path fill="#000000" d="M 184.253906 176.542969 C 185.09375 176.652344 185.941406 176.738281 186.785156 176.8125 C 187.257812 176.851562 187.617188 176.917969 188.023438 176.699219 C 188.574219 176.398438 189.058594 175.796875 189.550781 175.398438 C 190.179688 174.886719 190.808594 174.375 191.410156 173.828125 C 191.570312 173.683594 191.429688 173.472656 191.253906 173.449219 C 190.238281 173.324219 188.84375 172.917969 187.855469 173.179688 C 187.71875 173.21875 187.683594 173.421875 187.8125 173.492188 C 188.742188 173.980469 190.214844 173.785156 191.253906 173.890625 C 191.203125 173.765625 191.148438 173.640625 191.097656 173.515625 C 190.21875 174.351562 189.269531 175.105469 188.382812 175.929688 C 187.324219 176.914062 185.628906 176.5 184.253906 176.523438 C 184.238281 176.523438 184.242188 176.539062 184.253906 176.542969 " fill-opacity="1" fill-rule="nonzero"/><path fill="#000000" d="M 177.667969 156.425781 C 178.28125 156.320312 178.894531 156.226562 179.507812 156.117188 C 179.761719 156.070312 180.035156 155.984375 180.289062 155.96875 C 180.558594 155.953125 180.363281 155.933594 180.46875 155.949219 C 180.929688 156.027344 181.472656 156.398438 181.890625 156.59375 C 182.449219 156.855469 183.015625 157.117188 183.558594 157.410156 C 183.542969 157.304688 183.53125 157.199219 183.515625 157.09375 C 182.914062 157.566406 182.191406 157.859375 181.519531 158.226562 C 181.265625 158.363281 181.5 158.765625 181.75 158.613281 C 182.4375 158.199219 183.175781 157.882812 183.804688 157.378906 C 183.90625 157.296875 183.871094 157.117188 183.765625 157.058594 C 183.140625 156.730469 182.492188 156.453125 181.839844 156.175781 C 181.453125 156.011719 180.953125 155.683594 180.53125 155.632812 C 179.675781 155.527344 178.457031 156.078125 177.632812 156.296875 C 177.550781 156.320312 177.585938 156.441406 177.667969 156.425781 " fill-opacity="1" fill-rule="nonzero"/><path fill="#000000" d="M 183.433594 159.417969 C 184.105469 159.140625 184.839844 159.019531 185.484375 158.671875 C 185.625 158.59375 185.875 158.59375 185.605469 158.574219 C 185.78125 158.585938 186.042969 158.777344 186.191406 158.851562 C 187.007812 159.261719 187.789062 159.75 188.589844 160.195312 C 188.867188 160.347656 189.113281 159.925781 188.835938 159.769531 C 188 159.300781 187.164062 158.820312 186.292969 158.414062 C 186.019531 158.289062 185.816406 158.148438 185.53125 158.191406 C 184.785156 158.296875 184.054688 158.996094 183.390625 159.3125 C 183.332031 159.339844 183.375 159.441406 183.433594 159.417969 " fill-opacity="1" fill-rule="nonzero"/><path fill="#000000" d="M 203.738281 171.96875 C 203.859375 172.199219 203.941406 172.511719 203.832031 172.757812 C 203.71875 173.011719 203.476562 173.082031 203.304688 173.273438 C 203.203125 173.390625 203.242188 173.566406 203.398438 173.617188 C 203.839844 173.757812 204.265625 173.285156 204.359375 172.894531 C 204.464844 172.460938 204.304688 172.011719 203.886719 171.820312 C 203.789062 171.773438 203.683594 171.867188 203.738281 171.96875 " fill-opacity="1" fill-rule="nonzero"/><path fill="#000000" d="M 203.878906 171.765625 C 204.226562 171.910156 204.511719 172.1875 204.679688 172.523438 C 204.746094 172.664062 204.792969 172.816406 204.8125 172.972656 C 204.839844 173.136719 204.800781 173.304688 204.863281 173.460938 C 204.929688 173.640625 205.15625 173.679688 205.265625 173.515625 C 205.507812 173.152344 205.238281 172.578125 205.003906 172.273438 C 204.726562 171.914062 204.347656 171.707031 203.894531 171.664062 C 203.828125 171.65625 203.832031 171.746094 203.878906 171.765625 " fill-opacity="1" fill-rule="nonzero"/><path fill="#000000" d="M 204 172.027344 C 204.375 171.554688 204.847656 171.339844 205.386719 171.105469 C 205.566406 171.03125 205.476562 170.730469 205.289062 170.742188 C 204.628906 170.785156 204.0625 171.292969 203.785156 171.863281 C 203.722656 171.992188 203.894531 172.15625 204 172.027344 " fill-opacity="1" fill-rule="nonzero"/><path fill="#000000" d="M 203.710938 171.75 C 203.378906 172.175781 202.972656 172.335938 202.472656 172.488281 C 202.242188 172.558594 202.277344 172.921875 202.53125 172.917969 C 203.152344 172.90625 203.683594 172.410156 203.894531 171.859375 C 203.933594 171.757812 203.777344 171.667969 203.710938 171.75 " fill-opacity="1" fill-rule="nonzero"/><g clip-path="url(#8a2c46eacd)"><path fill="#000000" d="M 133 155.902344 C 135.6875 160.648438 138.605469 165.234375 141.613281 169.785156 C 141.925781 170.253906 142.238281 170.726562 142.546875 171.195312 C 142.632812 171.324219 142.714844 171.457031 142.804688 171.585938 C 142.863281 171.667969 143.066406 171.953125 142.925781 171.742188 C 143.332031 172.359375 144.339844 171.78125 143.925781 171.160156 C 140.925781 166.640625 137.984375 162.046875 134.644531 157.761719 C 134.140625 157.113281 133.640625 156.472656 133.140625 155.824219 C 133.078125 155.746094 132.949219 155.8125 133 155.902344 " fill-opacity="1" fill-rule="nonzero"/></g><path fill="#000000" d="M 138.277344 155.257812 C 145.648438 159.46875 152.78125 164.125 160.285156 168.101562 C 160.640625 168.289062 160.910156 167.800781 160.59375 167.574219 C 157.488281 165.351562 154.164062 163.445312 150.871094 161.507812 C 146.847656 159.140625 142.835938 156.714844 138.722656 154.503906 C 138.222656 154.238281 137.785156 154.976562 138.277344 155.257812 " fill-opacity="1" fill-rule="nonzero"/><g clip-path="url(#720624952a)"><path fill="#000000" d="M 133.023438 156.132812 C 133.566406 156.570312 135.132812 156.015625 135.738281 155.898438 C 136.617188 155.726562 137.496094 155.550781 138.375 155.378906 C 139.027344 155.25 138.753906 154.242188 138.097656 154.382812 C 137.253906 154.5625 136.410156 154.742188 135.570312 154.921875 C 135.011719 155.039062 133.269531 155.160156 132.96875 155.738281 C 132.90625 155.855469 132.90625 156.039062 133.023438 156.132812 " fill-opacity="1" fill-rule="nonzero"/></g><path fill="#000000" d="M 137.507812 174.070312 C 139.152344 174.507812 140.800781 174.925781 142.453125 175.335938 C 143.535156 175.609375 144.613281 175.875 145.699219 176.148438 C 146.023438 176.226562 146.351562 176.320312 146.683594 176.378906 C 146.804688 176.402344 146.925781 176.433594 147.050781 176.445312 C 147.117188 176.453125 147.183594 176.414062 147.246094 176.414062 C 147.625 176.410156 146.960938 176.394531 147.007812 176.40625 C 147.644531 176.558594 147.914062 175.585938 147.277344 175.433594 C 147.300781 175.441406 147.785156 175.703125 147.488281 175.550781 C 147.449219 175.53125 147.425781 175.488281 147.386719 175.46875 C 147.261719 175.402344 147.152344 175.367188 147.019531 175.320312 C 146.714844 175.210938 146.382812 175.160156 146.066406 175.085938 C 144.957031 174.832031 143.847656 174.574219 142.734375 174.316406 C 141.074219 173.933594 139.414062 173.554688 137.75 173.199219 C 137.183594 173.078125 136.941406 173.917969 137.507812 174.070312 " fill-opacity="1" fill-rule="nonzero"/><path fill="#000000" d="M 137.605469 173.882812 C 138.808594 173.371094 140.109375 172.902344 141.371094 172.558594 C 142.828125 172.160156 144.40625 172.242188 145.894531 172.402344 C 149.273438 172.777344 152.660156 173.5 155.960938 174.28125 C 156.597656 174.429688 156.867188 173.460938 156.230469 173.3125 C 152.734375 172.484375 149.132812 171.703125 145.542969 171.382812 C 142.53125 171.113281 139.871094 171.882812 137.125 173.070312 C 136.566406 173.3125 137.050781 174.121094 137.605469 173.882812 " fill-opacity="1" fill-rule="nonzero"/><path fill="#000000" d="M 147.273438 176.324219 C 150.308594 175.621094 153.414062 175.226562 156.410156 174.347656 C 157.085938 174.148438 156.796875 173.097656 156.117188 173.300781 C 153.132812 174.195312 150.03125 174.609375 147.015625 175.402344 C 146.417969 175.5625 146.671875 176.464844 147.273438 176.324219 " fill-opacity="1" fill-rule="nonzero"/><path fill="#000000" d="M 143.886719 175.542969 C 143.039062 175.960938 141.429688 176.726562 141.34375 177.855469 C 141.292969 178.519531 142.070312 178.941406 142.59375 179.09375 C 144.085938 179.523438 145.699219 179.238281 147.21875 179.070312 C 151.316406 178.621094 155.410156 178.148438 159.503906 177.675781 C 163.039062 177.269531 166.667969 177.050781 170.167969 176.449219 C 173.03125 175.953125 175.871094 175.234375 178.710938 174.625 C 182.285156 173.859375 185.859375 173.097656 189.429688 172.328125 C 190.117188 172.183594 189.828125 171.132812 189.140625 171.28125 C 182.925781 172.613281 176.714844 173.953125 170.507812 175.285156 C 167.945312 175.835938 165.285156 175.9375 162.683594 176.242188 C 158.636719 176.714844 154.585938 177.167969 150.542969 177.664062 C 149.09375 177.839844 147.644531 178.023438 146.199219 178.195312 C 145.1875 178.316406 144.148438 178.417969 143.132812 178.300781 C 142.914062 178.277344 142.445312 178.234375 142.25 178.09375 C 141.96875 177.886719 141.980469 177.898438 142.210938 177.503906 C 142.648438 176.765625 143.429688 176.398438 144.160156 176.011719 C 144.476562 175.847656 144.199219 175.386719 143.886719 175.542969 " fill-opacity="1" fill-rule="nonzero"/><g clip-path="url(#353a24bf3f)"><path fill="#000000" d="M 149.875 172.3125 C 153.320312 171.070312 156.792969 169.890625 160.261719 168.707031 C 166.476562 166.59375 172.695312 164.417969 179.066406 162.804688 C 184.332031 161.472656 189.617188 160.210938 194.890625 158.898438 C 203.207031 156.832031 211.523438 154.765625 219.839844 152.699219 C 221.757812 152.222656 223.6875 151.617188 225.632812 151.257812 C 228.316406 150.761719 231.355469 151.09375 234.050781 151.359375 C 235.777344 151.53125 237.546875 151.722656 239.226562 152.167969 C 239.769531 152.3125 240.488281 152.480469 240.890625 152.894531 C 241.453125 153.46875 240.90625 154.109375 240.457031 154.578125 C 239.054688 156.042969 237.117188 157.160156 235.347656 158.125 C 233.570312 159.09375 231.707031 159.898438 229.804688 160.59375 C 227.546875 161.414062 225.238281 162.082031 222.925781 162.742188 C 219.136719 163.824219 215.332031 164.863281 211.5625 165.996094 C 211.242188 166.089844 210.925781 166.191406 210.609375 166.285156 C 210.007812 166.457031 210.261719 167.390625 210.867188 167.21875 C 214.316406 166.230469 217.765625 165.257812 221.210938 164.265625 C 226.542969 162.734375 231.964844 161.277344 236.769531 158.433594 C 238.378906 157.484375 240.234375 156.390625 241.433594 154.933594 C 242.027344 154.214844 242.414062 153.269531 241.785156 152.453125 C 241.109375 151.574219 239.769531 151.292969 238.75 151.082031 C 236.96875 150.714844 235.140625 150.503906 233.332031 150.347656 C 230.78125 150.132812 227.890625 149.84375 225.359375 150.367188 C 224.652344 150.511719 223.953125 150.71875 223.253906 150.894531 C 215.4375 152.847656 207.621094 154.804688 199.800781 156.757812 C 193.003906 158.457031 186.207031 160.164062 179.414062 161.882812 C 169.5625 164.375 159.929688 167.964844 150.5625 171.851562 C 150.3125 171.957031 150.0625 172.058594 149.8125 172.164062 C 149.730469 172.199219 149.789062 172.34375 149.875 172.3125 " fill-opacity="1" fill-rule="nonzero"/></g><g clip-path="url(#6902d4547c)"><path fill="#000000" d="M 173.289062 186.613281 C 174.71875 186.882812 176.195312 187.207031 177.648438 187.289062 C 178.148438 187.316406 178.488281 187.175781 178.941406 186.964844 C 180.777344 186.113281 182.511719 185.023438 184.246094 183.988281 C 190.121094 180.476562 195.90625 176.804688 201.675781 173.125 C 204.710938 171.1875 207.738281 169.242188 210.769531 167.296875 C 211.394531 166.894531 210.804688 165.890625 210.179688 166.304688 C 204.683594 169.925781 199.191406 173.566406 193.671875 177.160156 C 189.042969 180.167969 184.460938 183.304688 179.625 185.984375 C 179.136719 186.253906 178.558594 186.664062 177.996094 186.773438 C 177.28125 186.910156 176.253906 186.636719 175.511719 186.554688 C 174.800781 186.472656 174.089844 186.382812 173.378906 186.28125 C 173.164062 186.25 173.066406 186.574219 173.289062 186.613281 " fill-opacity="1" fill-rule="nonzero"/></g><path fill="#000000" d="M 173.53125 186.328125 C 175.609375 185.132812 177.335938 183.429688 179.117188 181.851562 C 182.023438 179.277344 184.90625 176.675781 187.792969 174.078125 C 188.472656 173.46875 189.152344 172.859375 189.835938 172.246094 C 190.328125 171.804688 189.597656 171.085938 189.109375 171.523438 C 184.429688 175.726562 179.632812 179.835938 175.117188 184.214844 C 174.480469 184.832031 173.925781 185.488281 173.40625 186.203125 C 173.347656 186.28125 173.457031 186.375 173.53125 186.328125 " fill-opacity="1" fill-rule="nonzero"/><path fill="#000000" d="M 173.546875 154.546875 C 174.835938 154.480469 176.125 154.421875 177.414062 154.367188 C 178.625 154.320312 179.707031 154.648438 180.859375 154.996094 C 184.957031 156.234375 188.988281 157.796875 192.992188 159.300781 C 193.683594 159.5625 194.015625 158.421875 193.300781 158.1875 C 189.105469 156.832031 184.9375 155.382812 180.675781 154.230469 C 179.570312 153.929688 178.5625 153.699219 177.414062 153.785156 C 176.105469 153.886719 174.804688 154.03125 173.5 154.207031 C 173.308594 154.234375 173.355469 154.554688 173.546875 154.546875 " fill-opacity="1" fill-rule="nonzero"/><path fill="#000000" d="M 173.632812 154.546875 C 175.28125 156.023438 177.445312 156.882812 179.402344 157.878906 C 181.445312 158.914062 183.496094 159.925781 185.546875 160.945312 C 186.132812 161.238281 186.65625 160.359375 186.0625 160.066406 C 184.015625 159.046875 181.96875 158.019531 179.914062 157.015625 C 177.925781 156.046875 175.914062 154.824219 173.722656 154.394531 C 173.640625 154.375 173.558594 154.480469 173.632812 154.546875 " fill-opacity="1" fill-rule="nonzero"/><path fill="#000000" d="M 202.449219 172.253906 C 202.664062 173.441406 203.710938 175.042969 205.148438 174.359375 C 206.605469 173.667969 206.167969 171.722656 205.511719 170.636719 C 205.277344 170.25 204.558594 170.507812 204.742188 170.960938 C 205.050781 171.710938 205.835938 172.984375 204.914062 173.636719 C 203.9375 174.332031 203.105469 172.777344 202.667969 172.164062 C 202.589844 172.050781 202.425781 172.121094 202.449219 172.253906 " fill-opacity="1" fill-rule="nonzero"/><path fill="#000000" d="M 205.566406 173.992188 C 204.222656 174.300781 202.84375 174.453125 201.496094 174.769531 C 200.847656 174.921875 200.207031 175.09375 199.5625 175.246094 C 199.132812 175.347656 197.699219 175.875 197.320312 175.617188 C 196.722656 175.210938 196.167969 176.171875 196.753906 176.578125 C 197.175781 176.871094 197.632812 176.804688 198.109375 176.726562 C 199.019531 176.578125 199.933594 176.292969 200.820312 176.050781 C 202.539062 175.582031 204.011719 174.835938 205.613281 174.097656 C 205.675781 174.070312 205.628906 173.976562 205.566406 173.992188 " fill-opacity="1" fill-rule="nonzero"/><path fill="#000000" d="M 228.992188 152.714844 C 230.636719 152.347656 232.226562 151.902344 233.824219 151.367188 C 234.367188 151.183594 234.125 150.316406 233.585938 150.511719 C 231.976562 151.09375 230.433594 151.738281 228.894531 152.484375 C 228.761719 152.546875 228.859375 152.746094 228.992188 152.714844 " fill-opacity="1" fill-rule="nonzero"/><path fill="#000000" d="M 228.898438 152.703125 C 229.585938 153.675781 230.421875 154.269531 231.644531 154 C 232.699219 153.773438 233.730469 153.339844 234.769531 153.039062 C 235.878906 152.722656 237 152.4375 238.058594 151.980469 C 238.582031 151.753906 238.207031 150.917969 237.671875 151.074219 C 236.082031 151.53125 234.484375 152.046875 232.921875 152.585938 C 232.167969 152.847656 231.21875 153.390625 230.394531 153.351562 C 229.867188 153.328125 229.375 152.964844 228.984375 152.640625 C 228.941406 152.605469 228.863281 152.652344 228.898438 152.703125 " fill-opacity="1" fill-rule="nonzero"/><path fill="#000000" d="M 219.082031 155.488281 C 218.808594 155.882812 218.75 156.375 218.863281 156.839844 C 218.941406 157.164062 219.136719 157.441406 219.480469 157.515625 C 219.824219 157.59375 220.179688 157.441406 220.503906 157.339844 C 221.277344 157.089844 221.203125 156.140625 221.007812 155.5 C 220.875 155.066406 220.625 154.855469 220.160156 154.925781 C 219.808594 154.980469 219.273438 155.132812 219.042969 155.398438 C 218.832031 155.644531 218.863281 156.152344 219.257812 156.207031 C 219.5625 156.253906 219.753906 156.214844 220.015625 156.074219 C 220.1875 155.984375 220.34375 155.90625 220.535156 155.90625 C 220.449219 155.90625 220.363281 155.90625 220.273438 155.90625 C 219.964844 155.695312 220.070312 155.703125 220.148438 155.890625 C 220.171875 155.9375 220.167969 155.910156 220.140625 155.847656 C 220.152344 155.914062 220.160156 155.972656 220.171875 156.042969 C 220.1875 156.167969 220.238281 156.332031 220.195312 156.449219 C 220.171875 156.484375 220.148438 156.523438 220.128906 156.5625 C 220.308594 156.445312 220.339844 156.402344 220.21875 156.441406 C 220.152344 156.441406 220.074219 156.484375 220.007812 156.5 C 219.929688 156.523438 219.851562 156.550781 219.773438 156.570312 C 219.703125 156.585938 219.53125 156.570312 219.667969 156.625 C 219.792969 156.675781 219.714844 156.664062 219.714844 156.605469 C 219.714844 156.546875 219.675781 156.46875 219.660156 156.414062 C 219.628906 156.265625 219.589844 156.125 219.550781 155.980469 C 219.503906 155.800781 219.429688 155.65625 219.347656 155.488281 C 219.292969 155.378906 219.144531 155.402344 219.082031 155.488281 " fill-opacity="1" fill-rule="nonzero"/><path fill="#000000" d="M 215.878906 156.335938 C 215.605469 156.730469 215.546875 157.222656 215.660156 157.6875 C 215.738281 158.011719 215.933594 158.289062 216.277344 158.367188 C 216.621094 158.441406 216.976562 158.289062 217.300781 158.1875 C 218.074219 157.9375 218 156.988281 217.804688 156.347656 C 217.671875 155.914062 217.421875 155.703125 216.957031 155.777344 C 216.605469 155.828125 216.070312 155.984375 215.839844 156.25 C 215.628906 156.492188 215.660156 157 216.054688 157.054688 C 216.359375 157.101562 216.550781 157.0625 216.8125 156.925781 C 216.984375 156.832031 217.140625 156.753906 217.332031 156.753906 C 217.246094 156.753906 217.160156 156.753906 217.070312 156.753906 C 216.761719 156.542969 216.867188 156.550781 216.945312 156.738281 C 216.96875 156.785156 216.964844 156.757812 216.941406 156.695312 C 216.949219 156.761719 216.957031 156.820312 216.96875 156.890625 C 216.984375 157.015625 217.035156 157.179688 216.992188 157.296875 C 216.96875 157.332031 216.945312 157.371094 216.929688 157.410156 C 217.105469 157.292969 217.136719 157.25 217.015625 157.289062 C 216.949219 157.289062 216.871094 157.332031 216.804688 157.347656 C 216.726562 157.371094 216.648438 157.398438 216.570312 157.417969 C 216.5 157.433594 216.328125 157.417969 216.464844 157.472656 C 216.589844 157.523438 216.511719 157.511719 216.511719 157.453125 C 216.511719 157.394531 216.472656 157.316406 216.457031 157.261719 C 216.425781 157.113281 216.386719 156.972656 216.347656 156.828125 C 216.300781 156.648438 216.226562 156.503906 216.144531 156.335938 C 216.089844 156.226562 215.941406 156.25 215.878906 156.335938 " fill-opacity="1" fill-rule="nonzero"/><path fill="#000000" d="M 212.675781 157.183594 C 212.402344 157.578125 212.34375 158.070312 212.457031 158.535156 C 212.535156 158.859375 212.730469 159.136719 213.074219 159.214844 C 213.417969 159.289062 213.773438 159.140625 214.097656 159.035156 C 214.871094 158.785156 214.796875 157.835938 214.601562 157.195312 C 214.46875 156.761719 214.21875 156.550781 213.753906 156.625 C 213.402344 156.679688 212.867188 156.832031 212.636719 157.097656 C 212.425781 157.339844 212.457031 157.847656 212.851562 157.902344 C 213.15625 157.949219 213.347656 157.910156 213.609375 157.773438 C 213.78125 157.679688 213.9375 157.601562 214.128906 157.601562 C 214.042969 157.601562 213.957031 157.601562 213.867188 157.601562 C 213.558594 157.390625 213.664062 157.398438 213.742188 157.585938 C 213.765625 157.632812 213.761719 157.605469 213.738281 157.542969 C 213.746094 157.609375 213.753906 157.667969 213.765625 157.738281 C 213.78125 157.867188 213.832031 158.027344 213.789062 158.144531 C 213.765625 158.179688 213.742188 158.21875 213.726562 158.257812 C 213.902344 158.140625 213.933594 158.097656 213.8125 158.136719 C 213.746094 158.136719 213.667969 158.179688 213.601562 158.199219 C 213.523438 158.21875 213.445312 158.246094 213.367188 158.265625 C 213.296875 158.28125 213.125 158.265625 213.261719 158.320312 C 213.386719 158.371094 213.308594 158.359375 213.308594 158.300781 C 213.308594 158.242188 213.269531 158.164062 213.253906 158.109375 C 213.222656 157.964844 213.183594 157.820312 213.144531 157.675781 C 213.097656 157.496094 213.023438 157.351562 212.941406 157.183594 C 212.886719 157.074219 212.738281 157.097656 212.675781 157.183594 " fill-opacity="1" fill-rule="nonzero"/><path fill="#000000" d="M 209.472656 158.03125 C 209.199219 158.425781 209.140625 158.917969 209.253906 159.382812 C 209.332031 159.707031 209.527344 159.984375 209.871094 160.0625 C 210.214844 160.136719 210.570312 159.988281 210.894531 159.882812 C 211.667969 159.632812 211.59375 158.683594 211.398438 158.042969 C 211.265625 157.609375 211.015625 157.398438 210.550781 157.472656 C 210.199219 157.527344 209.664062 157.679688 209.433594 157.945312 C 209.222656 158.1875 209.253906 158.695312 209.648438 158.753906 C 209.953125 158.796875 210.144531 158.757812 210.40625 158.621094 C 210.578125 158.527344 210.734375 158.449219 210.925781 158.449219 C 210.839844 158.449219 210.753906 158.449219 210.667969 158.449219 C 210.355469 158.238281 210.460938 158.246094 210.539062 158.433594 C 210.5625 158.480469 210.558594 158.453125 210.535156 158.390625 C 210.542969 158.457031 210.550781 158.519531 210.5625 158.585938 C 210.582031 158.714844 210.628906 158.875 210.585938 158.992188 C 210.5625 159.03125 210.539062 159.066406 210.523438 159.105469 C 210.699219 158.988281 210.730469 158.945312 210.609375 158.984375 C 210.542969 158.988281 210.464844 159.027344 210.398438 159.046875 C 210.320312 159.066406 210.242188 159.09375 210.164062 159.113281 C 210.09375 159.128906 209.921875 159.113281 210.058594 159.167969 C 210.183594 159.21875 210.105469 159.210938 210.105469 159.148438 C 210.105469 159.089844 210.066406 159.015625 210.050781 158.957031 C 210.019531 158.8125 209.980469 158.667969 209.941406 158.523438 C 209.894531 158.34375 209.820312 158.199219 209.738281 158.03125 C 209.683594 157.921875 209.535156 157.945312 209.472656 158.03125 " fill-opacity="1" fill-rule="nonzero"/><path fill="#000000" d="M 206.269531 158.878906 C 205.996094 159.273438 205.9375 159.765625 206.050781 160.230469 C 206.128906 160.554688 206.324219 160.832031 206.667969 160.910156 C 207.011719 160.984375 207.367188 160.835938 207.691406 160.730469 C 208.464844 160.480469 208.390625 159.53125 208.195312 158.890625 C 208.066406 158.457031 207.8125 158.246094 207.347656 158.320312 C 206.996094 158.375 206.460938 158.527344 206.230469 158.792969 C 206.019531 159.035156 206.050781 159.542969 206.445312 159.601562 C 206.75 159.644531 206.941406 159.605469 207.203125 159.46875 C 207.375 159.375 207.53125 159.296875 207.722656 159.296875 C 207.636719 159.296875 207.550781 159.296875 207.464844 159.296875 C 207.152344 159.085938 207.257812 159.09375 207.339844 159.28125 C 207.359375 159.328125 207.355469 159.300781 207.332031 159.238281 C 207.339844 159.304688 207.347656 159.367188 207.359375 159.433594 C 207.378906 159.5625 207.425781 159.722656 207.382812 159.839844 C 207.359375 159.878906 207.335938 159.914062 207.320312 159.953125 C 207.5 159.835938 207.527344 159.792969 207.40625 159.832031 C 207.339844 159.835938 207.261719 159.875 207.195312 159.894531 C 207.117188 159.917969 207.039062 159.941406 206.960938 159.960938 C 206.890625 159.976562 206.71875 159.960938 206.855469 160.015625 C 206.980469 160.066406 206.902344 160.058594 206.902344 159.996094 C 206.902344 159.9375 206.863281 159.863281 206.847656 159.804688 C 206.816406 159.660156 206.777344 159.515625 206.738281 159.371094 C 206.691406 159.191406 206.617188 159.046875 206.535156 158.878906 C 206.480469 158.769531 206.332031 158.792969 206.269531 158.878906 " fill-opacity="1" fill-rule="nonzero"/><path fill="#000000" d="M 203.066406 159.726562 C 202.792969 160.121094 202.734375 160.613281 202.847656 161.078125 C 202.925781 161.402344 203.121094 161.679688 203.464844 161.757812 C 203.808594 161.832031 204.164062 161.683594 204.488281 161.578125 C 205.261719 161.328125 205.1875 160.378906 204.992188 159.738281 C 204.863281 159.308594 204.609375 159.09375 204.144531 159.167969 C 203.792969 159.222656 203.257812 159.375 203.027344 159.640625 C 202.816406 159.882812 202.847656 160.390625 203.242188 160.449219 C 203.546875 160.492188 203.738281 160.453125 204 160.316406 C 204.171875 160.222656 204.328125 160.144531 204.519531 160.144531 C 204.433594 160.144531 204.347656 160.144531 204.261719 160.144531 C 203.949219 159.933594 204.054688 159.941406 204.136719 160.128906 C 204.15625 160.175781 204.152344 160.152344 204.128906 160.085938 C 204.136719 160.152344 204.144531 160.214844 204.15625 160.28125 C 204.175781 160.410156 204.222656 160.570312 204.183594 160.691406 C 204.15625 160.726562 204.132812 160.761719 204.117188 160.800781 C 204.296875 160.683594 204.324219 160.640625 204.203125 160.679688 C 204.136719 160.683594 204.058594 160.722656 203.992188 160.742188 C 203.914062 160.765625 203.835938 160.789062 203.757812 160.808594 C 203.6875 160.828125 203.515625 160.808594 203.652344 160.863281 C 203.777344 160.914062 203.703125 160.90625 203.699219 160.84375 C 203.699219 160.785156 203.660156 160.710938 203.644531 160.652344 C 203.613281 160.507812 203.574219 160.363281 203.535156 160.21875 C 203.488281 160.039062 203.414062 159.894531 203.332031 159.726562 C 203.277344 159.617188 203.128906 159.640625 203.066406 159.726562 " fill-opacity="1" fill-rule="nonzero"/><path fill="#000000" d="M 199.863281 160.574219 C 199.589844 160.96875 199.53125 161.460938 199.644531 161.925781 C 199.722656 162.25 199.917969 162.53125 200.261719 162.605469 C 200.605469 162.679688 200.960938 162.53125 201.285156 162.425781 C 202.058594 162.175781 201.984375 161.226562 201.789062 160.585938 C 201.660156 160.15625 201.40625 159.941406 200.941406 160.015625 C 200.589844 160.070312 200.054688 160.222656 199.824219 160.488281 C 199.613281 160.730469 199.644531 161.238281 200.039062 161.296875 C 200.34375 161.339844 200.535156 161.300781 200.796875 161.164062 C 200.96875 161.070312 201.125 160.996094 201.316406 160.996094 C 201.230469 160.996094 201.144531 160.996094 201.058594 160.996094 C 200.746094 160.78125 200.851562 160.789062 200.933594 160.976562 C 200.953125 161.023438 200.949219 161 200.925781 160.933594 C 200.933594 161 200.941406 161.0625 200.953125 161.128906 C 200.972656 161.257812 201.019531 161.417969 200.980469 161.539062 C 200.953125 161.574219 200.929688 161.609375 200.914062 161.648438 C 201.09375 161.53125 201.121094 161.488281 201.003906 161.527344 C 200.933594 161.53125 200.855469 161.570312 200.789062 161.589844 C 200.710938 161.613281 200.632812 161.636719 200.554688 161.65625 C 200.484375 161.675781 200.3125 161.65625 200.449219 161.710938 C 200.574219 161.761719 200.5 161.753906 200.496094 161.691406 C 200.496094 161.632812 200.457031 161.558594 200.441406 161.5 C 200.410156 161.355469 200.371094 161.210938 200.332031 161.066406 C 200.285156 160.886719 200.210938 160.742188 200.128906 160.574219 C 200.074219 160.464844 199.925781 160.488281 199.863281 160.574219 " fill-opacity="1" fill-rule="nonzero"/><path fill="#000000" d="M 196.449219 161.421875 C 196.175781 161.816406 196.117188 162.308594 196.226562 162.773438 C 196.308594 163.097656 196.5 163.378906 196.84375 163.453125 C 197.1875 163.527344 197.542969 163.378906 197.867188 163.273438 C 198.644531 163.023438 198.566406 162.074219 198.371094 161.4375 C 198.242188 161.003906 197.988281 160.789062 197.523438 160.863281 C 197.171875 160.917969 196.640625 161.070312 196.40625 161.335938 C 196.195312 161.578125 196.226562 162.085938 196.621094 162.144531 C 196.929688 162.1875 197.121094 162.148438 197.382812 162.011719 C 197.550781 161.921875 197.707031 161.84375 197.898438 161.84375 C 197.8125 161.84375 197.726562 161.84375 197.640625 161.84375 C 197.332031 161.628906 197.4375 161.636719 197.515625 161.824219 C 197.539062 161.871094 197.535156 161.847656 197.507812 161.78125 C 197.515625 161.847656 197.527344 161.910156 197.535156 161.976562 C 197.554688 162.105469 197.605469 162.265625 197.5625 162.386719 C 197.535156 162.421875 197.515625 162.457031 197.496094 162.496094 C 197.675781 162.378906 197.707031 162.335938 197.585938 162.375 C 197.519531 162.378906 197.4375 162.417969 197.375 162.4375 C 197.296875 162.460938 197.21875 162.484375 197.136719 162.503906 C 197.066406 162.523438 196.898438 162.503906 197.035156 162.558594 C 197.15625 162.609375 197.082031 162.601562 197.082031 162.539062 C 197.078125 162.480469 197.039062 162.40625 197.027344 162.347656 C 196.992188 162.203125 196.953125 162.0625 196.917969 161.914062 C 196.867188 161.734375 196.792969 161.589844 196.714844 161.421875 C 196.660156 161.3125 196.507812 161.335938 196.449219 161.421875 " fill-opacity="1" fill-rule="nonzero"/><path fill="#000000" d="M 193.015625 161.648438 C 192.882812 162.453125 192.96875 163.21875 193.0625 164.023438 C 193.097656 164.3125 193.082031 164.671875 193.265625 164.910156 C 193.632812 165.386719 194.34375 165.214844 194.816406 165.019531 C 195.894531 164.574219 195.324219 163.078125 195.25 162.210938 C 195.214844 161.828125 195.234375 161.242188 194.929688 160.957031 C 194.523438 160.574219 193.519531 160.933594 193.203125 161.277344 C 192.890625 161.617188 193.191406 162.234375 193.679688 162.085938 C 194.019531 161.980469 194.359375 161.90625 194.703125 161.804688 C 194.539062 161.761719 194.371094 161.71875 194.207031 161.675781 C 194.109375 161.585938 194.242188 161.925781 194.257812 161.992188 C 194.28125 162.105469 194.292969 162.222656 194.3125 162.339844 C 194.375 162.738281 194.449219 163.136719 194.496094 163.535156 C 194.511719 163.691406 194.503906 163.855469 194.527344 164.007812 C 194.535156 164.0625 194.386719 164.292969 194.566406 164.113281 C 194.445312 164.234375 194.167969 164.195312 194.027344 164.265625 C 194.027344 164.269531 194.082031 164.566406 194.042969 164.339844 C 193.882812 163.402344 193.730469 162.46875 193.296875 161.609375 C 193.242188 161.5 193.039062 161.519531 193.015625 161.648438 " fill-opacity="1" fill-rule="nonzero"/><path fill="#000000" d="M 190.042969 163.117188 C 189.769531 163.511719 189.710938 164.003906 189.824219 164.46875 C 189.902344 164.792969 190.09375 165.074219 190.4375 165.148438 C 190.785156 165.222656 191.136719 165.074219 191.460938 164.96875 C 192.238281 164.71875 192.160156 163.769531 191.96875 163.132812 C 191.835938 162.699219 191.582031 162.484375 191.117188 162.558594 C 190.765625 162.613281 190.234375 162.765625 190 163.03125 C 189.789062 163.273438 189.824219 163.78125 190.214844 163.839844 C 190.523438 163.882812 190.714844 163.847656 190.976562 163.707031 C 191.144531 163.617188 191.300781 163.539062 191.492188 163.539062 C 191.40625 163.539062 191.320312 163.539062 191.234375 163.539062 C 190.925781 163.324219 191.03125 163.332031 191.109375 163.519531 C 191.132812 163.566406 191.128906 163.542969 191.101562 163.476562 C 191.109375 163.546875 191.121094 163.605469 191.128906 163.671875 C 191.148438 163.800781 191.199219 163.960938 191.15625 164.082031 C 191.128906 164.117188 191.109375 164.152344 191.089844 164.191406 C 191.269531 164.074219 191.300781 164.03125 191.179688 164.070312 C 191.113281 164.074219 191.03125 164.113281 190.96875 164.132812 C 190.890625 164.15625 190.8125 164.179688 190.730469 164.199219 C 190.660156 164.21875 190.492188 164.199219 190.628906 164.253906 C 190.75 164.304688 190.675781 164.296875 190.675781 164.234375 C 190.675781 164.179688 190.632812 164.101562 190.621094 164.042969 C 190.585938 163.898438 190.550781 163.757812 190.511719 163.613281 C 190.460938 163.429688 190.390625 163.285156 190.308594 163.117188 C 190.253906 163.007812 190.101562 163.03125 190.042969 163.117188 " fill-opacity="1" fill-rule="nonzero"/><path fill="#000000" d="M 186.839844 163.964844 C 186.566406 164.359375 186.507812 164.855469 186.621094 165.316406 C 186.699219 165.640625 186.890625 165.921875 187.234375 165.996094 C 187.582031 166.070312 187.9375 165.921875 188.257812 165.816406 C 189.035156 165.566406 188.957031 164.617188 188.765625 163.980469 C 188.632812 163.546875 188.378906 163.335938 187.914062 163.40625 C 187.5625 163.460938 187.03125 163.613281 186.796875 163.878906 C 186.585938 164.121094 186.621094 164.628906 187.011719 164.6875 C 187.320312 164.730469 187.511719 164.695312 187.773438 164.554688 C 187.941406 164.464844 188.097656 164.386719 188.289062 164.386719 C 188.203125 164.386719 188.117188 164.386719 188.03125 164.386719 C 187.722656 164.171875 187.828125 164.179688 187.90625 164.371094 C 187.929688 164.414062 187.925781 164.390625 187.898438 164.324219 C 187.90625 164.394531 187.917969 164.453125 187.925781 164.523438 C 187.945312 164.648438 187.996094 164.808594 187.953125 164.929688 C 187.925781 164.964844 187.90625 165 187.886719 165.039062 C 188.066406 164.921875 188.097656 164.882812 187.976562 164.917969 C 187.910156 164.921875 187.828125 164.960938 187.765625 164.980469 C 187.6875 165.003906 187.609375 165.027344 187.527344 165.046875 C 187.457031 165.066406 187.289062 165.046875 187.425781 165.105469 C 187.546875 165.152344 187.472656 165.144531 187.472656 165.082031 C 187.472656 165.027344 187.429688 164.949219 187.417969 164.890625 C 187.382812 164.746094 187.347656 164.605469 187.308594 164.460938 C 187.257812 164.277344 187.1875 164.132812 187.105469 163.964844 C 187.050781 163.855469 186.898438 163.878906 186.839844 163.964844 " fill-opacity="1" fill-rule="nonzero"/><path fill="#000000" d="M 183.421875 164.816406 C 183.148438 165.207031 183.089844 165.703125 183.203125 166.164062 C 183.28125 166.488281 183.476562 166.769531 183.820312 166.84375 C 184.164062 166.917969 184.519531 166.769531 184.84375 166.664062 C 185.617188 166.414062 185.542969 165.464844 185.347656 164.828125 C 185.214844 164.394531 184.964844 164.183594 184.5 164.253906 C 184.148438 164.308594 183.613281 164.460938 183.382812 164.726562 C 183.171875 164.96875 183.203125 165.476562 183.597656 165.535156 C 183.902344 165.578125 184.09375 165.542969 184.355469 165.402344 C 184.527344 165.3125 184.683594 165.234375 184.875 165.234375 C 184.789062 165.234375 184.703125 165.234375 184.613281 165.234375 C 184.304688 165.023438 184.410156 165.027344 184.488281 165.21875 C 184.511719 165.261719 184.507812 165.238281 184.480469 165.171875 C 184.492188 165.242188 184.5 165.300781 184.511719 165.371094 C 184.53125 165.496094 184.578125 165.65625 184.535156 165.777344 C 184.511719 165.8125 184.488281 165.847656 184.46875 165.886719 C 184.648438 165.769531 184.679688 165.730469 184.558594 165.765625 C 184.492188 165.769531 184.414062 165.808594 184.347656 165.828125 C 184.269531 165.851562 184.191406 165.875 184.113281 165.894531 C 184.042969 165.914062 183.871094 165.894531 184.007812 165.953125 C 184.132812 166.003906 184.054688 165.992188 184.054688 165.929688 C 184.054688 165.875 184.015625 165.796875 184 165.742188 C 183.96875 165.59375 183.929688 165.453125 183.890625 165.308594 C 183.84375 165.125 183.769531 164.980469 183.6875 164.816406 C 183.632812 164.703125 183.484375 164.730469 183.421875 164.816406 " fill-opacity="1" fill-rule="nonzero"/><path fill="#000000" d="M 180.21875 165.664062 C 179.945312 166.054688 179.886719 166.550781 180 167.011719 C 180.078125 167.335938 180.273438 167.617188 180.617188 167.691406 C 180.960938 167.765625 181.316406 167.617188 181.640625 167.511719 C 182.414062 167.261719 182.339844 166.3125 182.144531 165.675781 C 182.011719 165.242188 181.761719 165.03125 181.296875 165.101562 C 180.945312 165.15625 180.410156 165.308594 180.179688 165.574219 C 179.96875 165.816406 180 166.324219 180.394531 166.382812 C 180.699219 166.425781 180.890625 166.390625 181.152344 166.25 C 181.324219 166.160156 181.480469 166.082031 181.671875 166.082031 C 181.585938 166.082031 181.5 166.082031 181.410156 166.082031 C 181.101562 165.871094 181.207031 165.875 181.285156 166.066406 C 181.308594 166.109375 181.304688 166.085938 181.28125 166.019531 C 181.289062 166.089844 181.296875 166.148438 181.308594 166.21875 C 181.328125 166.34375 181.375 166.503906 181.332031 166.625 C 181.308594 166.660156 181.285156 166.695312 181.269531 166.738281 C 181.445312 166.617188 181.476562 166.578125 181.355469 166.613281 C 181.289062 166.617188 181.210938 166.65625 181.144531 166.675781 C 181.066406 166.699219 180.988281 166.726562 180.910156 166.742188 C 180.839844 166.761719 180.667969 166.742188 180.804688 166.800781 C 180.929688 166.851562 180.851562 166.839844 180.851562 166.78125 C 180.851562 166.722656 180.8125 166.644531 180.796875 166.589844 C 180.765625 166.441406 180.726562 166.300781 180.6875 166.15625 C 180.640625 165.976562 180.566406 165.828125 180.484375 165.664062 C 180.429688 165.550781 180.28125 165.578125 180.21875 165.664062 " fill-opacity="1" fill-rule="nonzero"/><path fill="#000000" d="M 177.015625 166.511719 C 176.742188 166.90625 176.683594 167.398438 176.796875 167.859375 C 176.875 168.183594 177.070312 168.464844 177.414062 168.539062 C 177.757812 168.613281 178.113281 168.464844 178.4375 168.359375 C 179.210938 168.109375 179.136719 167.160156 178.941406 166.523438 C 178.808594 166.089844 178.558594 165.878906 178.09375 165.949219 C 177.742188 166.003906 177.207031 166.15625 176.976562 166.421875 C 176.765625 166.664062 176.796875 167.171875 177.191406 167.230469 C 177.496094 167.277344 177.6875 167.238281 177.949219 167.097656 C 178.121094 167.007812 178.277344 166.929688 178.46875 166.929688 C 178.382812 166.929688 178.296875 166.929688 178.210938 166.929688 C 177.898438 166.71875 178.003906 166.726562 178.082031 166.914062 C 178.105469 166.957031 178.101562 166.933594 178.078125 166.867188 C 178.085938 166.9375 178.09375 166.996094 178.105469 167.066406 C 178.125 167.191406 178.171875 167.351562 178.128906 167.472656 C 178.105469 167.507812 178.082031 167.542969 178.066406 167.585938 C 178.242188 167.464844 178.273438 167.425781 178.152344 167.460938 C 178.085938 167.464844 178.007812 167.503906 177.941406 167.523438 C 177.863281 167.546875 177.785156 167.574219 177.707031 167.589844 C 177.636719 167.609375 177.464844 167.589844 177.601562 167.648438 C 177.726562 167.699219 177.648438 167.6875 177.648438 167.628906 C 177.648438 167.570312 177.609375 167.492188 177.59375 167.4375 C 177.5625 167.289062 177.523438 167.148438 177.484375 167.003906 C 177.4375 166.824219 177.363281 166.675781 177.28125 166.511719 C 177.226562 166.398438 177.078125 166.425781 177.015625 166.511719 " fill-opacity="1" fill-rule="nonzero"/><path fill="#000000" d="M 173.8125 167.359375 C 173.539062 167.753906 173.480469 168.246094 173.59375 168.707031 C 173.671875 169.03125 173.867188 169.3125 174.210938 169.386719 C 174.554688 169.464844 174.910156 169.3125 175.234375 169.207031 C 176.007812 168.957031 175.933594 168.011719 175.738281 167.371094 C 175.605469 166.9375 175.355469 166.726562 174.890625 166.796875 C 174.539062 166.851562 174.003906 167.003906 173.773438 167.269531 C 173.5625 167.511719 173.59375 168.019531 173.988281 168.078125 C 174.292969 168.125 174.484375 168.085938 174.746094 167.945312 C 174.917969 167.855469 175.074219 167.777344 175.265625 167.777344 C 175.179688 167.777344 175.09375 167.777344 175.007812 167.777344 C 174.695312 167.566406 174.800781 167.574219 174.882812 167.761719 C 174.902344 167.804688 174.898438 167.78125 174.875 167.714844 C 174.882812 167.785156 174.890625 167.84375 174.902344 167.914062 C 174.921875 168.039062 174.96875 168.199219 174.925781 168.320312 C 174.902344 168.355469 174.878906 168.390625 174.863281 168.433594 C 175.042969 168.3125 175.070312 168.273438 174.949219 168.308594 C 174.882812 168.3125 174.804688 168.351562 174.738281 168.371094 C 174.660156 168.394531 174.582031 168.421875 174.503906 168.441406 C 174.433594 168.457031 174.261719 168.441406 174.398438 168.496094 C 174.523438 168.546875 174.445312 168.535156 174.445312 168.476562 C 174.445312 168.417969 174.40625 168.339844 174.390625 168.285156 C 174.359375 168.136719 174.320312 167.996094 174.28125 167.851562 C 174.234375 167.671875 174.160156 167.523438 174.078125 167.359375 C 174.023438 167.25 173.875 167.273438 173.8125 167.359375 " fill-opacity="1" fill-rule="nonzero"/><path fill="#000000" d="M 170.609375 168.207031 C 170.335938 168.601562 170.277344 169.09375 170.390625 169.554688 C 170.46875 169.878906 170.664062 170.160156 171.007812 170.234375 C 171.351562 170.3125 171.707031 170.160156 172.03125 170.058594 C 172.804688 169.804688 172.730469 168.859375 172.535156 168.21875 C 172.40625 167.785156 172.152344 167.574219 171.6875 167.644531 C 171.335938 167.699219 170.800781 167.851562 170.570312 168.117188 C 170.359375 168.359375 170.390625 168.871094 170.785156 168.925781 C 171.089844 168.972656 171.28125 168.933594 171.542969 168.792969 C 171.714844 168.703125 171.871094 168.625 172.0625 168.625 C 171.976562 168.625 171.890625 168.625 171.804688 168.625 C 171.492188 168.414062 171.597656 168.421875 171.679688 168.609375 C 171.699219 168.652344 171.695312 168.628906 171.671875 168.5625 C 171.679688 168.632812 171.6875 168.691406 171.699219 168.761719 C 171.71875 168.886719 171.765625 169.046875 171.722656 169.167969 C 171.699219 169.203125 171.675781 169.242188 171.660156 169.28125 C 171.839844 169.160156 171.867188 169.121094 171.746094 169.15625 C 171.679688 169.160156 171.601562 169.199219 171.535156 169.21875 C 171.457031 169.242188 171.378906 169.269531 171.300781 169.289062 C 171.230469 169.304688 171.058594 169.289062 171.195312 169.34375 C 171.320312 169.394531 171.242188 169.382812 171.242188 169.324219 C 171.242188 169.265625 171.203125 169.1875 171.1875 169.132812 C 171.15625 168.984375 171.117188 168.84375 171.078125 168.699219 C 171.03125 168.519531 170.957031 168.371094 170.875 168.207031 C 170.820312 168.097656 170.671875 168.121094 170.609375 168.207031 " fill-opacity="1" fill-rule="nonzero"/><path fill="#000000" d="M 167.40625 169.054688 C 167.132812 169.449219 167.074219 169.941406 167.1875 170.40625 C 167.265625 170.726562 167.460938 171.007812 167.804688 171.082031 C 168.148438 171.160156 168.503906 171.007812 168.828125 170.90625 C 169.601562 170.65625 169.527344 169.707031 169.332031 169.066406 C 169.203125 168.632812 168.949219 168.421875 168.484375 168.492188 C 168.132812 168.546875 167.597656 168.699219 167.367188 168.964844 C 167.15625 169.207031 167.1875 169.71875 167.582031 169.773438 C 167.886719 169.820312 168.078125 169.78125 168.339844 169.640625 C 168.511719 169.550781 168.667969 169.472656 168.859375 169.472656 C 168.773438 169.472656 168.6875 169.472656 168.601562 169.472656 C 168.289062 169.261719 168.394531 169.269531 168.476562 169.457031 C 168.496094 169.5 168.492188 169.476562 168.46875 169.410156 C 168.476562 169.480469 168.484375 169.539062 168.496094 169.609375 C 168.515625 169.734375 168.5625 169.894531 168.523438 170.015625 C 168.496094 170.050781 168.472656 170.089844 168.457031 170.128906 C 168.636719 170.007812 168.664062 169.96875 168.546875 170.003906 C 168.476562 170.007812 168.398438 170.046875 168.332031 170.066406 C 168.253906 170.089844 168.175781 170.117188 168.097656 170.136719 C 168.027344 170.152344 167.855469 170.136719 167.992188 170.191406 C 168.117188 170.242188 168.042969 170.230469 168.039062 170.171875 C 168.039062 170.113281 168 170.035156 167.984375 169.980469 C 167.953125 169.832031 167.914062 169.691406 167.875 169.546875 C 167.828125 169.367188 167.753906 169.21875 167.671875 169.054688 C 167.617188 168.945312 167.46875 168.96875 167.40625 169.054688 " fill-opacity="1" fill-rule="nonzero"/></svg>