<?xml version="1.0" standalone="no"?>
<!DOCTYPE svg PUBLIC "-//W3C//DTD SVG 20010904//EN"
 "http://www.w3.org/TR/2001/REC-SVG-20010904/DTD/svg10.dtd">
<svg version="1.0" xmlns="http://www.w3.org/2000/svg"
 width="50.000000pt" height="50.000000pt" viewBox="0 0 50.000000 50.000000"
 preserveAspectRatio="xMidYMid meet">

<g transform="translate(0.000000,50.000000) scale(0.100000,-0.100000)"
fill="#000000" stroke="none">
<path d="M340 361 l-65 -28 -63 19 c-35 11 -73 18 -85 16 -35 -5 -31 -32 8
-53 19 -11 35 -22 35 -26 0 -3 -18 -13 -40 -22 -37 -14 -41 -14 -64 4 -26 21
-51 25 -61 9 -3 -5 4 -32 16 -60 28 -65 48 -70 146 -37 l75 25 -6 -21 c-12
-45 -18 -127 -10 -127 26 0 55 37 89 115 37 83 41 88 94 115 31 16 65 35 76
44 20 16 20 16 -4 36 -31 27 -63 25 -141 -9z m127 -7 c2 -6 -26 -27 -62 -46
-65 -34 -67 -37 -105 -117 -61 -132 -70 -129 -40 12 4 20 6 37 4 37 -3 0 -31
-11 -63 -25 -33 -13 -77 -27 -99 -31 -40 -6 -40 -6 -60 37 -10 24 -18 46 -16
48 2 2 17 -7 34 -19 l31 -22 157 71 c151 68 210 83 219 55z m-252 -24 l30 -12
-24 -9 c-18 -7 -32 -4 -57 12 -19 11 -34 23 -34 26 0 7 47 -2 85 -17z"/>
</g>
</svg>
