<svg xmlns="http://www.w3.org/2000/svg" xmlns:xlink="http://www.w3.org/1999/xlink" width="500" zoomAndPan="magnify" viewBox="0 0 375 374.999991" height="500" preserveAspectRatio="xMidYMid meet" version="1.0"><path fill="#ffda44" d="M 252.71875 11.664062 C 232.40625 4.125 210.433594 0 187.5 0 C 164.566406 0 142.59375 4.125 122.28125 11.664062 L 105.976562 187.5 L 122.28125 363.335938 C 142.59375 370.875 164.566406 375 187.5 375 C 210.433594 375 232.40625 370.875 252.71875 363.335938 L 269.019531 187.5 Z M 252.71875 11.664062 " fill-opacity="1" fill-rule="nonzero"/><path fill="#d80027" d="M 375 187.5 C 375 106.882812 324.117188 38.15625 252.71875 11.664062 L 252.71875 363.339844 C 324.117188 336.84375 375 268.117188 375 187.5 Z M 375 187.5 " fill-opacity="1" fill-rule="nonzero"/><path fill="#000000" d="M 0 187.5 C 0 268.117188 50.882812 336.84375 122.28125 363.339844 L 122.28125 11.664062 C 50.882812 38.15625 0 106.882812 0 187.5 Z M 0 187.5 " fill-opacity="1" fill-rule="nonzero"/></svg>