<svg xmlns="http://www.w3.org/2000/svg" xmlns:xlink="http://www.w3.org/1999/xlink" width="500" zoomAndPan="magnify" viewBox="0 0 375 374.999991" height="500" preserveAspectRatio="xMidYMid meet" version="1.0"><path fill="#e9e9e9" d="M 187.480469 -0.0195312 C 140.132812 -0.0195312 96.890625 17.535156 63.890625 46.484375 L 63.890625 328.472656 C 96.890625 357.421875 140.132812 374.980469 187.480469 374.980469 C 234.828125 374.980469 278.070312 357.421875 311.066406 328.472656 L 311.066406 46.484375 C 278.070312 17.535156 234.828125 -0.0195312 187.480469 -0.0195312 " fill-opacity="1" fill-rule="nonzero"/><path fill="#db2524" d="M 235.398438 245.40625 L 293.789062 189.476562 L 276.074219 189.476562 L 287.351562 158.714844 L 254.785156 169.6875 L 254.785156 154.632812 L 225.074219 176.269531 L 235.398438 104.179688 L 206.277344 112.972656 L 187.480469 77.613281 L 168.679688 112.972656 L 139.558594 104.179688 L 149.886719 176.269531 L 120.171875 154.632812 L 120.171875 169.6875 L 87.609375 158.714844 L 98.886719 189.476562 L 81.167969 189.476562 L 139.558594 245.40625 L 127.878906 266.242188 L 185.09375 251.441406 L 183.519531 292.386719 L 191.4375 292.386719 L 189.867188 251.441406 L 247.078125 266.242188 L 235.398438 245.40625 " fill-opacity="1" fill-rule="nonzero"/><path fill="#db2524" d="M 374.980469 187.480469 C 374.980469 131.273438 350.242188 80.851562 311.066406 46.484375 L 311.066406 328.472656 C 350.242188 294.109375 374.980469 243.6875 374.980469 187.480469 " fill-opacity="1" fill-rule="nonzero"/><path fill="#db2524" d="M -0.0195312 187.480469 C -0.0195312 243.6875 24.71875 294.109375 63.890625 328.472656 L 63.890625 46.484375 C 24.71875 80.851562 -0.0195312 131.273438 -0.0195312 187.480469 " fill-opacity="1" fill-rule="nonzero"/></svg>