<svg xmlns="http://www.w3.org/2000/svg" xmlns:xlink="http://www.w3.org/1999/xlink" width="500" zoomAndPan="magnify" viewBox="0 0 375 374.999991" height="500" preserveAspectRatio="xMidYMid meet" version="1.0"><defs><clipPath id="83d6623ce5"><path d="M 8.441406 25 L 139 25 L 139 347 L 8.441406 347 Z M 8.441406 25 " clip-rule="nonzero"/></clipPath><clipPath id="b03dfb7ea7"><path d="M 74 5.980469 L 369 5.980469 L 369 366 L 74 366 Z M 74 5.980469 " clip-rule="nonzero"/></clipPath></defs><g clip-path="url(#83d6623ce5)"><path fill="#f2f2f2" d="M 74.429688 293.390625 L 138.332031 257.511719 L 74.429688 221.636719 L 138.332031 185.761719 L 74.429688 149.882812 L 138.332031 114.007812 L 74.429688 78.132812 L 138.332031 42.253906 L 107.625 25.0625 C 48.691406 54.679688 8.144531 115.5 8.144531 185.960938 C 8.144531 256.320312 48.59375 317.042969 107.324219 346.757812 L 138.332031 329.363281 Z M 74.429688 293.390625 " fill-opacity="1" fill-rule="nonzero"/></g><g clip-path="url(#b03dfb7ea7)"><path fill="#df0000" d="M 188.320312 5.683594 C 159.300781 5.683594 131.972656 12.738281 107.625 24.964844 L 138.332031 42.15625 L 74.429688 78.03125 L 138.332031 113.910156 L 74.429688 149.785156 L 138.332031 185.660156 L 74.429688 221.539062 L 138.332031 257.414062 L 74.429688 293.289062 L 138.332031 329.167969 L 107.324219 346.558594 C 131.675781 358.878906 159.101562 365.9375 188.320312 365.9375 C 287.800781 365.9375 368.496094 285.238281 368.496094 185.761719 C 368.496094 86.28125 287.800781 5.683594 188.320312 5.683594 Z M 188.320312 5.683594 " fill-opacity="1" fill-rule="nonzero"/></g></svg>