<svg xmlns="http://www.w3.org/2000/svg" xmlns:xlink="http://www.w3.org/1999/xlink" width="500" zoomAndPan="magnify" viewBox="0 0 375 374.999991" height="500" preserveAspectRatio="xMidYMid meet" version="1.0"><defs><clipPath id="e59466ec1d"><path d="M 0 9.375 L 366 9.375 L 366 375 L 0 375 Z M 0 9.375 " clip-rule="nonzero"/></clipPath></defs><g clip-path="url(#e59466ec1d)"><path fill="#c62828" d="M 366 192.375 C 366 213.238281 362.523438 233.183594 356.027344 251.851562 L 201.300781 374.460938 C 195.261719 375.101562 189.222656 375.375 183 375.375 C 81.890625 375.375 0 293.484375 0 192.375 C 0 91.265625 81.890625 9.375 183 9.375 C 189.039062 9.375 195.078125 9.648438 200.933594 10.199219 L 356.027344 132.898438 C 362.523438 151.566406 366 171.511719 366 192.375 Z M 366 192.375 " fill-opacity="1" fill-rule="nonzero"/></g><path fill="#e0e1e2" d="M 356.027344 132.898438 L 200.933594 132.898438 L 200.933594 10.199219 C 273.308594 17.335938 333.242188 66.378906 356.027344 132.898438 Z M 356.027344 132.898438 " fill-opacity="1" fill-rule="nonzero"/><path fill="#2e7d32" d="M 356.027344 251.851562 C 333.335938 318.1875 273.492188 367.324219 201.300781 374.460938 L 201.300781 251.851562 Z M 356.027344 251.851562 " fill-opacity="1" fill-rule="nonzero"/><path fill="#e0e1e2" d="M 143.691406 142.78125 L 142.839844 143.09375 C 137.714844 138.902344 119.40625 121.683594 117.777344 120.054688 C 118.089844 118.734375 118.472656 117.492188 118.472656 115.945312 L 118.472656 113.382812 C 119.792969 111.671875 121.035156 110.125 122.199219 108.652344 L 122.820312 108.652344 L 122.820312 109.109375 C 122.820312 110.582031 124.832031 111.828125 127.394531 111.828125 C 129.410156 111.828125 131.121094 111.050781 131.742188 109.96875 L 134.148438 109.96875 L 134.148438 111.597656 C 134.148438 112.449219 134.925781 113.152344 135.859375 113.152344 L 152.457031 113.152344 C 153.390625 113.152344 154.167969 112.457031 154.167969 111.597656 L 154.167969 103.765625 C 154.167969 102.914062 153.390625 102.210938 152.457031 102.210938 L 135.859375 102.210938 C 134.925781 102.210938 134.148438 102.90625 134.148438 103.765625 L 134.148438 105.394531 L 131.898438 105.394531 C 131.511719 104.152344 129.730469 103.144531 127.394531 103.144531 C 127.238281 103.144531 127.085938 103.21875 126.929688 103.21875 C 137.945312 84.210938 145.238281 68.070312 143.226562 67.140625 C 141.210938 66.207031 130.652344 80.875 119.644531 99.878906 L 120.339844 100.1875 C 119.71875 101.039062 119.179688 101.898438 118.484375 102.824219 L 118.410156 91.734375 C 116.160156 91.734375 114.613281 90.335938 114.613281 88.945312 L 114.074219 88.945312 L 114.074219 86.226562 L 113.535156 86.226562 L 113.535156 80.789062 L 112.992188 80.789062 L 112.992188 77.148438 L 113.148438 77.148438 L 113.148438 75.136719 C 113.304688 75.136719 113.378906 74.980469 113.535156 74.980469 L 113.605469 74.90625 C 114.457031 74.679688 115.234375 74.367188 115.773438 73.972656 C 115.773438 73.972656 115.773438 73.902344 115.703125 73.820312 C 116.242188 73.433594 116.707031 72.96875 116.945312 72.417969 C 117.101562 72.417969 117.257812 72.574219 117.414062 72.574219 C 118.265625 72.574219 118.96875 71.953125 118.96875 71.175781 C 118.96875 70.480469 118.273438 69.855469 117.414062 69.855469 C 117.257812 69.855469 117.183594 69.929688 117.101562 69.929688 C 116.871094 69.234375 116.40625 68.613281 115.703125 68.0625 L 115.773438 67.988281 C 115.234375 67.605469 114.457031 67.292969 113.605469 66.984375 L 113.535156 66.984375 C 113.222656 66.910156 112.910156 66.828125 112.601562 66.753906 C 112.601562 66.679688 112.601562 66.679688 112.601562 66.597656 C 112.601562 65.902344 111.90625 65.28125 111.042969 65.28125 C 110.195312 65.28125 109.488281 65.902344 109.488281 66.597656 C 109.488281 66.671875 109.488281 66.671875 109.488281 66.753906 C 109.179688 66.828125 108.867188 66.910156 108.554688 66.984375 L 108.480469 66.984375 C 107.632812 67.292969 106.855469 67.605469 106.3125 67.988281 L 106.386719 68.0625 C 105.691406 68.601562 105.226562 69.226562 104.988281 69.929688 C 104.914062 69.929688 104.832031 69.855469 104.675781 69.855469 C 103.824219 69.855469 103.121094 70.480469 103.121094 71.175781 C 103.121094 71.953125 103.816406 72.574219 104.675781 72.574219 C 104.832031 72.574219 104.988281 72.417969 105.144531 72.417969 C 105.371094 72.957031 105.839844 73.425781 106.386719 73.820312 C 106.3125 73.890625 106.3125 73.972656 106.3125 73.972656 C 106.699219 74.441406 107.476562 74.824219 108.410156 75.0625 L 108.410156 77.160156 L 108.566406 77.160156 L 108.566406 80.800781 L 108.023438 80.800781 L 108.023438 86.234375 L 107.484375 86.234375 L 107.484375 89.027344 L 106.945312 89.027344 C 106.945312 90.34375 105.390625 91.742188 103.148438 91.742188 C 103.148438 91.742188 103.148438 102.066406 103.148438 103.070312 C 102.371094 101.980469 101.746094 101.132812 101.136719 100.199219 L 101.832031 99.886719 C 90.8125 80.882812 80.179688 66.214844 78.242188 67.148438 C 76.230469 68.082031 83.367188 83.902344 94.226562 102.675781 L 94.152344 102.675781 C 91.902344 102.675781 90.046875 103.683594 89.734375 104.929688 L 87.253906 104.929688 L 87.253906 103.765625 C 87.253906 102.914062 86.558594 102.210938 85.625 102.210938 L 68.945312 102.210938 C 68.09375 102.210938 67.316406 102.90625 67.316406 103.765625 L 67.316406 111.597656 C 67.316406 112.449219 68.09375 113.15625 68.945312 113.15625 L 85.625 113.15625 C 86.558594 113.15625 87.253906 112.457031 87.253906 111.597656 L 87.253906 109.503906 L 89.890625 109.503906 C 90.511719 110.59375 92.140625 111.359375 94.152344 111.359375 C 96.25 111.359375 97.878906 110.582031 98.5 109.503906 C 98.964844 109.886719 99.589844 110.199219 100.285156 110.199219 C 100.355469 110.199219 100.355469 110.199219 100.355469 110.125 C 101.136719 111.132812 101.984375 112.136719 102.835938 113.15625 C 102.679688 114.710938 102.453125 115.632812 102.058594 115.945312 L 99.550781 115.945312 C 99.480469 116.019531 99.480469 116.101562 99.480469 116.171875 C 95.597656 116.402344 87.765625 116.558594 81.097656 117.179688 L 81.097656 116.796875 L 78.066406 117.261719 C 77.996094 117.335938 77.996094 117.417969 77.996094 117.492188 C 73.417969 118.03125 69.851562 118.964844 69.851562 120.4375 C 69.851562 122.148438 73.335938 123.777344 77.996094 125.25 C 77.996094 125.324219 77.996094 125.40625 78.066406 125.480469 L 81.097656 126.414062 L 81.097656 126.101562 C 85.441406 127.191406 90.402344 128.195312 94.75 128.820312 C 88.234375 134.949219 82.796875 139.605469 78.609375 143.09375 L 77.675781 142.78125 C 71.003906 150.148438 63.867188 153.332031 66.429688 154.648438 C 67.207031 155.117188 68.679688 154.960938 70.382812 154.578125 C 70.691406 154.503906 71.003906 154.347656 71.316406 154.265625 C 75.421875 153.101562 81.015625 150.15625 86.367188 145.113281 L 86.136719 145.042969 C 91.417969 140.851562 97.308594 135.5 103.359375 129.605469 C 108.328125 129.53125 112.125 128.445312 114.605469 126.191406 C 114.988281 126.578125 115.300781 126.886719 115.691406 127.28125 C 122.601562 134.191406 129.34375 140.3125 135.246094 145.050781 L 135.015625 145.125 C 140.371094 150.164062 146.035156 153.113281 150.070312 154.273438 C 150.378906 154.347656 150.765625 154.503906 151.003906 154.585938 C 152.785156 154.96875 154.261719 155.125 155.039062 154.660156 C 157.582031 153.332031 150.363281 150.15625 143.691406 142.78125 Z M 126.085938 102.90625 L 126.78125 103.21875 C 126.472656 103.21875 126.085938 103.289062 125.777344 103.289062 C 125.847656 103.144531 126.003906 103.0625 126.085938 102.90625 Z M 124.613281 108.414062 C 124.769531 108.339844 124.84375 108.257812 124.84375 108.101562 L 124.84375 106.390625 C 124.84375 106.238281 124.769531 106.238281 124.6875 106.164062 C 124.84375 105.074219 125.929688 104.152344 127.40625 104.152344 C 128.566406 104.152344 129.34375 104.773438 129.730469 105.550781 C 129.574219 105.625 129.417969 105.863281 129.417969 106.246094 L 129.417969 109.191406 C 129.417969 109.421875 129.574219 109.503906 129.644531 109.660156 C 129.179688 110.28125 128.402344 110.820312 127.394531 110.820312 C 125.839844 110.820312 124.605469 109.816406 124.605469 108.652344 L 124.605469 108.414062 Z M 96.367188 109.035156 L 96.441406 109.035156 C 95.972656 109.730469 95.195312 110.355469 94.117188 110.355469 C 93.109375 110.355469 92.332031 109.816406 91.867188 109.109375 C 91.9375 109.035156 92.09375 108.953125 92.09375 108.726562 L 92.09375 105.78125 C 92.09375 105.394531 91.9375 105.238281 91.785156 105.085938 C 92.167969 104.304688 92.945312 103.683594 94.109375 103.683594 C 95.425781 103.683594 96.433594 104.460938 96.667969 105.394531 L 96.359375 105.394531 C 96.285156 105.394531 96.203125 105.707031 96.203125 106.089844 L 96.203125 108.414062 C 96.210938 108.808594 96.292969 109.035156 96.367188 109.035156 Z M 96.367188 109.035156 " fill-opacity="1" fill-rule="nonzero"/></svg>