<svg xmlns="http://www.w3.org/2000/svg" xmlns:xlink="http://www.w3.org/1999/xlink" width="500" zoomAndPan="magnify" viewBox="0 0 375 374.999991" height="500" preserveAspectRatio="xMidYMid meet" version="1.0"><defs><clipPath id="789de8f2d3"><path d="M 104 126 L 367.5 126 L 367.5 249 L 104 249 Z M 104 126 " clip-rule="nonzero"/></clipPath><clipPath id="36c2b56d2c"><path d="M 104 248 L 358 248 L 358 371.105469 L 104 371.105469 Z M 104 248 " clip-rule="nonzero"/></clipPath><clipPath id="e0fb4f80d0"><path d="M 104 3.605469 L 358 3.605469 L 358 127 L 104 127 Z M 104 3.605469 " clip-rule="nonzero"/></clipPath></defs><g clip-path="url(#789de8f2d3)"><path fill="#f7f7f7" d="M 367.5 187.355469 C 367.5 208.839844 363.816406 229.429688 357.0625 248.605469 L 104.933594 248.605469 L 104.933594 126.105469 L 357.0625 126.105469 C 363.816406 145.277344 367.5 165.867188 367.5 187.355469 Z M 367.5 187.355469 " fill-opacity="1" fill-rule="nonzero"/></g><g clip-path="url(#36c2b56d2c)"><path fill="#000000" d="M 357.0625 248.605469 C 352.152344 262.535156 345.585938 275.710938 337.605469 287.894531 C 304.785156 338 248.164062 371.105469 183.75 371.105469 C 155.558594 371.105469 128.828125 364.730469 104.933594 353.394531 L 104.933594 248.605469 Z M 357.0625 248.605469 " fill-opacity="1" fill-rule="nonzero"/></g><g clip-path="url(#e0fb4f80d0)"><path fill="#006f2e" d="M 357.0625 126.105469 L 104.933594 126.105469 L 104.933594 21.3125 C 128.828125 9.980469 155.558594 3.605469 183.75 3.605469 C 248.117188 3.605469 304.785156 36.707031 337.605469 86.8125 C 345.539062 98.996094 352.105469 112.171875 357.0625 126.105469 Z M 357.0625 126.105469 " fill-opacity="1" fill-rule="nonzero"/></g><path fill="#f70000" d="M 104.933594 21.3125 L 104.933594 353.394531 C 86.042969 344.421875 68.898438 332.285156 54.214844 317.695312 C 45.148438 308.671875 36.976562 298.664062 29.894531 287.894531 C 11.003906 258.992188 0 224.472656 0 187.355469 C 0 150.234375 11.003906 115.714844 29.894531 86.8125 C 36.929688 76.046875 45.097656 66.035156 54.214844 56.96875 C 68.898438 42.421875 86.042969 30.285156 104.933594 21.3125 Z M 104.933594 21.3125 " fill-opacity="1" fill-rule="nonzero"/></svg>