<svg xmlns="http://www.w3.org/2000/svg" xmlns:xlink="http://www.w3.org/1999/xlink" width="500" zoomAndPan="magnify" viewBox="0 0 375 374.999991" height="500" preserveAspectRatio="xMidYMid meet" version="1.0"><defs><clipPath id="1b8ac5827a"><path d="M 123 5.269531 L 247 5.269531 L 247 375 L 123 375 Z M 123 5.269531 " clip-rule="nonzero"/></clipPath><clipPath id="08ae2fad6e"><path d="M 246 15 L 369.75 15 L 369.75 365 L 246 365 Z M 246 15 " clip-rule="nonzero"/></clipPath></defs><g clip-path="url(#1b8ac5827a)"><path fill="#ededed" d="M 246.515625 15.789062 L 246.515625 364.5 C 227.25 371.328125 206.519531 375.019531 184.875 375.019531 C 163.230469 375.019531 142.5 371.328125 123.234375 364.5 L 123.234375 15.789062 C 142.550781 8.960938 163.28125 5.269531 184.875 5.269531 C 206.46875 5.269531 227.25 8.960938 246.515625 15.789062 Z M 246.515625 15.789062 " fill-opacity="1" fill-rule="nonzero"/></g><g clip-path="url(#08ae2fad6e)"><path fill="#f4263f" d="M 369.75 190.144531 C 369.75 202.785156 368.484375 215.175781 366.058594 227.109375 C 364.339844 235.554688 362.0625 243.796875 359.230469 251.734375 C 340.671875 304.277344 299.054688 345.894531 246.515625 364.453125 L 246.515625 15.789062 C 299.054688 34.347656 340.671875 76.015625 359.230469 128.503906 C 362.0625 136.492188 364.339844 144.734375 366.058594 153.128906 C 368.484375 165.113281 369.75 177.503906 369.75 190.144531 Z M 369.75 190.144531 " fill-opacity="1" fill-rule="nonzero"/></g><path fill="#001aa0" d="M 123.234375 15.789062 L 123.234375 364.5 C 70.742188 345.945312 29.078125 304.328125 10.519531 251.785156 C 7.6875 243.796875 5.410156 235.554688 3.691406 227.160156 C 1.265625 215.175781 0 202.835938 0 190.144531 C 0 177.503906 1.265625 165.113281 3.691406 153.179688 C 5.410156 144.734375 7.6875 136.492188 10.519531 128.554688 C 29.078125 76.015625 70.742188 34.347656 123.234375 15.789062 Z M 123.234375 15.789062 " fill-opacity="1" fill-rule="nonzero"/></svg>