<svg xmlns="http://www.w3.org/2000/svg" xmlns:xlink="http://www.w3.org/1999/xlink" width="500" zoomAndPan="magnify" viewBox="0 0 375 374.999991" height="500" preserveAspectRatio="xMidYMid meet" version="1.0"><defs><clipPath id="3c8a174d1e"><path d="M 4.921875 9.84375 L 370.171875 9.84375 L 370.171875 375 L 4.921875 375 Z M 4.921875 9.84375 " clip-rule="nonzero"/></clipPath><clipPath id="5564076cee"><path d="M 4.921875 192.46875 C 4.921875 186.488281 5.214844 180.519531 5.800781 174.566406 C 6.386719 168.617188 7.265625 162.707031 8.429688 156.839844 C 9.597656 150.972656 11.050781 145.179688 12.785156 139.453125 C 14.523438 133.730469 16.535156 128.105469 18.824219 122.582031 C 21.113281 117.054688 23.667969 111.65625 26.484375 106.378906 C 29.304688 101.105469 32.375 95.980469 35.699219 91.007812 C 39.023438 86.035156 42.582031 81.234375 46.375 76.613281 C 50.171875 71.988281 54.183594 67.5625 58.410156 63.332031 C 62.640625 59.101562 67.066406 55.089844 71.691406 51.296875 C 76.3125 47.503906 81.113281 43.945312 86.085938 40.621094 C 91.058594 37.296875 96.183594 34.226562 101.457031 31.40625 C 106.734375 28.585938 112.132812 26.035156 117.660156 23.746094 C 123.183594 21.457031 128.808594 19.441406 134.535156 17.707031 C 140.257812 15.972656 146.050781 14.519531 151.917969 13.351562 C 157.785156 12.183594 163.695312 11.308594 169.644531 10.722656 C 175.597656 10.136719 181.566406 9.84375 187.546875 9.84375 C 193.527344 9.84375 199.496094 10.136719 205.445312 10.722656 C 211.398438 11.308594 217.308594 12.183594 223.175781 13.351562 C 229.042969 14.519531 234.835938 15.972656 240.558594 17.707031 C 246.285156 19.441406 251.910156 21.457031 257.433594 23.746094 C 262.960938 26.035156 268.359375 28.585938 273.636719 31.40625 C 278.910156 34.226562 284.035156 37.296875 289.007812 40.621094 C 293.980469 43.945312 298.777344 47.503906 303.402344 51.296875 C 308.027344 55.089844 312.453125 59.101562 316.683594 63.332031 C 320.910156 67.5625 324.921875 71.988281 328.71875 76.613281 C 332.511719 81.234375 336.070312 86.035156 339.394531 91.007812 C 342.714844 95.980469 345.789062 101.105469 348.609375 106.378906 C 351.425781 111.65625 353.980469 117.054688 356.269531 122.582031 C 358.558594 128.105469 360.570312 133.730469 362.308594 139.453125 C 364.042969 145.179688 365.496094 150.972656 366.664062 156.839844 C 367.828125 162.707031 368.707031 168.617188 369.292969 174.566406 C 369.878906 180.519531 370.171875 186.488281 370.171875 192.46875 C 370.171875 198.449219 369.878906 204.417969 369.292969 210.367188 C 368.707031 216.320312 367.828125 222.230469 366.664062 228.097656 C 365.496094 233.960938 364.042969 239.757812 362.308594 245.480469 C 360.570312 251.207031 358.558594 256.828125 356.269531 262.355469 C 353.980469 267.882812 351.425781 273.28125 348.609375 278.558594 C 345.789062 283.832031 342.714844 288.957031 339.394531 293.929688 C 336.070312 298.902344 332.511719 303.699219 328.71875 308.324219 C 324.921875 312.949219 320.910156 317.375 316.683594 321.605469 C 312.453125 325.832031 308.027344 329.84375 303.402344 333.640625 C 298.777344 337.433594 293.980469 340.992188 289.007812 344.316406 C 284.035156 347.636719 278.910156 350.710938 273.636719 353.527344 C 268.359375 356.347656 262.960938 358.902344 257.433594 361.191406 C 251.910156 363.480469 246.285156 365.492188 240.558594 367.230469 C 234.835938 368.964844 229.042969 370.417969 223.175781 371.585938 C 217.308594 372.75 211.398438 373.628906 205.445312 374.214844 C 199.496094 374.800781 193.527344 375.09375 187.546875 375.09375 C 181.566406 375.09375 175.597656 374.800781 169.644531 374.214844 C 163.695312 373.628906 157.785156 372.75 151.917969 371.585938 C 146.050781 370.417969 140.257812 368.964844 134.535156 367.230469 C 128.808594 365.492188 123.183594 363.480469 117.660156 361.191406 C 112.132812 358.902344 106.734375 356.347656 101.457031 353.527344 C 96.183594 350.710938 91.058594 347.636719 86.085938 344.316406 C 81.113281 340.992188 76.3125 337.433594 71.691406 333.640625 C 67.066406 329.84375 62.640625 325.832031 58.410156 321.605469 C 54.183594 317.375 50.171875 312.949219 46.375 308.324219 C 42.582031 303.699219 39.023438 298.902344 35.699219 293.929688 C 32.375 288.957031 29.304688 283.832031 26.484375 278.558594 C 23.667969 273.28125 21.113281 267.882812 18.824219 262.355469 C 16.535156 256.828125 14.523438 251.203125 12.785156 245.480469 C 11.050781 239.757812 9.597656 233.960938 8.429688 228.097656 C 7.265625 222.230469 6.386719 216.320312 5.800781 210.367188 C 5.214844 204.417969 4.921875 198.449219 4.921875 192.46875 Z M 4.921875 192.46875 " clip-rule="nonzero"/></clipPath><clipPath id="92922e914d"><path d="M 4.921875 9.84375 L 370.171875 9.84375 L 370.171875 132 L 4.921875 132 Z M 4.921875 9.84375 " clip-rule="nonzero"/></clipPath><clipPath id="1df1ac7493"><path d="M 4.921875 192.46875 C 4.921875 186.488281 5.214844 180.519531 5.800781 174.566406 C 6.386719 168.617188 7.265625 162.707031 8.429688 156.839844 C 9.597656 150.972656 11.050781 145.179688 12.785156 139.453125 C 14.523438 133.730469 16.535156 128.105469 18.824219 122.582031 C 21.113281 117.054688 23.667969 111.65625 26.484375 106.378906 C 29.304688 101.105469 32.375 95.980469 35.699219 91.007812 C 39.023438 86.035156 42.582031 81.234375 46.375 76.613281 C 50.171875 71.988281 54.183594 67.5625 58.410156 63.332031 C 62.640625 59.101562 67.066406 55.089844 71.691406 51.296875 C 76.3125 47.503906 81.113281 43.945312 86.085938 40.621094 C 91.058594 37.296875 96.183594 34.226562 101.457031 31.40625 C 106.734375 28.585938 112.132812 26.035156 117.660156 23.746094 C 123.183594 21.457031 128.808594 19.441406 134.535156 17.707031 C 140.257812 15.972656 146.050781 14.519531 151.917969 13.351562 C 157.785156 12.183594 163.695312 11.308594 169.644531 10.722656 C 175.597656 10.136719 181.566406 9.84375 187.546875 9.84375 C 193.527344 9.84375 199.496094 10.136719 205.445312 10.722656 C 211.398438 11.308594 217.308594 12.183594 223.175781 13.351562 C 229.042969 14.519531 234.835938 15.972656 240.558594 17.707031 C 246.285156 19.441406 251.910156 21.457031 257.433594 23.746094 C 262.960938 26.035156 268.359375 28.585938 273.636719 31.40625 C 278.910156 34.226562 284.035156 37.296875 289.007812 40.621094 C 293.980469 43.945312 298.777344 47.503906 303.402344 51.296875 C 308.027344 55.089844 312.453125 59.101562 316.683594 63.332031 C 320.910156 67.5625 324.921875 71.988281 328.71875 76.613281 C 332.511719 81.234375 336.070312 86.035156 339.394531 91.007812 C 342.714844 95.980469 345.789062 101.105469 348.609375 106.378906 C 351.425781 111.65625 353.980469 117.054688 356.269531 122.582031 C 358.558594 128.105469 360.570312 133.730469 362.308594 139.453125 C 364.042969 145.179688 365.496094 150.972656 366.664062 156.839844 C 367.828125 162.707031 368.707031 168.617188 369.292969 174.566406 C 369.878906 180.519531 370.171875 186.488281 370.171875 192.46875 C 370.171875 198.449219 369.878906 204.417969 369.292969 210.367188 C 368.707031 216.320312 367.828125 222.230469 366.664062 228.097656 C 365.496094 233.960938 364.042969 239.757812 362.308594 245.480469 C 360.570312 251.207031 358.558594 256.828125 356.269531 262.355469 C 353.980469 267.882812 351.425781 273.28125 348.609375 278.558594 C 345.789062 283.832031 342.714844 288.957031 339.394531 293.929688 C 336.070312 298.902344 332.511719 303.699219 328.71875 308.324219 C 324.921875 312.949219 320.910156 317.375 316.683594 321.605469 C 312.453125 325.832031 308.027344 329.84375 303.402344 333.640625 C 298.777344 337.433594 293.980469 340.992188 289.007812 344.316406 C 284.035156 347.636719 278.910156 350.710938 273.636719 353.527344 C 268.359375 356.347656 262.960938 358.902344 257.433594 361.191406 C 251.910156 363.480469 246.285156 365.492188 240.558594 367.230469 C 234.835938 368.964844 229.042969 370.417969 223.175781 371.585938 C 217.308594 372.75 211.398438 373.628906 205.445312 374.214844 C 199.496094 374.800781 193.527344 375.09375 187.546875 375.09375 C 181.566406 375.09375 175.597656 374.800781 169.644531 374.214844 C 163.695312 373.628906 157.785156 372.75 151.917969 371.585938 C 146.050781 370.417969 140.257812 368.964844 134.535156 367.230469 C 128.808594 365.492188 123.183594 363.480469 117.660156 361.191406 C 112.132812 358.902344 106.734375 356.347656 101.457031 353.527344 C 96.183594 350.710938 91.058594 347.636719 86.085938 344.316406 C 81.113281 340.992188 76.3125 337.433594 71.691406 333.640625 C 67.066406 329.84375 62.640625 325.832031 58.410156 321.605469 C 54.183594 317.375 50.171875 312.949219 46.375 308.324219 C 42.582031 303.699219 39.023438 298.902344 35.699219 293.929688 C 32.375 288.957031 29.304688 283.832031 26.484375 278.558594 C 23.667969 273.28125 21.113281 267.882812 18.824219 262.355469 C 16.535156 256.828125 14.523438 251.203125 12.785156 245.480469 C 11.050781 239.757812 9.597656 233.960938 8.429688 228.097656 C 7.265625 222.230469 6.386719 216.320312 5.800781 210.367188 C 5.214844 204.417969 4.921875 198.449219 4.921875 192.46875 Z M 4.921875 192.46875 " clip-rule="nonzero"/></clipPath><clipPath id="6cad20615d"><path d="M 4.921875 253 L 370.171875 253 L 370.171875 375 L 4.921875 375 Z M 4.921875 253 " clip-rule="nonzero"/></clipPath><clipPath id="9950e1ee36"><path d="M 4.921875 192.46875 C 4.921875 186.488281 5.214844 180.519531 5.800781 174.566406 C 6.386719 168.617188 7.265625 162.707031 8.429688 156.839844 C 9.597656 150.972656 11.050781 145.179688 12.785156 139.453125 C 14.523438 133.730469 16.535156 128.105469 18.824219 122.582031 C 21.113281 117.054688 23.667969 111.65625 26.484375 106.378906 C 29.304688 101.105469 32.375 95.980469 35.699219 91.007812 C 39.023438 86.035156 42.582031 81.234375 46.375 76.613281 C 50.171875 71.988281 54.183594 67.5625 58.410156 63.332031 C 62.640625 59.101562 67.066406 55.089844 71.691406 51.296875 C 76.3125 47.503906 81.113281 43.945312 86.085938 40.621094 C 91.058594 37.296875 96.183594 34.226562 101.457031 31.40625 C 106.734375 28.585938 112.132812 26.035156 117.660156 23.746094 C 123.183594 21.457031 128.808594 19.441406 134.535156 17.707031 C 140.257812 15.972656 146.050781 14.519531 151.917969 13.351562 C 157.785156 12.183594 163.695312 11.308594 169.644531 10.722656 C 175.597656 10.136719 181.566406 9.84375 187.546875 9.84375 C 193.527344 9.84375 199.496094 10.136719 205.445312 10.722656 C 211.398438 11.308594 217.308594 12.183594 223.175781 13.351562 C 229.042969 14.519531 234.835938 15.972656 240.558594 17.707031 C 246.285156 19.441406 251.910156 21.457031 257.433594 23.746094 C 262.960938 26.035156 268.359375 28.585938 273.636719 31.40625 C 278.910156 34.226562 284.035156 37.296875 289.007812 40.621094 C 293.980469 43.945312 298.777344 47.503906 303.402344 51.296875 C 308.027344 55.089844 312.453125 59.101562 316.683594 63.332031 C 320.910156 67.5625 324.921875 71.988281 328.71875 76.613281 C 332.511719 81.234375 336.070312 86.035156 339.394531 91.007812 C 342.714844 95.980469 345.789062 101.105469 348.609375 106.378906 C 351.425781 111.65625 353.980469 117.054688 356.269531 122.582031 C 358.558594 128.105469 360.570312 133.730469 362.308594 139.453125 C 364.042969 145.179688 365.496094 150.972656 366.664062 156.839844 C 367.828125 162.707031 368.707031 168.617188 369.292969 174.566406 C 369.878906 180.519531 370.171875 186.488281 370.171875 192.46875 C 370.171875 198.449219 369.878906 204.417969 369.292969 210.367188 C 368.707031 216.320312 367.828125 222.230469 366.664062 228.097656 C 365.496094 233.960938 364.042969 239.757812 362.308594 245.480469 C 360.570312 251.207031 358.558594 256.828125 356.269531 262.355469 C 353.980469 267.882812 351.425781 273.28125 348.609375 278.558594 C 345.789062 283.832031 342.714844 288.957031 339.394531 293.929688 C 336.070312 298.902344 332.511719 303.699219 328.71875 308.324219 C 324.921875 312.949219 320.910156 317.375 316.683594 321.605469 C 312.453125 325.832031 308.027344 329.84375 303.402344 333.640625 C 298.777344 337.433594 293.980469 340.992188 289.007812 344.316406 C 284.035156 347.636719 278.910156 350.710938 273.636719 353.527344 C 268.359375 356.347656 262.960938 358.902344 257.433594 361.191406 C 251.910156 363.480469 246.285156 365.492188 240.558594 367.230469 C 234.835938 368.964844 229.042969 370.417969 223.175781 371.585938 C 217.308594 372.75 211.398438 373.628906 205.445312 374.214844 C 199.496094 374.800781 193.527344 375.09375 187.546875 375.09375 C 181.566406 375.09375 175.597656 374.800781 169.644531 374.214844 C 163.695312 373.628906 157.785156 372.75 151.917969 371.585938 C 146.050781 370.417969 140.257812 368.964844 134.535156 367.230469 C 128.808594 365.492188 123.183594 363.480469 117.660156 361.191406 C 112.132812 358.902344 106.734375 356.347656 101.457031 353.527344 C 96.183594 350.710938 91.058594 347.636719 86.085938 344.316406 C 81.113281 340.992188 76.3125 337.433594 71.691406 333.640625 C 67.066406 329.84375 62.640625 325.832031 58.410156 321.605469 C 54.183594 317.375 50.171875 312.949219 46.375 308.324219 C 42.582031 303.699219 39.023438 298.902344 35.699219 293.929688 C 32.375 288.957031 29.304688 283.832031 26.484375 278.558594 C 23.667969 273.28125 21.113281 267.882812 18.824219 262.355469 C 16.535156 256.828125 14.523438 251.203125 12.785156 245.480469 C 11.050781 239.757812 9.597656 233.960938 8.429688 228.097656 C 7.265625 222.230469 6.386719 216.320312 5.800781 210.367188 C 5.214844 204.417969 4.921875 198.449219 4.921875 192.46875 Z M 4.921875 192.46875 " clip-rule="nonzero"/></clipPath><clipPath id="f93980c9b3"><path d="M 4.921875 9.84375 L 188 9.84375 L 188 375 L 4.921875 375 Z M 4.921875 9.84375 " clip-rule="nonzero"/></clipPath><clipPath id="0e0d8e1c90"><path d="M 4.921875 192.46875 C 4.921875 186.488281 5.214844 180.519531 5.800781 174.566406 C 6.386719 168.617188 7.265625 162.707031 8.429688 156.839844 C 9.597656 150.972656 11.050781 145.179688 12.785156 139.453125 C 14.523438 133.730469 16.535156 128.105469 18.824219 122.582031 C 21.113281 117.054688 23.667969 111.65625 26.484375 106.378906 C 29.304688 101.105469 32.375 95.980469 35.699219 91.007812 C 39.023438 86.035156 42.582031 81.234375 46.375 76.613281 C 50.171875 71.988281 54.183594 67.5625 58.410156 63.332031 C 62.640625 59.101562 67.066406 55.089844 71.691406 51.296875 C 76.3125 47.503906 81.113281 43.945312 86.085938 40.621094 C 91.058594 37.296875 96.183594 34.226562 101.457031 31.40625 C 106.734375 28.585938 112.132812 26.035156 117.660156 23.746094 C 123.183594 21.457031 128.808594 19.441406 134.535156 17.707031 C 140.257812 15.972656 146.050781 14.519531 151.917969 13.351562 C 157.785156 12.183594 163.695312 11.308594 169.644531 10.722656 C 175.597656 10.136719 181.566406 9.84375 187.546875 9.84375 C 193.527344 9.84375 199.496094 10.136719 205.445312 10.722656 C 211.398438 11.308594 217.308594 12.183594 223.175781 13.351562 C 229.042969 14.519531 234.835938 15.972656 240.558594 17.707031 C 246.285156 19.441406 251.910156 21.457031 257.433594 23.746094 C 262.960938 26.035156 268.359375 28.585938 273.636719 31.40625 C 278.910156 34.226562 284.035156 37.296875 289.007812 40.621094 C 293.980469 43.945312 298.777344 47.503906 303.402344 51.296875 C 308.027344 55.089844 312.453125 59.101562 316.683594 63.332031 C 320.910156 67.5625 324.921875 71.988281 328.71875 76.613281 C 332.511719 81.234375 336.070312 86.035156 339.394531 91.007812 C 342.714844 95.980469 345.789062 101.105469 348.609375 106.378906 C 351.425781 111.65625 353.980469 117.054688 356.269531 122.582031 C 358.558594 128.105469 360.570312 133.730469 362.308594 139.453125 C 364.042969 145.179688 365.496094 150.972656 366.664062 156.839844 C 367.828125 162.707031 368.707031 168.617188 369.292969 174.566406 C 369.878906 180.519531 370.171875 186.488281 370.171875 192.46875 C 370.171875 198.449219 369.878906 204.417969 369.292969 210.367188 C 368.707031 216.320312 367.828125 222.230469 366.664062 228.097656 C 365.496094 233.960938 364.042969 239.757812 362.308594 245.480469 C 360.570312 251.207031 358.558594 256.828125 356.269531 262.355469 C 353.980469 267.882812 351.425781 273.28125 348.609375 278.558594 C 345.789062 283.832031 342.714844 288.957031 339.394531 293.929688 C 336.070312 298.902344 332.511719 303.699219 328.71875 308.324219 C 324.921875 312.949219 320.910156 317.375 316.683594 321.605469 C 312.453125 325.832031 308.027344 329.84375 303.402344 333.640625 C 298.777344 337.433594 293.980469 340.992188 289.007812 344.316406 C 284.035156 347.636719 278.910156 350.710938 273.636719 353.527344 C 268.359375 356.347656 262.960938 358.902344 257.433594 361.191406 C 251.910156 363.480469 246.285156 365.492188 240.558594 367.230469 C 234.835938 368.964844 229.042969 370.417969 223.175781 371.585938 C 217.308594 372.75 211.398438 373.628906 205.445312 374.214844 C 199.496094 374.800781 193.527344 375.09375 187.546875 375.09375 C 181.566406 375.09375 175.597656 374.800781 169.644531 374.214844 C 163.695312 373.628906 157.785156 372.75 151.917969 371.585938 C 146.050781 370.417969 140.257812 368.964844 134.535156 367.230469 C 128.808594 365.492188 123.183594 363.480469 117.660156 361.191406 C 112.132812 358.902344 106.734375 356.347656 101.457031 353.527344 C 96.183594 350.710938 91.058594 347.636719 86.085938 344.316406 C 81.113281 340.992188 76.3125 337.433594 71.691406 333.640625 C 67.066406 329.84375 62.640625 325.832031 58.410156 321.605469 C 54.183594 317.375 50.171875 312.949219 46.375 308.324219 C 42.582031 303.699219 39.023438 298.902344 35.699219 293.929688 C 32.375 288.957031 29.304688 283.832031 26.484375 278.558594 C 23.667969 273.28125 21.113281 267.882812 18.824219 262.355469 C 16.535156 256.828125 14.523438 251.203125 12.785156 245.480469 C 11.050781 239.757812 9.597656 233.960938 8.429688 228.097656 C 7.265625 222.230469 6.386719 216.320312 5.800781 210.367188 C 5.214844 204.417969 4.921875 198.449219 4.921875 192.46875 Z M 4.921875 192.46875 " clip-rule="nonzero"/></clipPath><clipPath id="c12cdc3745"><path d="M 45 166 L 97 166 L 97 217 L 45 217 Z M 45 166 " clip-rule="nonzero"/></clipPath><clipPath id="4cb844172b"><path d="M 4.921875 192.46875 C 4.921875 186.488281 5.214844 180.519531 5.800781 174.566406 C 6.386719 168.617188 7.265625 162.707031 8.429688 156.839844 C 9.597656 150.972656 11.050781 145.179688 12.785156 139.453125 C 14.523438 133.730469 16.535156 128.105469 18.824219 122.582031 C 21.113281 117.054688 23.667969 111.65625 26.484375 106.378906 C 29.304688 101.105469 32.375 95.980469 35.699219 91.007812 C 39.023438 86.035156 42.582031 81.234375 46.375 76.613281 C 50.171875 71.988281 54.183594 67.5625 58.410156 63.332031 C 62.640625 59.101562 67.066406 55.089844 71.691406 51.296875 C 76.3125 47.503906 81.113281 43.945312 86.085938 40.621094 C 91.058594 37.296875 96.183594 34.226562 101.457031 31.40625 C 106.734375 28.585938 112.132812 26.035156 117.660156 23.746094 C 123.183594 21.457031 128.808594 19.441406 134.535156 17.707031 C 140.257812 15.972656 146.050781 14.519531 151.917969 13.351562 C 157.785156 12.183594 163.695312 11.308594 169.644531 10.722656 C 175.597656 10.136719 181.566406 9.84375 187.546875 9.84375 C 193.527344 9.84375 199.496094 10.136719 205.445312 10.722656 C 211.398438 11.308594 217.308594 12.183594 223.175781 13.351562 C 229.042969 14.519531 234.835938 15.972656 240.558594 17.707031 C 246.285156 19.441406 251.910156 21.457031 257.433594 23.746094 C 262.960938 26.035156 268.359375 28.585938 273.636719 31.40625 C 278.910156 34.226562 284.035156 37.296875 289.007812 40.621094 C 293.980469 43.945312 298.777344 47.503906 303.402344 51.296875 C 308.027344 55.089844 312.453125 59.101562 316.683594 63.332031 C 320.910156 67.5625 324.921875 71.988281 328.71875 76.613281 C 332.511719 81.234375 336.070312 86.035156 339.394531 91.007812 C 342.714844 95.980469 345.789062 101.105469 348.609375 106.378906 C 351.425781 111.65625 353.980469 117.054688 356.269531 122.582031 C 358.558594 128.105469 360.570312 133.730469 362.308594 139.453125 C 364.042969 145.179688 365.496094 150.972656 366.664062 156.839844 C 367.828125 162.707031 368.707031 168.617188 369.292969 174.566406 C 369.878906 180.519531 370.171875 186.488281 370.171875 192.46875 C 370.171875 198.449219 369.878906 204.417969 369.292969 210.367188 C 368.707031 216.320312 367.828125 222.230469 366.664062 228.097656 C 365.496094 233.960938 364.042969 239.757812 362.308594 245.480469 C 360.570312 251.207031 358.558594 256.828125 356.269531 262.355469 C 353.980469 267.882812 351.425781 273.28125 348.609375 278.558594 C 345.789062 283.832031 342.714844 288.957031 339.394531 293.929688 C 336.070312 298.902344 332.511719 303.699219 328.71875 308.324219 C 324.921875 312.949219 320.910156 317.375 316.683594 321.605469 C 312.453125 325.832031 308.027344 329.84375 303.402344 333.640625 C 298.777344 337.433594 293.980469 340.992188 289.007812 344.316406 C 284.035156 347.636719 278.910156 350.710938 273.636719 353.527344 C 268.359375 356.347656 262.960938 358.902344 257.433594 361.191406 C 251.910156 363.480469 246.285156 365.492188 240.558594 367.230469 C 234.835938 368.964844 229.042969 370.417969 223.175781 371.585938 C 217.308594 372.75 211.398438 373.628906 205.445312 374.214844 C 199.496094 374.800781 193.527344 375.09375 187.546875 375.09375 C 181.566406 375.09375 175.597656 374.800781 169.644531 374.214844 C 163.695312 373.628906 157.785156 372.75 151.917969 371.585938 C 146.050781 370.417969 140.257812 368.964844 134.535156 367.230469 C 128.808594 365.492188 123.183594 363.480469 117.660156 361.191406 C 112.132812 358.902344 106.734375 356.347656 101.457031 353.527344 C 96.183594 350.710938 91.058594 347.636719 86.085938 344.316406 C 81.113281 340.992188 76.3125 337.433594 71.691406 333.640625 C 67.066406 329.84375 62.640625 325.832031 58.410156 321.605469 C 54.183594 317.375 50.171875 312.949219 46.375 308.324219 C 42.582031 303.699219 39.023438 298.902344 35.699219 293.929688 C 32.375 288.957031 29.304688 283.832031 26.484375 278.558594 C 23.667969 273.28125 21.113281 267.882812 18.824219 262.355469 C 16.535156 256.828125 14.523438 251.203125 12.785156 245.480469 C 11.050781 239.757812 9.597656 233.960938 8.429688 228.097656 C 7.265625 222.230469 6.386719 216.320312 5.800781 210.367188 C 5.214844 204.417969 4.921875 198.449219 4.921875 192.46875 Z M 4.921875 192.46875 " clip-rule="nonzero"/></clipPath></defs><g clip-path="url(#3c8a174d1e)"><g clip-path="url(#5564076cee)"><path fill="#ffffff" d="M 4.921875 9.84375 L 370.171875 9.84375 L 370.171875 375.09375 L 4.921875 375.09375 Z M 4.921875 9.84375 " fill-opacity="1" fill-rule="nonzero"/></g></g><g clip-path="url(#92922e914d)"><g clip-path="url(#1df1ac7493)"><path fill="#000000" d="M 4.921875 9.84375 L 370.171875 9.84375 L 370.171875 131.589844 L 4.921875 131.589844 Z M 4.921875 9.84375 " fill-opacity="1" fill-rule="nonzero"/></g></g><g clip-path="url(#6cad20615d)"><g clip-path="url(#9950e1ee36)"><path fill="#007a3d" d="M 4.921875 253.375 L 370.171875 253.375 L 370.171875 375.121094 L 4.921875 375.121094 Z M 4.921875 253.375 " fill-opacity="1" fill-rule="nonzero"/></g></g><g clip-path="url(#f93980c9b3)"><g clip-path="url(#0e0d8e1c90)"><path fill="#ce1126" d="M 4.921875 375.09375 L 187.546875 192.46875 L 4.921875 9.84375 Z M 4.921875 375.09375 " fill-opacity="1" fill-rule="nonzero"/></g></g><g clip-path="url(#c12cdc3745)"><g clip-path="url(#4cb844172b)"><path fill="#ffffff" d="M 70.757812 205.617188 L 82.082031 216.027344 L 80.984375 200.6875 L 96.234375 198.3125 L 83.449219 189.636719 L 91.210938 176.214844 L 76.417969 180.78125 L 70.757812 166.351562 L 65.097656 180.78125 L 50.304688 176.214844 L 58.066406 189.636719 L 45.28125 198.3125 L 60.53125 200.6875 L 59.433594 216.027344 Z M 70.757812 205.617188 " fill-opacity="1" fill-rule="nonzero"/></g></g></svg>