<svg xmlns="http://www.w3.org/2000/svg" xmlns:xlink="http://www.w3.org/1999/xlink" width="500" zoomAndPan="magnify" viewBox="0 0 375 374.999991" height="500" preserveAspectRatio="xMidYMid meet" version="1.0"><defs><clipPath id="cf23c7fdfe"><path d="M 63 248 L 365 248 L 365 370.628906 L 63 370.628906 Z M 63 248 " clip-rule="nonzero"/></clipPath><clipPath id="c80fedeb73"><path d="M 63 4.628906 L 365 4.628906 L 365 127 L 63 127 Z M 63 4.628906 " clip-rule="nonzero"/></clipPath><clipPath id="70378e3843"><path d="M 9.257812 57 L 153 57 L 153 318 L 9.257812 318 Z M 9.257812 57 " clip-rule="nonzero"/></clipPath></defs><path fill="#f7f7f7" d="M 375.257812 187.605469 C 375.257812 208.984375 371.609375 229.511719 364.828125 248.613281 L 152.464844 248.613281 L 152.464844 126.644531 L 364.828125 126.644531 C 371.5625 145.699219 375.257812 166.226562 375.257812 187.605469 Z M 375.257812 187.605469 " fill-opacity="1" fill-rule="nonzero"/><g clip-path="url(#cf23c7fdfe)"><path fill="#ce2029" d="M 364.828125 248.613281 C 339.707031 319.671875 271.917969 370.628906 192.234375 370.628906 C 141.890625 370.628906 96.339844 350.292969 63.25 317.441406 L 152.464844 248.613281 Z M 364.828125 248.613281 " fill-opacity="1" fill-rule="nonzero"/></g><g clip-path="url(#c80fedeb73)"><path fill="#006f2e" d="M 364.828125 126.644531 L 152.464844 126.644531 L 63.25 57.816406 C 96.339844 24.964844 141.941406 4.628906 192.234375 4.628906 C 271.917969 4.628906 339.707031 55.539062 364.828125 126.644531 Z M 364.828125 126.644531 " fill-opacity="1" fill-rule="nonzero"/></g><g clip-path="url(#70378e3843)"><path fill="#1d1d1b" d="M 152.511719 126.644531 L 152.511719 248.660156 L 63.25 317.441406 C 29.925781 284.308594 9.257812 238.375 9.257812 187.605469 C 9.257812 136.882812 29.925781 90.949219 63.25 57.816406 Z M 152.511719 126.644531 " fill-opacity="1" fill-rule="nonzero"/></g></svg>