<svg xmlns="http://www.w3.org/2000/svg" xmlns:xlink="http://www.w3.org/1999/xlink" width="500" zoomAndPan="magnify" viewBox="0 0 375 374.999991" height="500" preserveAspectRatio="xMidYMid meet" version="1.0"><defs><clipPath id="5aa5941285"><path d="M 0 9.375 L 366 9.375 L 366 375 L 0 375 Z M 0 9.375 " clip-rule="nonzero"/></clipPath><clipPath id="475f77e19a"><path d="M 0 192.375 C 0 186.382812 0.292969 180.402344 0.882812 174.4375 C 1.46875 168.472656 2.347656 162.550781 3.515625 156.671875 C 4.6875 150.796875 6.140625 144.988281 7.878906 139.253906 C 9.621094 133.515625 11.636719 127.882812 13.929688 122.34375 C 16.222656 116.808594 18.78125 111.394531 21.609375 106.109375 C 24.433594 100.824219 27.511719 95.6875 30.839844 90.707031 C 34.171875 85.722656 37.738281 80.914062 41.539062 76.28125 C 45.339844 71.648438 49.363281 67.210938 53.597656 62.972656 C 57.835938 58.738281 62.273438 54.714844 66.90625 50.914062 C 71.539062 47.113281 76.347656 43.546875 81.332031 40.214844 C 86.3125 36.886719 91.449219 33.808594 96.734375 30.984375 C 102.019531 28.15625 107.433594 25.597656 112.96875 23.304688 C 118.507812 21.011719 124.140625 18.996094 129.878906 17.253906 C 135.613281 15.515625 141.421875 14.0625 147.296875 12.890625 C 153.175781 11.722656 159.097656 10.84375 165.0625 10.257812 C 171.027344 9.667969 177.007812 9.375 183 9.375 C 188.992188 9.375 194.972656 9.667969 200.9375 10.257812 C 206.902344 10.84375 212.824219 11.722656 218.703125 12.890625 C 224.578125 14.0625 230.386719 15.515625 236.121094 17.253906 C 241.859375 18.996094 247.492188 21.011719 253.03125 23.304688 C 258.566406 25.597656 263.980469 28.15625 269.265625 30.984375 C 274.550781 33.808594 279.6875 36.886719 284.667969 40.214844 C 289.652344 43.546875 294.460938 47.113281 299.09375 50.914062 C 303.726562 54.714844 308.164062 58.738281 312.402344 62.972656 C 316.636719 67.210938 320.660156 71.648438 324.460938 76.28125 C 328.261719 80.914062 331.828125 85.722656 335.160156 90.707031 C 338.488281 95.6875 341.566406 100.824219 344.390625 106.109375 C 347.21875 111.394531 349.777344 116.808594 352.070312 122.34375 C 354.363281 127.882812 356.378906 133.515625 358.121094 139.253906 C 359.859375 144.988281 361.3125 150.796875 362.484375 156.671875 C 363.652344 162.550781 364.53125 168.472656 365.117188 174.4375 C 365.707031 180.402344 366 186.382812 366 192.375 C 366 198.367188 365.707031 204.347656 365.117188 210.3125 C 364.53125 216.277344 363.652344 222.199219 362.484375 228.078125 C 361.3125 233.953125 359.859375 239.761719 358.121094 245.496094 C 356.378906 251.234375 354.363281 256.867188 352.070312 262.40625 C 349.777344 267.941406 347.21875 273.355469 344.390625 278.640625 C 341.566406 283.925781 338.488281 289.0625 335.160156 294.042969 C 331.828125 299.027344 328.261719 303.835938 324.460938 308.46875 C 320.660156 313.101562 316.636719 317.539062 312.402344 321.777344 C 308.164062 326.011719 303.726562 330.035156 299.09375 333.835938 C 294.460938 337.636719 289.652344 341.203125 284.667969 344.535156 C 279.6875 347.863281 274.550781 350.941406 269.265625 353.765625 C 263.980469 356.59375 258.566406 359.152344 253.03125 361.445312 C 247.492188 363.738281 241.859375 365.753906 236.121094 367.496094 C 230.386719 369.234375 224.578125 370.6875 218.703125 371.859375 C 212.824219 373.027344 206.902344 373.90625 200.9375 374.492188 C 194.972656 375.082031 188.992188 375.375 183 375.375 C 177.007812 375.375 171.027344 375.082031 165.0625 374.492188 C 159.097656 373.90625 153.175781 373.027344 147.296875 371.859375 C 141.421875 370.6875 135.613281 369.234375 129.878906 367.496094 C 124.140625 365.753906 118.507812 363.738281 112.96875 361.445312 C 107.433594 359.152344 102.019531 356.59375 96.734375 353.765625 C 91.449219 350.941406 86.3125 347.863281 81.332031 344.535156 C 76.347656 341.203125 71.539062 337.636719 66.90625 333.835938 C 62.273438 330.035156 57.835938 326.011719 53.597656 321.777344 C 49.363281 317.539062 45.339844 313.101562 41.539062 308.46875 C 37.738281 303.835938 34.171875 299.027344 30.839844 294.042969 C 27.511719 289.0625 24.433594 283.925781 21.609375 278.640625 C 18.78125 273.355469 16.222656 267.941406 13.929688 262.40625 C 11.636719 256.867188 9.621094 251.234375 7.878906 245.496094 C 6.140625 239.761719 4.6875 233.953125 3.515625 228.078125 C 2.347656 222.199219 1.46875 216.277344 0.882812 210.3125 C 0.292969 204.347656 0 198.367188 0 192.375 Z M 0 192.375 " clip-rule="nonzero"/></clipPath><clipPath id="537275f0da"><path d="M 91 100 L 275 100 L 275 284 L 91 284 Z M 91 100 " clip-rule="nonzero"/></clipPath><clipPath id="5d75a9b394"><path d="M 0 192.375 C 0 186.382812 0.292969 180.402344 0.882812 174.4375 C 1.46875 168.472656 2.347656 162.550781 3.515625 156.671875 C 4.6875 150.796875 6.140625 144.988281 7.878906 139.253906 C 9.621094 133.515625 11.636719 127.882812 13.929688 122.34375 C 16.222656 116.808594 18.78125 111.394531 21.609375 106.109375 C 24.433594 100.824219 27.511719 95.6875 30.839844 90.707031 C 34.171875 85.722656 37.738281 80.914062 41.539062 76.28125 C 45.339844 71.648438 49.363281 67.210938 53.597656 62.972656 C 57.835938 58.738281 62.273438 54.714844 66.90625 50.914062 C 71.539062 47.113281 76.347656 43.546875 81.332031 40.214844 C 86.3125 36.886719 91.449219 33.808594 96.734375 30.984375 C 102.019531 28.15625 107.433594 25.597656 112.96875 23.304688 C 118.507812 21.011719 124.140625 18.996094 129.878906 17.253906 C 135.613281 15.515625 141.421875 14.0625 147.296875 12.890625 C 153.175781 11.722656 159.097656 10.84375 165.0625 10.257812 C 171.027344 9.667969 177.007812 9.375 183 9.375 C 188.992188 9.375 194.972656 9.667969 200.9375 10.257812 C 206.902344 10.84375 212.824219 11.722656 218.703125 12.890625 C 224.578125 14.0625 230.386719 15.515625 236.121094 17.253906 C 241.859375 18.996094 247.492188 21.011719 253.03125 23.304688 C 258.566406 25.597656 263.980469 28.15625 269.265625 30.984375 C 274.550781 33.808594 279.6875 36.886719 284.667969 40.214844 C 289.652344 43.546875 294.460938 47.113281 299.09375 50.914062 C 303.726562 54.714844 308.164062 58.738281 312.402344 62.972656 C 316.636719 67.210938 320.660156 71.648438 324.460938 76.28125 C 328.261719 80.914062 331.828125 85.722656 335.160156 90.707031 C 338.488281 95.6875 341.566406 100.824219 344.390625 106.109375 C 347.21875 111.394531 349.777344 116.808594 352.070312 122.34375 C 354.363281 127.882812 356.378906 133.515625 358.121094 139.253906 C 359.859375 144.988281 361.3125 150.796875 362.484375 156.671875 C 363.652344 162.550781 364.53125 168.472656 365.117188 174.4375 C 365.707031 180.402344 366 186.382812 366 192.375 C 366 198.367188 365.707031 204.347656 365.117188 210.3125 C 364.53125 216.277344 363.652344 222.199219 362.484375 228.078125 C 361.3125 233.953125 359.859375 239.761719 358.121094 245.496094 C 356.378906 251.234375 354.363281 256.867188 352.070312 262.40625 C 349.777344 267.941406 347.21875 273.355469 344.390625 278.640625 C 341.566406 283.925781 338.488281 289.0625 335.160156 294.042969 C 331.828125 299.027344 328.261719 303.835938 324.460938 308.46875 C 320.660156 313.101562 316.636719 317.539062 312.402344 321.777344 C 308.164062 326.011719 303.726562 330.035156 299.09375 333.835938 C 294.460938 337.636719 289.652344 341.203125 284.667969 344.535156 C 279.6875 347.863281 274.550781 350.941406 269.265625 353.765625 C 263.980469 356.59375 258.566406 359.152344 253.03125 361.445312 C 247.492188 363.738281 241.859375 365.753906 236.121094 367.496094 C 230.386719 369.234375 224.578125 370.6875 218.703125 371.859375 C 212.824219 373.027344 206.902344 373.90625 200.9375 374.492188 C 194.972656 375.082031 188.992188 375.375 183 375.375 C 177.007812 375.375 171.027344 375.082031 165.0625 374.492188 C 159.097656 373.90625 153.175781 373.027344 147.296875 371.859375 C 141.421875 370.6875 135.613281 369.234375 129.878906 367.496094 C 124.140625 365.753906 118.507812 363.738281 112.96875 361.445312 C 107.433594 359.152344 102.019531 356.59375 96.734375 353.765625 C 91.449219 350.941406 86.3125 347.863281 81.332031 344.535156 C 76.347656 341.203125 71.539062 337.636719 66.90625 333.835938 C 62.273438 330.035156 57.835938 326.011719 53.597656 321.777344 C 49.363281 317.539062 45.339844 313.101562 41.539062 308.46875 C 37.738281 303.835938 34.171875 299.027344 30.839844 294.042969 C 27.511719 289.0625 24.433594 283.925781 21.609375 278.640625 C 18.78125 273.355469 16.222656 267.941406 13.929688 262.40625 C 11.636719 256.867188 9.621094 251.234375 7.878906 245.496094 C 6.140625 239.761719 4.6875 233.953125 3.515625 228.078125 C 2.347656 222.199219 1.46875 216.277344 0.882812 210.3125 C 0.292969 204.347656 0 198.367188 0 192.375 Z M 0 192.375 " clip-rule="nonzero"/></clipPath></defs><g clip-path="url(#5aa5941285)"><g clip-path="url(#475f77e19a)"><path fill="#ffffff" d="M 0 9.375 L 366 9.375 L 366 375.375 L 0 375.375 Z M 0 9.375 " fill-opacity="1" fill-rule="nonzero"/><path fill="#ee161f" d="M 366 100.875 L 0 100.875 L 0 9.375 L 366 9.375 Z M 366 283.875 L 0 283.875 L 0 375.375 L 366 375.375 Z M 366 283.875 " fill-opacity="1" fill-rule="nonzero"/></g></g><g clip-path="url(#537275f0da)"><g clip-path="url(#5d75a9b394)"><path fill="#00a850" d="M 272.671875 226.046875 C 270.886719 225.722656 269.085938 225.539062 267.269531 225.496094 C 265.761719 225.3125 264.265625 225.039062 262.789062 224.675781 C 259.675781 223.851562 256.566406 222.84375 253.453125 222.113281 C 253.636719 220.738281 255.011719 219.824219 256.292969 219.277344 C 258.191406 218.460938 260.171875 218.066406 262.238281 218.085938 C 262.566406 218.128906 262.871094 218.066406 263.152344 217.902344 C 263.320312 217.730469 263.414062 217.519531 263.429688 217.28125 C 263.449219 217.039062 263.386719 216.820312 263.246094 216.621094 C 262.914062 216.269531 262.519531 216.027344 262.054688 215.890625 C 259.128906 214.609375 255.375 213.96875 252.816406 215.980469 C 252.363281 216.398438 251.878906 216.765625 251.351562 217.078125 C 251.082031 217.234375 250.792969 217.3125 250.480469 217.3125 C 250.171875 217.3125 249.882812 217.234375 249.613281 217.078125 C 249.347656 216.726562 249.101562 216.363281 248.878906 215.980469 C 248.789062 215.878906 248.691406 215.785156 248.578125 215.707031 C 248.464844 215.625 248.34375 215.5625 248.214844 215.511719 C 248.085938 215.460938 247.953125 215.429688 247.816406 215.414062 C 247.679688 215.398438 247.542969 215.398438 247.40625 215.417969 C 247.269531 215.433594 247.140625 215.46875 247.011719 215.519531 C 246.882812 215.570312 246.765625 215.636719 246.652344 215.71875 C 246.542969 215.800781 246.441406 215.894531 246.355469 216 C 246.265625 216.109375 246.195312 216.222656 246.136719 216.347656 C 246.070312 216.621094 245.945312 216.863281 245.769531 217.078125 C 244.945312 217.71875 243.9375 215.800781 242.933594 216.257812 C 241.925781 216.714844 242.566406 217.445312 242.199219 217.996094 C 242.070312 218.136719 241.917969 218.242188 241.742188 218.320312 C 241.566406 218.394531 241.386719 218.433594 241.195312 218.433594 C 241.003906 218.433594 240.820312 218.394531 240.644531 218.320312 C 240.46875 218.242188 240.316406 218.136719 240.1875 217.996094 C 239.675781 217.382812 239.367188 216.683594 239.273438 215.890625 C 238.632812 213.421875 237.351562 210.675781 234.878906 209.941406 C 232.410156 209.210938 231.128906 210.035156 229.574219 209.121094 C 228.019531 208.203125 227.742188 206.921875 226.554688 206.191406 C 226.222656 206 225.867188 205.863281 225.492188 205.789062 C 225.117188 205.710938 224.738281 205.699219 224.355469 205.75 C 223.976562 205.800781 223.613281 205.910156 223.269531 206.078125 C 222.925781 206.25 222.617188 206.46875 222.34375 206.742188 C 221.429688 207.839844 220.882812 209.667969 219.507812 209.667969 C 218.933594 209.566406 218.382812 209.386719 217.863281 209.121094 C 216.304688 208.480469 214.476562 209.300781 213.101562 210.402344 C 211.730469 211.5 210.542969 212.6875 208.894531 213.238281 C 208.621094 213.375 208.34375 213.375 208.070312 213.238281 C 207.523438 213.054688 207.523438 212.230469 207.703125 211.589844 C 208.894531 206.921875 209.902344 201.984375 211.089844 197.222656 C 213.453125 196.996094 215.800781 197.089844 218.136719 197.5 C 219.148438 197.640625 220.09375 197.976562 220.972656 198.503906 C 222.070312 199.144531 222.800781 200.152344 223.902344 200.703125 C 224.199219 200.960938 224.535156 201.019531 224.90625 200.882812 C 225.363281 200.609375 225.179688 199.96875 225.273438 199.421875 C 225.335938 199.003906 225.519531 198.648438 225.828125 198.355469 C 226.132812 198.066406 226.5 197.902344 226.921875 197.863281 C 227.785156 197.703125 228.609375 197.824219 229.390625 198.230469 C 230.496094 198.71875 231.441406 199.417969 232.226562 200.335938 C 232.410156 200.609375 232.59375 200.882812 232.867188 200.882812 C 233.140625 200.882812 234.058594 200.152344 234.058594 199.421875 C 234.015625 198.609375 233.800781 197.847656 233.417969 197.132812 C 235.0625 196.960938 236.679688 197.113281 238.265625 197.589844 C 239.460938 197.792969 240.589844 198.191406 241.652344 198.78125 L 243.207031 199.695312 C 245.21875 200.519531 247.691406 199.054688 249.796875 199.601562 C 251.898438 200.152344 253.363281 202.164062 255.285156 201.890625 C 254.496094 199.746094 253.308594 197.855469 251.714844 196.21875 C 251.4375 195.773438 251.042969 195.5 250.527344 195.394531 C 250.144531 195.363281 249.78125 195.425781 249.429688 195.578125 C 248.054688 195.953125 246.714844 195.863281 245.402344 195.304688 C 243.847656 194.570312 242.65625 193.199219 241.195312 192.191406 C 239.730469 191.183594 237.625 190.820312 236.253906 192.007812 C 235.371094 191.789062 234.730469 191.269531 234.332031 190.453125 C 233.964844 189.722656 233.78125 188.898438 233.417969 188.164062 C 233.050781 187.433594 233.234375 187.707031 232.960938 187.707031 C 232.683594 187.707031 232.410156 188.164062 232.136719 188.53125 C 231.957031 188.886719 231.6875 189.148438 231.332031 189.316406 C 230.972656 189.488281 230.601562 189.53125 230.214844 189.445312 C 229.464844 189.3125 228.792969 189.007812 228.199219 188.53125 C 227.011719 187.617188 226.003906 186.425781 224.816406 185.605469 C 224.214844 185.117188 223.535156 184.777344 222.785156 184.582031 C 222.035156 184.390625 221.277344 184.367188 220.515625 184.507812 C 219.234375 184.871094 218.042969 186.0625 216.671875 185.96875 C 215.300781 185.878906 214.019531 184.414062 213.195312 183.132812 L 211.363281 180.023438 C 211.011719 179.316406 210.492188 178.769531 209.808594 178.375 C 208.710938 178.007812 207.703125 178.648438 206.789062 179.289062 L 203.769531 181.394531 C 202.398438 182.402344 200.75 183.5 199.105469 183.226562 C 198.828125 183.132812 198.554688 183.042969 198.464844 182.859375 C 198.320312 182.667969 198.257812 182.457031 198.28125 182.21875 L 198.28125 176.636719 C 198.296875 176.292969 198.359375 175.957031 198.464844 175.628906 C 198.746094 175.300781 199.089844 175.070312 199.503906 174.941406 C 199.914062 174.808594 200.332031 174.792969 200.75 174.898438 C 203.480469 175.050781 206.164062 175.476562 208.804688 176.179688 C 210.328125 176.527344 211.761719 177.109375 213.105469 177.917969 C 214.382812 178.742188 215.390625 179.929688 216.671875 180.753906 C 217.953125 181.578125 219.78125 181.851562 220.972656 180.9375 L 221.613281 180.386719 C 222.34375 180.113281 223.078125 180.664062 223.71875 181.121094 C 224.359375 181.578125 225.179688 182.035156 225.730469 181.488281 C 226.28125 180.9375 226.1875 180.480469 226.460938 179.929688 C 226.9375 179.4375 227.515625 179.191406 228.199219 179.199219 C 228.832031 179.265625 229.441406 179.417969 230.03125 179.65625 C 231.320312 180.011719 232.632812 180.226562 233.964844 180.296875 C 234.234375 180.335938 234.476562 180.273438 234.699219 180.113281 C 235.15625 179.746094 235.0625 179.109375 235.429688 178.742188 C 235.796875 178.375 236.527344 178.832031 237.078125 179.015625 C 237.625 179.199219 239.363281 178.375 240.460938 178.742188 C 241.558594 179.109375 242.015625 180.480469 243.023438 180.9375 C 244.03125 181.394531 243.664062 181.121094 243.847656 180.9375 C 244.03125 180.753906 244.03125 180.113281 243.847656 179.65625 C 243.421875 178.90625 242.90625 178.214844 242.304688 177.59375 C 241.707031 176.96875 241.039062 176.429688 240.304688 175.976562 C 239.566406 175.519531 238.789062 175.164062 237.960938 174.902344 C 237.136719 174.644531 236.292969 174.488281 235.429688 174.441406 C 234.945312 174.417969 234.488281 174.296875 234.058594 174.074219 C 233.820312 173.738281 233.636719 173.371094 233.507812 172.976562 C 232.957031 171.96875 231.128906 171.421875 230.304688 172.246094 C 229.480469 173.070312 228.109375 172.519531 227.378906 171.605469 C 226.828125 170.671875 226.371094 169.695312 226.003906 168.675781 C 225.746094 168.082031 225.378906 167.566406 224.90625 167.121094 C 224.632812 166.71875 224.273438 166.417969 223.828125 166.21875 C 223.382812 166.023438 222.917969 165.957031 222.4375 166.023438 C 221.429688 166.296875 220.882812 167.394531 219.964844 167.851562 C 219.585938 167.992188 219.191406 168.035156 218.789062 167.988281 C 218.386719 167.9375 218.015625 167.804688 217.679688 167.578125 C 217.015625 167.144531 216.464844 166.59375 216.03125 165.929688 C 215.738281 165.46875 215.371094 165.074219 214.933594 164.742188 C 214.703125 164.566406 214.445312 164.480469 214.15625 164.480469 C 213.867188 164.480469 213.609375 164.566406 213.378906 164.742188 C 213.101562 165.015625 213.011719 165.382812 212.828125 165.566406 C 212.675781 165.679688 212.507812 165.757812 212.320312 165.796875 C 212.132812 165.835938 211.945312 165.832031 211.761719 165.789062 C 211.574219 165.746094 211.40625 165.664062 211.257812 165.542969 C 211.109375 165.425781 210.992188 165.28125 210.90625 165.109375 C 210.539062 164.421875 210.355469 163.691406 210.359375 162.910156 C 210.175781 162.179688 209.808594 161.355469 209.078125 161.171875 C 208.34375 160.992188 207.429688 161.632812 206.789062 162.273438 C 206.148438 162.910156 205.324219 163.644531 204.410156 163.277344 C 204.792969 160.949219 205.496094 158.722656 206.515625 156.597656 C 207.523438 154.675781 208.710938 152.847656 208.984375 150.742188 C 213.101562 152.480469 217.679688 153.761719 222.070312 152.847656 C 222.503906 152.792969 222.902344 152.640625 223.261719 152.390625 C 223.503906 152.0625 223.625 151.699219 223.625 151.292969 C 223.625 150.886719 223.503906 150.519531 223.261719 150.195312 C 222.71875 149.632812 222.078125 149.238281 221.339844 149.003906 C 220.550781 148.886719 219.785156 148.675781 219.050781 148.363281 L 214.84375 142.050781 C 214.6875 141.738281 214.441406 141.523438 214.109375 141.410156 L 213.285156 141.59375 L 210.542969 143.238281 C 209.59375 144.085938 208.492188 144.636719 207.246094 144.886719 C 206.605469 144.886719 205.875 144.703125 205.785156 144.0625 C 205.8125 143.8125 205.871094 143.566406 205.964844 143.332031 C 206.535156 142.019531 207.328125 140.859375 208.34375 139.855469 C 208.722656 139.585938 209.027344 139.25 209.261719 138.847656 C 209.371094 138.644531 209.402344 138.425781 209.351562 138.199219 C 209.296875 137.972656 209.175781 137.792969 208.984375 137.65625 C 208.765625 137.507812 208.519531 137.445312 208.253906 137.476562 C 207.46875 137.402344 206.859375 137.035156 206.425781 136.378906 L 205.875 135.554688 C 205.726562 135.398438 205.554688 135.277344 205.363281 135.191406 C 205.167969 135.101562 204.964844 135.054688 204.75 135.046875 C 204.535156 135.035156 204.328125 135.070312 204.128906 135.140625 C 203.925781 135.210938 203.746094 135.320312 203.585938 135.460938 L 203.128906 135.917969 C 202.582031 136.378906 201.847656 136.011719 201.300781 135.554688 C 200.921875 135.050781 200.492188 134.59375 200.019531 134.179688 C 198.738281 133.265625 197.089844 133.996094 195.71875 134.636719 L 192.789062 136.101562 C 192.253906 136.546875 191.644531 136.699219 190.960938 136.558594 C 190.65625 136.453125 190.394531 136.277344 190.183594 136.03125 C 189.972656 135.785156 189.832031 135.503906 189.769531 135.1875 C 189.710938 134.542969 189.738281 133.902344 189.863281 133.265625 C 190.320312 130.519531 190.960938 127.960938 191.417969 125.304688 C 195.636719 126.25 199.910156 126.832031 204.226562 127.042969 C 205.234375 127.136719 205.324219 126.21875 204.320312 125.945312 C 201.664062 125.304688 200.660156 122.011719 198.371094 120.457031 C 197.125 119.757812 195.8125 119.207031 194.4375 118.808594 C 193.757812 118.628906 193.144531 118.3125 192.601562 117.867188 C 192.058594 117.417969 191.632812 116.878906 191.328125 116.246094 C 190.960938 115.148438 191.050781 113.960938 190.59375 113.042969 C 190.046875 112.285156 189.40625 111.613281 188.671875 111.03125 C 187.738281 109.8125 187.191406 108.441406 187.027344 106.914062 C 186.960938 105.398438 186.65625 103.9375 186.109375 102.523438 C 185.46875 101.148438 184.464844 100.875 183 100.875 C 182.492188 100.875 182.035156 101.027344 181.628906 101.332031 C 180.621094 102.15625 180.621094 102.886719 180.347656 104.167969 C 180.070312 105.449219 177.96875 107.003906 176.6875 108.011719 C 175.40625 109.019531 175.769531 109.84375 175.589844 110.847656 C 175.40625 111.855469 175.769531 113.503906 175.222656 114.507812 C 174.671875 115.515625 171.472656 115.699219 170.28125 117.070312 C 169.96875 117.601562 169.695312 118.148438 169.457031 118.71875 C 168.632812 120.273438 166.988281 121.097656 165.339844 121.738281 C 163.695312 122.378906 161.953125 122.835938 160.582031 123.933594 C 159.210938 125.03125 158.296875 126.953125 159.117188 128.507812 C 159.195312 128.675781 159.316406 128.796875 159.484375 128.875 C 159.765625 128.960938 160.007812 128.898438 160.214844 128.691406 C 160.972656 128.058594 161.765625 127.480469 162.59375 126.953125 C 164.152344 126.21875 166.074219 126.679688 167.71875 127.226562 C 168.292969 127.257812 168.75 127.5 169.09375 127.960938 C 169.3125 128.324219 169.433594 128.722656 169.457031 129.148438 C 169.640625 130.980469 170.554688 132.898438 170.648438 134.730469 C 170.738281 136.558594 170.464844 136.925781 169.550781 136.925781 C 168.632812 136.925781 168.542969 136.46875 168.085938 136.101562 C 167.273438 135.40625 166.355469 134.886719 165.339844 134.546875 C 164.242188 133.996094 162.871094 133.449219 161.863281 134.179688 C 160.855469 134.914062 160.855469 135.917969 160.035156 136.46875 C 159.210938 137.015625 156.28125 136.558594 155.457031 138.023438 L 159.394531 139.121094 C 159.410156 139.476562 159.347656 139.8125 159.203125 140.136719 C 159.058594 140.460938 158.847656 140.730469 158.570312 140.953125 C 157.992188 141.375 157.351562 141.652344 156.648438 141.777344 C 155.558594 141.976562 154.460938 142.035156 153.355469 141.957031 C 152.621094 141.957031 151.617188 141.957031 151.433594 142.691406 C 151.25 143.421875 151.980469 143.878906 152.621094 144.246094 C 153.261719 144.613281 153.8125 145.433594 153.355469 145.984375 L 152.621094 146.351562 C 149.933594 147.113281 147.371094 148.179688 144.9375 149.554688 C 148.050781 150.867188 151.285156 151.292969 154.636719 150.835938 C 158.015625 150.394531 161.339844 149.695312 164.609375 148.730469 C 165.980469 152.390625 167.445312 156.234375 166.804688 160.074219 C 165.523438 160.074219 164.609375 158.886719 163.417969 158.335938 C 162.753906 158.070312 162.070312 157.992188 161.363281 158.105469 C 160.65625 158.222656 160.027344 158.511719 159.484375 158.976562 C 159.210938 159.324219 158.875 159.601562 158.476562 159.800781 C 158.140625 159.90625 157.796875 159.921875 157.453125 159.839844 C 157.109375 159.757812 156.808594 159.589844 156.554688 159.34375 C 156.007812 158.976562 155.550781 158.335938 155 157.878906 C 154.25 157.183594 153.367188 156.878906 152.347656 156.964844 C 151.847656 156.992188 151.398438 157.15625 151 157.453125 C 150.601562 157.753906 150.316406 158.140625 150.152344 158.613281 C 149.96875 159.070312 149.96875 159.617188 149.785156 159.984375 C 149.601562 160.351562 147.957031 161.265625 146.859375 160.992188 C 145.757812 160.714844 144.84375 159.984375 143.746094 159.617188 C 142.984375 159.441406 142.222656 159.453125 141.464844 159.644531 C 140.703125 159.839844 140.03125 160.195312 139.445312 160.714844 L 138.074219 162.273438 C 136.425781 163.550781 134.230469 163.277344 132.492188 164.46875 L 137.800781 165.199219 C 138.371094 165.222656 138.859375 165.4375 139.261719 165.839844 C 139.902344 166.664062 139.078125 167.945312 138.164062 168.402344 C 137.25 168.859375 134.414062 168.859375 132.582031 169.226562 C 131.300781 169.476562 130.082031 169.902344 128.921875 170.507812 L 119.132812 174.714844 C 118.585938 174.988281 117.851562 175.449219 117.945312 175.996094 C 118.0625 176.261719 118.214844 176.503906 118.402344 176.726562 C 118.894531 177.292969 119.476562 177.75 120.140625 178.101562 C 120.5 178.277344 120.878906 178.324219 121.269531 178.238281 C 121.664062 178.152344 121.988281 177.953125 122.242188 177.644531 C 122.703125 177.003906 122.519531 175.90625 123.160156 175.449219 C 123.800781 174.988281 124.898438 175.628906 125.8125 175.8125 C 126.726562 175.996094 128.832031 174.347656 130.480469 174.257812 C 132.125 174.167969 133.222656 175.449219 134.597656 174.988281 C 135.96875 174.53125 136.242188 173.433594 137.160156 172.792969 C 137.757812 172.417969 138.398438 172.324219 139.078125 172.519531 C 140.453125 172.792969 141.550781 174.074219 142.921875 173.710938 C 144.296875 173.34375 144.296875 172.152344 145.300781 171.789062 C 146.308594 171.421875 147.589844 172.429688 148.777344 172.976562 C 149.941406 173.378906 151.128906 173.5 152.347656 173.34375 C 153.019531 173.164062 153.628906 173.285156 154.175781 173.710938 C 154.53125 174.132812 154.683594 174.621094 154.636719 175.171875 C 154.742188 176.988281 154.621094 178.789062 154.269531 180.570312 C 152.988281 179.839844 151.15625 179.199219 150.058594 180.207031 C 149.703125 180.628906 149.398438 181.085938 149.144531 181.578125 C 148.871094 182.09375 148.445312 182.367188 147.863281 182.402344 C 147.222656 182.308594 146.765625 181.667969 146.398438 181.210938 C 146.105469 180.941406 145.777344 180.722656 145.414062 180.5625 C 145.046875 180.402344 144.664062 180.304688 144.265625 180.269531 C 143.867188 180.238281 143.476562 180.269531 143.089844 180.367188 C 142.703125 180.46875 142.339844 180.625 142.007812 180.847656 C 141.175781 181.660156 140.472656 182.574219 139.902344 183.589844 C 139.171875 184.507812 137.980469 185.328125 136.882812 184.964844 C 135.785156 184.597656 135.601562 183.957031 134.960938 183.40625 C 134.058594 182.566406 132.992188 182.105469 131.761719 182.035156 C 131.390625 182.890625 131.113281 183.773438 130.9375 184.6875 C 130.066406 184.0625 129.394531 183.269531 128.921875 182.308594 C 128.023438 183.347656 127.261719 184.472656 126.636719 185.695312 C 126.363281 186.335938 125.902344 187.160156 125.171875 187.066406 C 124.441406 186.976562 124.074219 186.152344 123.707031 185.511719 C 123.34375 184.871094 122.609375 184.140625 122.0625 184.597656 C 121.894531 184.671875 121.769531 184.796875 121.695312 184.964844 L 118.402344 190.085938 C 118.253906 190.449219 118.011719 190.722656 117.667969 190.910156 C 116.753906 191.367188 115.839844 190.179688 114.832031 189.996094 C 114.394531 189.941406 113.964844 189.984375 113.546875 190.128906 C 113.128906 190.273438 112.765625 190.503906 112.453125 190.820312 C 110.445312 192.214844 108.707031 193.894531 107.238281 195.851562 C 111.265625 194.84375 115.839844 194.203125 119.957031 193.566406 C 118.785156 195.386719 117.367188 196.984375 115.695312 198.359375 C 114.019531 199.734375 112.179688 200.820312 110.164062 201.617188 C 111.804688 202.136719 113.480469 202.382812 115.199219 202.347656 C 114.828125 203.429688 114.1875 204.3125 113.277344 205.003906 C 112.855469 205.46875 112.335938 205.773438 111.722656 205.917969 C 110.898438 206.007812 110.164062 205.460938 109.433594 205.367188 C 108.902344 205.332031 108.390625 205.40625 107.894531 205.601562 C 107.394531 205.792969 106.964844 206.082031 106.597656 206.464844 C 105.839844 207.210938 104.984375 207.820312 104.035156 208.296875 C 103.027344 208.753906 101.839844 208.660156 100.648438 208.9375 C 99.460938 209.210938 98.269531 209.761719 98.089844 210.859375 C 98.039062 211.3125 98.121094 211.738281 98.339844 212.140625 C 98.558594 212.542969 98.871094 212.847656 99.277344 213.054688 C 100.132812 213.441406 100.984375 213.441406 101.839844 213.054688 C 103.761719 212.320312 105.042969 210.125 107.148438 209.941406 C 109.25 209.761719 109.617188 210.582031 110.898438 210.582031 C 111.703125 210.582031 112.496094 210.492188 113.277344 210.308594 C 114.191406 210.21875 115.199219 210.492188 116.203125 210.492188 C 117.671875 210.484375 119.046875 210.117188 120.324219 209.394531 C 120.824219 209.027344 121.375 208.753906 121.96875 208.570312 C 122.285156 208.480469 122.59375 208.496094 122.902344 208.613281 C 123.207031 208.734375 123.445312 208.933594 123.617188 209.210938 C 123.632812 209.644531 123.695312 210.070312 123.800781 210.492188 C 124.074219 211.132812 124.898438 211.132812 125.539062 210.949219 L 127.183594 210.125 C 128.558594 209.761719 130.203125 210.765625 131.394531 209.941406 C 132.582031 209.121094 132.675781 207.472656 133.863281 207.472656 C 134.242188 207.414062 134.578125 207.507812 134.871094 207.746094 C 135.554688 208.234375 136.285156 208.628906 137.066406 208.9375 C 137.273438 208.996094 137.484375 209.019531 137.699219 209.003906 C 137.914062 208.988281 138.117188 208.929688 138.3125 208.839844 C 138.507812 208.746094 138.679688 208.621094 138.828125 208.464844 C 138.976562 208.308594 139.089844 208.128906 139.171875 207.929688 C 139.261719 207.5625 139.355469 207.105469 139.71875 207.105469 L 139.996094 207.472656 C 141.367188 209.578125 143.105469 211.773438 144.386719 213.878906 C 143.542969 215.546875 143.117188 217.316406 143.105469 219.183594 C 143.121094 219.554688 143.089844 219.921875 143.015625 220.28125 C 142.835938 220.59375 142.589844 220.839844 142.28125 221.019531 C 141.96875 221.199219 141.632812 221.289062 141.277344 221.289062 C 140.570312 221.226562 139.867188 221.257812 139.171875 221.378906 C 138.074219 221.5625 137.25 222.386719 136.242188 222.753906 C 135.238281 223.117188 132.859375 222.386719 131.210938 221.839844 C 129.5625 221.289062 127.367188 221.378906 126.542969 222.84375 C 125.722656 224.308594 126.179688 224.675781 125.445312 225.222656 C 124.714844 225.773438 123.160156 225.039062 122.335938 224.125 C 122.152344 225.957031 121.878906 228.058594 120.324219 228.882812 C 118.765625 229.707031 117.394531 229.339844 116.203125 230.074219 C 115.015625 230.804688 114.007812 232.542969 112.636719 232.269531 C 112.132812 232.113281 111.671875 231.871094 111.265625 231.535156 C 109.527344 230.347656 107.238281 230.714844 105.226562 231.171875 C 104.503906 231.230469 103.835938 231.445312 103.210938 231.8125 C 101.929688 232.542969 101.199219 234.191406 99.734375 234.375 C 98.269531 234.554688 96.074219 230.988281 93.878906 231.355469 C 93.46875 231.429688 93.105469 231.59375 92.78125 231.855469 C 92.453125 232.113281 92.210938 232.4375 92.050781 232.816406 C 91.714844 233.542969 91.53125 234.308594 91.5 235.105469 C 93.652344 235.132812 95.695312 235.621094 97.628906 236.570312 C 98.144531 236.890625 98.695312 237.132812 99.277344 237.300781 C 100.285156 237.484375 101.289062 237.027344 102.296875 237.027344 C 103.304688 237.027344 105.773438 238.949219 107.605469 239.863281 C 109.433594 240.777344 114.375 239.589844 115.746094 236.933594 C 117.578125 236.753906 119.222656 237.851562 120.6875 238.765625 C 121.195312 239.183594 121.773438 239.425781 122.425781 239.496094 C 123.707031 239.679688 124.898438 238.765625 125.8125 237.757812 C 126.726562 236.753906 127.734375 235.835938 129.015625 235.746094 C 130.296875 235.65625 130.9375 236.296875 131.941406 236.296875 C 132.742188 236.332031 133.503906 236.179688 134.230469 235.835938 C 135.769531 235.015625 136.988281 233.855469 137.890625 232.359375 C 138.164062 231.996094 138.714844 231.445312 139.171875 231.8125 L 139.355469 232.175781 L 140.726562 237.210938 C 140.957031 238.296875 141.324219 239.332031 141.824219 240.320312 C 142.308594 241.050781 142.886719 241.6875 143.5625 242.242188 C 146.414062 244.964844 149.679688 247.039062 153.355469 248.464844 C 154.96875 247.898438 156.585938 247.898438 158.203125 248.464844 C 159.703125 249.046875 161.109375 249.808594 162.414062 250.753906 C 163.367188 251.335938 164.191406 252.070312 164.882812 252.949219 C 166.4375 254.871094 166.621094 257.523438 166.621094 259.902344 C 166.71875 261.96875 166.355469 263.953125 165.523438 265.847656 C 164.792969 267.222656 163.601562 268.410156 163.417969 269.875 C 163.382812 270.195312 163.292969 270.503906 163.144531 270.789062 C 162.777344 271.523438 161.773438 271.429688 160.949219 271.707031 C 160.0625 272.199219 159.390625 272.902344 158.933594 273.808594 L 156.921875 277.011719 C 156.707031 277.488281 156.371094 277.855469 155.914062 278.109375 C 155.09375 278.660156 153.996094 278.292969 152.988281 278.386719 C 151.980469 278.476562 149.96875 280.214844 148.230469 280.765625 C 146.492188 281.3125 146.859375 281.039062 146.125 281.3125 C 145.058594 281.867188 144.355469 282.71875 144.019531 283.875 L 144.753906 283.875 C 147.589844 283.875 150.609375 283.601562 153.445312 283.417969 C 154.359375 283.324219 155.824219 283.601562 156.097656 282.777344 C 156.292969 282.472656 156.566406 282.265625 156.910156 282.164062 C 157.257812 282.058594 157.597656 282.082031 157.929688 282.226562 C 158.597656 282.507812 159.238281 282.84375 159.851562 283.234375 C 160.933594 283.703125 162.0625 283.886719 163.234375 283.785156 C 165.117188 283.859375 166.976562 283.707031 168.816406 283.324219 C 170.832031 282.777344 172.84375 281.585938 174.949219 282.046875 C 177.050781 282.503906 177.417969 283.234375 178.699219 282.960938 C 179.980469 282.683594 179.707031 282.503906 180.347656 282.410156 C 180.988281 282.320312 182.359375 283.144531 183.367188 283.507812 C 184.355469 283.785156 185.363281 283.878906 186.386719 283.785156 C 188 283.792969 189.523438 283.425781 190.960938 282.683594 C 191.597656 282.234375 192.269531 281.839844 192.972656 281.496094 L 194.164062 281.496094 C 195.164062 281.390625 196.109375 281.574219 197 282.046875 C 197.382812 282.328125 197.75 282.632812 198.097656 282.960938 C 199.101562 283.523438 200.167969 283.707031 201.300781 283.507812 C 203.296875 283.226562 205.21875 282.679688 207.066406 281.863281 C 209.625 283.691406 212.828125 284.058594 217.128906 283.875 C 218.066406 283.816406 218.886719 283.480469 219.601562 282.867188 C 219.953125 282.582031 220.203125 282.226562 220.351562 281.796875 C 220.5 281.367188 220.523438 280.933594 220.421875 280.488281 C 220.382812 280.289062 220.285156 280.121094 220.132812 279.984375 C 219.980469 279.851562 219.804688 279.773438 219.601562 279.757812 L 218.960938 280.125 C 218.640625 280.273438 218.304688 280.332031 217.953125 280.304688 C 215.207031 279.941406 213.101562 277.652344 211.640625 275.367188 C 211.367188 274.800781 210.96875 274.34375 210.449219 273.992188 C 209.078125 273.078125 207.15625 274.175781 205.691406 273.351562 C 204.980469 272.941406 204.554688 272.332031 204.410156 271.523438 C 204.246094 270.738281 204.121094 269.945312 204.046875 269.144531 C 203.585938 266.214844 201.667969 263.746094 199.835938 261.367188 C 199.425781 260.980469 199.121094 260.523438 198.921875 259.992188 C 198.675781 259.371094 198.613281 258.730469 198.738281 258.070312 C 198.828125 255.328125 201.027344 252.855469 201.484375 250.113281 C 201.941406 247.367188 204.960938 245.078125 207.703125 243.707031 C 210.449219 242.332031 213.652344 241.054688 215.117188 238.308594 C 215.484375 237.574219 216.03125 236.660156 216.761719 236.933594 C 217.496094 237.210938 217.128906 237.210938 217.3125 237.394531 C 217.496094 237.574219 218.683594 239.039062 219.417969 239.773438 C 220.066406 240.675781 220.890625 241.378906 221.886719 241.875 C 222.796875 242.257812 223.742188 242.410156 224.722656 242.335938 L 228.75 242.335938 C 229.695312 242.4375 230.578125 242.253906 231.402344 241.785156 L 232.410156 241.144531 C 232.847656 240.957031 233.300781 240.890625 233.773438 240.9375 C 234.246094 240.988281 234.675781 241.148438 235.0625 241.417969 C 237.078125 242.425781 239.089844 244.164062 241.195312 243.339844 C 243.296875 242.515625 242.65625 242.242188 243.480469 241.875 C 244.640625 241.410156 245.832031 241.316406 247.050781 241.601562 C 249.796875 242.152344 252.265625 243.433594 254.917969 244.074219 C 260.042969 245.261719 265.441406 244.074219 270.566406 242.792969 C 271.042969 242.726562 271.4375 242.511719 271.753906 242.152344 C 271.839844 242.0625 271.898438 241.957031 271.929688 241.839844 C 271.960938 241.722656 271.964844 241.601562 271.9375 241.484375 C 271.910156 241.363281 271.855469 241.257812 271.773438 241.164062 C 271.695312 241.070312 271.59375 241.003906 271.480469 240.960938 L 270.839844 240.777344 C 268.277344 239.132812 264.617188 240.320312 261.964844 238.855469 C 261.375 238.429688 260.765625 238.03125 260.132812 237.667969 C 259.414062 237.355469 258.667969 237.257812 257.894531 237.375 C 257.117188 237.488281 256.429688 237.800781 255.832031 238.308594 C 255.652344 238.398438 255.46875 238.675781 255.195312 238.765625 C 254.785156 238.902344 254.378906 238.902344 253.972656 238.765625 C 253.566406 238.632812 253.242188 238.386719 252.996094 238.035156 C 252.554688 237.273438 252.191406 236.480469 251.898438 235.65625 C 251.78125 235.226562 251.554688 234.863281 251.226562 234.5625 C 250.894531 234.265625 250.507812 234.082031 250.070312 234.007812 C 248.695312 233.914062 247.324219 235.65625 246.042969 234.921875 C 245.609375 234.550781 245.304688 234.09375 245.128906 233.550781 C 244.761719 233.09375 244.214844 232.726562 243.757812 233 C 243.492188 233.203125 243.28125 233.445312 243.117188 233.734375 C 242.960938 233.84375 242.792969 233.925781 242.609375 233.96875 C 242.425781 234.015625 242.242188 234.027344 242.054688 234 C 241.867188 233.976562 241.691406 233.917969 241.523438 233.824219 C 241.359375 233.726562 241.21875 233.605469 241.101562 233.457031 C 240.628906 232.847656 240.261719 232.175781 240.003906 231.445312 C 239.675781 230.722656 239.125 230.265625 238.355469 230.074219 L 237.441406 230.074219 C 236.160156 230.074219 235.246094 229.066406 234.421875 228.152344 C 233.597656 227.238281 232.226562 226.414062 231.128906 227.054688 C 230.738281 227.222656 230.402344 227.464844 230.121094 227.785156 C 229.703125 228 229.253906 228.097656 228.785156 228.082031 C 228.3125 228.066406 227.875 227.9375 227.46875 227.695312 C 226.683594 227.160156 226.046875 226.488281 225.546875 225.679688 C 224.839844 224.523438 224.257812 223.300781 223.808594 222.019531 C 224.667969 221.84375 225.523438 221.84375 226.382812 222.015625 C 227.242188 222.191406 228.03125 222.527344 228.75 223.027344 C 229.203125 223.492188 229.753906 223.765625 230.398438 223.851562 C 231.402344 223.941406 232.226562 222.753906 233.234375 222.9375 C 234.238281 223.117188 234.421875 223.851562 235.0625 224.125 C 235.703125 224.398438 236.710938 224.125 237.625 224.035156 C 238.917969 223.9375 240.167969 224.121094 241.375 224.582031 C 244.671875 225.589844 247.964844 226.597656 251.167969 227.785156 C 254.160156 229.105469 257.269531 230.019531 260.5 230.53125 L 262.789062 230.53125 L 265.167969 229.796875 C 266.335938 229.492188 267.527344 229.371094 268.734375 229.433594 L 272.210938 229.433594 C 273.035156 229.339844 274.132812 229.25 274.410156 228.425781 C 274.683594 227.601562 273.675781 226.320312 272.671875 226.046875 Z M 198.648438 157.789062 L 199.195312 153.304688 C 199.160156 152.121094 199.3125 150.960938 199.652344 149.828125 C 200.292969 148.273438 206.148438 149.554688 206.148438 149.554688 C 205.417969 153.304688 203.679688 156.691406 201.941406 160.074219 C 201.785156 160.46875 201.511719 160.742188 201.117188 160.898438 C 200.84375 160.992188 200.566406 160.808594 200.292969 160.625 C 199.566406 160.335938 199.015625 159.851562 198.648438 159.160156 C 198.554688 158.703125 198.554688 158.246094 198.648438 157.789062 Z M 152.714844 239.039062 C 152.671875 239.777344 152.488281 240.480469 152.164062 241.144531 C 152 241.46875 151.761719 241.726562 151.445312 241.90625 C 151.128906 242.089844 150.789062 242.171875 150.425781 242.152344 L 149.417969 241.695312 C 148.289062 240.945312 147.3125 240.027344 146.492188 238.949219 C 145.757812 237.851562 145.027344 234.375 147.132812 234.554688 C 147.863281 234.554688 148.046875 235.015625 148.320312 234.097656 C 148.597656 233.183594 148.320312 231.996094 149.238281 231.535156 C 149.59375 231.394531 149.960938 231.375 150.335938 231.476562 C 150.707031 231.578125 151.011719 231.78125 151.25 232.085938 C 152.066406 233.039062 152.550781 234.136719 152.714844 235.378906 C 152.851562 236.601562 152.851562 237.820312 152.714844 239.039062 Z M 162.503906 245.171875 C 161.679688 245.171875 161.316406 243.980469 160.582031 243.523438 C 159.851562 243.066406 158.753906 243.433594 157.835938 242.972656 C 157.453125 242.722656 157.15625 242.390625 156.945312 241.984375 C 156.734375 241.578125 156.636719 241.144531 156.648438 240.6875 C 156.429688 239.570312 156.308594 238.441406 156.28125 237.300781 C 156.054688 236.457031 156.117188 235.632812 156.464844 234.832031 C 157.015625 233.640625 159.574219 233.734375 160.492188 234.28125 C 160.964844 234.738281 161.269531 235.285156 161.40625 235.929688 C 162.320312 238.949219 163.234375 242.058594 162.503906 245.171875 Z M 164.332031 214.152344 L 162.230469 213.878906 C 161.734375 213.769531 161.246094 213.796875 160.765625 213.96875 C 160.035156 214.152344 159.394531 214.882812 158.660156 215.066406 C 157.847656 215.214844 157.113281 215.03125 156.464844 214.519531 C 155.835938 214.03125 155.132812 213.695312 154.359375 213.511719 C 152.988281 213.238281 151.433594 214.242188 150.152344 213.511719 C 149.605469 213.183594 149.210938 212.726562 148.960938 212.140625 C 148.058594 210.660156 147.054688 209.257812 145.941406 207.929688 C 145.117188 206.921875 143.746094 205.550781 143.746094 204.085938 C 143.746094 202.621094 145.578125 202.621094 146.675781 202.898438 C 147.550781 203.277344 148.464844 203.429688 149.417969 203.355469 C 150.113281 202.953125 150.84375 202.648438 151.617188 202.441406 C 152.335938 202.410156 152.976562 202.621094 153.535156 203.082031 C 154.890625 203.640625 156.292969 203.824219 157.746094 203.628906 C 159.484375 203.355469 161.222656 202.441406 162.960938 202.898438 C 163.261719 202.960938 163.503906 203.113281 163.695312 203.355469 C 163.976562 203.703125 164.097656 204.097656 164.058594 204.542969 C 164.332031 207.742188 164.425781 210.945312 164.335938 214.152344 Z M 164.515625 180.113281 L 164.332031 180.113281 C 163.417969 180.296875 162.59375 179.566406 161.863281 179.015625 C 161.132812 178.46875 159.667969 178.007812 158.933594 177.1875 C 158.203125 176.363281 158.570312 174.988281 158.660156 174.167969 C 158.785156 173.234375 159.214844 172.472656 159.941406 171.878906 C 160.3125 171.605469 160.726562 171.445312 161.1875 171.394531 C 161.644531 171.347656 162.082031 171.417969 162.503906 171.605469 C 163.359375 171.996094 163.9375 172.636719 164.242188 173.527344 C 164.46875 174.148438 164.5625 174.789062 164.515625 175.449219 Z M 181.535156 135.371094 C 181.71875 133.539062 181.992188 131.710938 182.269531 129.972656 C 182.308594 128.519531 182.492188 127.085938 182.816406 125.671875 C 183.183594 124.664062 184.371094 124.300781 185.46875 124.117188 C 185.621094 123.992188 185.777344 123.992188 185.929688 124.117188 C 186.109375 124.207031 186.109375 124.390625 186.203125 124.574219 C 186.359375 125.605469 186.417969 126.640625 186.386719 127.683594 C 186.476562 130.0625 186.476562 132.441406 186.476562 134.820312 C 185.015625 135.097656 183.613281 135.554688 182.269531 136.195312 L 181.808594 136.195312 C 181.535156 136.195312 181.445312 135.738281 181.535156 135.371094 Z M 179.429688 146.808594 C 180.164062 146.351562 185.5625 145.710938 185.5625 146.257812 C 185.746094 149.554688 184.371094 152.753906 184.648438 155.957031 C 184.761719 156.304688 184.730469 156.640625 184.554688 156.964844 C 184.261719 157.207031 183.925781 157.296875 183.550781 157.238281 L 179.890625 157.238281 C 179.429688 155.5 178.609375 153.851562 178.242188 152.113281 C 177.875 150.375 177.691406 147.816406 179.429688 146.808594 Z M 167.992188 174.53125 C 168.632812 173.160156 170.554688 172.335938 171.746094 171.605469 C 172.933594 170.871094 172.933594 170.871094 173.484375 171.238281 C 174.03125 171.605469 173.851562 171.878906 173.941406 172.246094 C 174.523438 174.742188 174.828125 177.273438 174.855469 179.839844 C 174.855469 180.296875 174.855469 180.753906 174.492188 181.027344 C 174.238281 181.195312 173.964844 181.253906 173.667969 181.210938 L 172.113281 181.210938 C 170.832031 181.210938 169.273438 181.121094 168.632812 180.023438 C 168.457031 179.707031 168.335938 179.371094 168.269531 179.015625 C 167.902344 177.828125 167.445312 175.8125 167.992188 174.53125 Z M 175.953125 214.335938 C 175.863281 214.425781 175.863281 214.609375 175.769531 214.699219 L 175.222656 214.882812 C 174.347656 214.898438 173.496094 214.777344 172.660156 214.519531 L 170.648438 213.511719 L 169.824219 213.054688 C 169.460938 212.648438 169.1875 212.191406 169 211.679688 C 168.554688 210.796875 168.191406 209.882812 167.902344 208.9375 C 167.359375 207.335938 167.085938 205.6875 167.078125 203.996094 C 167.019531 203.390625 167.109375 202.8125 167.351562 202.257812 C 167.839844 201.710938 168.453125 201.4375 169.183594 201.433594 C 169.527344 201.367188 169.863281 201.398438 170.191406 201.523438 C 171.386719 201.886719 172.546875 202.34375 173.667969 202.898438 L 174.492188 203.539062 C 174.785156 203.777344 174.96875 204.082031 175.039062 204.453125 C 175.757812 205.996094 176.195312 207.617188 176.355469 209.316406 C 176.511719 211.011719 176.378906 212.683594 175.953125 214.335938 Z M 176.6875 156.140625 C 176.671875 156.386719 176.582031 156.601562 176.410156 156.78125 C 176.25 156.957031 176.054688 157.078125 175.824219 157.144531 C 175.59375 157.210938 175.363281 157.210938 175.132812 157.148438 C 174.699219 156.921875 174.242188 156.828125 173.757812 156.871094 C 172.660156 156.871094 172.113281 157.972656 171.5625 158.792969 C 171.011719 159.617188 171.289062 159.253906 171.105469 159.160156 L 170.921875 158.886719 C 170.65625 158.019531 170.535156 157.136719 170.554688 156.234375 C 170.46875 155 170.285156 153.777344 170.007812 152.574219 C 169.734375 151.65625 169 150.46875 169.09375 149.460938 C 169.183594 148.453125 169.914062 148.273438 170.648438 147.996094 C 171.378906 147.722656 173.757812 147.355469 174.125 147.90625 C 175.589844 150.46875 177.050781 153.214844 176.6875 156.140625 Z M 176.503906 135.738281 C 176.058594 135.21875 175.722656 134.640625 175.496094 133.996094 C 174.914062 132.628906 174.425781 131.226562 174.03125 129.789062 C 173.667969 128.78125 173.117188 127.5 173.390625 126.402344 C 173.667969 125.304688 177.691406 123.839844 178.789062 125.304688 C 178.980469 125.613281 179.074219 125.949219 179.066406 126.3125 C 179.109375 127.480469 179.019531 128.640625 178.789062 129.789062 C 178.609375 131.710938 178.699219 133.722656 178.699219 135.738281 C 178.714844 135.871094 178.683594 135.992188 178.609375 136.101562 L 178.332031 136.285156 C 178 136.363281 177.671875 136.351562 177.34375 136.253906 C 177.019531 136.15625 176.738281 135.984375 176.503906 135.738281 Z M 178.609375 172.335938 C 180.253906 171.421875 183.089844 172.886719 184.28125 173.984375 L 185.011719 174.808594 C 185.117188 175.132812 185.179688 175.46875 185.195312 175.8125 C 185.484375 178.1875 185.546875 180.566406 185.378906 182.949219 C 184.695312 181.988281 183.871094 181.164062 182.910156 180.480469 C 181.921875 179.765625 180.820312 179.492188 179.613281 179.65625 L 179.15625 179.65625 C 178.789062 179.566406 178.699219 179.109375 178.609375 178.832031 C 178.335938 177.503906 178.152344 176.160156 178.058594 174.808594 C 178.058594 174.074219 177.691406 172.792969 178.609375 172.335938 Z M 186.933594 203.539062 C 186.660156 205.09375 186.386719 206.648438 186.203125 208.203125 C 186.136719 208.589844 186.015625 208.953125 185.835938 209.300781 C 185.449219 210.019531 184.867188 210.507812 184.097656 210.765625 L 181.445312 212.046875 C 181.277344 212.167969 181.09375 212.195312 180.894531 212.140625 C 180.710938 212.140625 180.53125 211.863281 180.4375 211.679688 C 179.441406 209.347656 178.679688 206.9375 178.152344 204.453125 C 178.058594 203.8125 177.96875 202.988281 178.425781 202.53125 C 178.882812 202.074219 179.707031 201.984375 180.253906 201.707031 C 180.804688 201.433594 182.175781 199.238281 183.457031 199.328125 C 184.8125 199.53125 185.910156 200.167969 186.75 201.25 C 187.050781 201.992188 187.113281 202.757812 186.933594 203.539062 Z M 189.039062 152.113281 C 189.222656 151.109375 189.40625 149.554688 190.320312 148.820312 C 191.125 148.382812 191.976562 148.230469 192.882812 148.363281 C 193.613281 148.363281 194.621094 148.179688 194.988281 148.820312 C 195.140625 149.5625 195.109375 150.292969 194.894531 151.015625 L 193.246094 159.527344 C 193.15625 159.710938 193.15625 159.984375 192.972656 160.167969 C 192.785156 160.339844 192.558594 160.4375 192.304688 160.453125 C 192.046875 160.472656 191.8125 160.40625 191.601562 160.257812 C 191.214844 159.976562 190.851562 159.671875 190.503906 159.34375 C 189.953125 158.886719 189.128906 158.519531 188.855469 157.878906 C 188.75 157.582031 188.691406 157.277344 188.671875 156.964844 C 188.65625 155.335938 188.78125 153.722656 189.039062 152.113281 Z M 188.398438 174.074219 C 189.3125 172.519531 191.601562 173.433594 192.789062 174.074219 C 193.578125 174.40625 194.15625 174.953125 194.527344 175.722656 C 194.679688 176.167969 194.742188 176.625 194.710938 177.09375 C 194.710938 177.917969 194.710938 178.832031 194.621094 179.746094 C 194.585938 180.347656 194.464844 180.925781 194.253906 181.488281 L 193.429688 182.492188 L 191.328125 184.507812 C 191.144531 184.78125 190.777344 185.054688 190.503906 184.871094 C 190.230469 184.746094 190.109375 184.53125 190.136719 184.230469 C 189.679688 182.675781 189.222656 181.027344 188.855469 179.472656 C 188.488281 177.917969 187.667969 175.628906 188.398438 174.074219 Z M 190.046875 211.679688 C 189.683594 211.582031 189.410156 211.367188 189.222656 211.039062 C 188.875 210.425781 188.816406 209.785156 189.039062 209.121094 C 189.664062 206.457031 190.425781 203.832031 191.328125 201.25 C 191.601562 200.425781 191.785156 199.421875 192.609375 198.964844 C 193.332031 198.621094 194.09375 198.46875 194.894531 198.503906 C 196.175781 202.621094 195.992188 207.746094 195.261719 211.957031 C 195.1875 212.382812 195.035156 212.78125 194.804688 213.144531 C 194.417969 213.433594 193.992188 213.527344 193.523438 213.421875 L 192.242188 212.960938 Z M 199.46875 231.71875 C 199.195312 233.09375 198.648438 234.464844 198.28125 235.835938 C 197.867188 237.324219 197.316406 238.757812 196.632812 240.136719 C 196.449219 240.414062 196.265625 240.777344 195.902344 240.777344 C 195.535156 240.777344 195.445312 240.503906 195.261719 240.230469 C 195.078125 239.953125 193.523438 237.484375 192.789062 236.113281 C 192.335938 235.316406 192.0625 234.460938 191.96875 233.550781 C 192.03125 232.898438 192.238281 232.296875 192.59375 231.75 C 192.949219 231.199219 193.410156 230.761719 193.980469 230.4375 C 195.535156 229.617188 200.019531 228.609375 199.46875 231.71875 Z M 198.828125 213.238281 C 198.828125 213.238281 199.195312 208.84375 199.195312 208.480469 C 199.195312 208.113281 199.378906 205.640625 199.46875 204.179688 C 199.347656 202.714844 199.320312 201.253906 199.378906 199.785156 C 199.5625 198.6875 200.292969 198.6875 201.300781 198.597656 C 202.65625 198.433594 203.96875 198.097656 205.234375 197.589844 C 205.355469 200.308594 205.296875 203.023438 205.050781 205.734375 C 204.992188 207.992188 204.59375 210.1875 203.863281 212.320312 L 203.585938 212.78125 C 203.40625 212.960938 203.222656 212.960938 202.945312 213.054688 C 201.585938 213.34375 200.210938 213.40625 198.828125 213.238281 Z M 209.992188 234.554688 C 209.691406 235.621094 209.140625 236.535156 208.34375 237.300781 C 206.769531 239.058594 205.0625 240.675781 203.222656 242.152344 C 203.3125 241.386719 203.3125 240.625 203.222656 239.863281 C 203.222656 239.132812 203.3125 238.308594 203.3125 237.574219 C 203.3125 236.84375 203.585938 234.464844 203.863281 232.910156 C 204.136719 231.355469 204.59375 231.261719 205.875 231.71875 C 207.21875 232.175781 208.46875 232.816406 209.625 233.640625 L 209.992188 234.007812 C 210.085938 234.191406 209.992188 234.375 209.992188 234.554688 Z M 209.992188 234.554688 " fill-opacity="1" fill-rule="nonzero"/></g></g></svg>