<svg xmlns="http://www.w3.org/2000/svg" xmlns:xlink="http://www.w3.org/1999/xlink" width="500" zoomAndPan="magnify" viewBox="0 0 375 374.999991" height="500" preserveAspectRatio="xMidYMid meet" version="1.0"><defs><g/><clipPath id="92b0ffa4b7"><path d="M 75.628906 69.097656 L 287.878906 69.097656 L 287.878906 293.347656 L 75.628906 293.347656 Z M 75.628906 69.097656 " clip-rule="nonzero"/></clipPath></defs><g clip-path="url(#92b0ffa4b7)"><path fill="#e0b79e" d="M 181.691406 293.367188 C 123.371094 293.367188 75.628906 245.625 75.628906 187.304688 L 75.628906 175.289062 C 75.628906 116.96875 123.371094 69.230469 181.691406 69.230469 C 240.011719 69.230469 287.753906 116.96875 287.753906 175.289062 L 287.753906 187.304688 C 287.796875 245.625 240.054688 293.367188 181.691406 293.367188 Z M 181.691406 293.367188 " fill-opacity="1" fill-rule="nonzero"/></g><g fill="#42312b" fill-opacity="1"><g transform="translate(106.234824, 203.799736)"><g><path d="M 12.773438 -149.003906 L 12.773438 -146.875 L 25.542969 -146.875 L 25.542969 -2.128906 L 12.773438 -2.128906 L 12.773438 0 L 61.730469 0 L 61.730469 -2.128906 L 48.957031 -2.128906 L 48.957031 -72.371094 L 78.757812 -72.371094 L 78.757812 -53.214844 L 80.886719 -53.214844 L 80.886719 -93.660156 L 78.757812 -93.660156 L 78.757812 -74.5 L 48.957031 -74.5 L 48.957031 -146.875 L 87.273438 -146.875 L 102.171875 -106.429688 L 104.300781 -106.429688 L 104.300781 -149.003906 Z M 12.773438 -149.003906 "/></g></g></g><g fill="#42312b" fill-opacity="1"><g transform="translate(143.398976, 309.226464)"><g><path d="M 122.488281 -2.1875 L 68.898438 -153.109375 L 64.523438 -153.109375 L 13.125 -2.1875 L -4.375 -2.1875 L -4.375 0 L 32.808594 0 L 32.808594 -2.1875 L 15.3125 -2.1875 L 28.652344 -41.558594 L 82.023438 -41.558594 L 96.238281 -2.1875 L 83.117188 -2.1875 L 83.117188 0 L 135.609375 0 L 135.609375 -2.1875 Z M 29.527344 -43.746094 L 54.683594 -118.113281 L 80.929688 -43.746094 Z M 29.527344 -43.746094 "/></g></g></g><path fill="#e0b79e" d="M 99.796875 221.625 L 264.46875 221.625 C 266.566406 221.625 268.578125 222.457031 270.058594 223.9375 C 271.542969 225.421875 272.375 227.433594 272.375 229.527344 L 272.375 235.375 C 272.375 237.472656 271.542969 239.484375 270.058594 240.964844 C 268.578125 242.449219 266.566406 243.28125 264.46875 243.28125 L 99.796875 243.28125 C 97.699219 243.28125 95.6875 242.449219 94.207031 240.964844 C 92.722656 239.484375 91.890625 237.472656 91.890625 235.375 L 91.890625 229.527344 C 91.890625 227.433594 92.722656 225.421875 94.207031 223.9375 C 95.6875 222.457031 97.699219 221.625 99.796875 221.625 Z M 99.796875 221.625 " fill-opacity="1" fill-rule="nonzero"/><g fill="#42312b" fill-opacity="1"><g transform="translate(95.842381, 236.577625)"><g><path d="M 7.203125 -7.78125 C 7.203125 -7.75 7.175781 -7.726562 7.125 -7.71875 C 7.070312 -7.71875 7.039062 -7.734375 7.03125 -7.765625 C 7 -8.328125 6.828125 -8.765625 6.515625 -9.078125 C 6.210938 -9.390625 5.8125 -9.546875 5.3125 -9.546875 L 4.34375 -9.546875 C 3.988281 -9.546875 3.71875 -9.519531 3.53125 -9.46875 C 3.351562 -9.414062 3.226562 -9.316406 3.15625 -9.171875 C 3.09375 -9.035156 3.0625 -8.835938 3.0625 -8.578125 L 3.0625 -5.125 L 4.65625 -5.125 C 5.21875 -5.125 5.613281 -5.207031 5.84375 -5.375 C 6.082031 -5.550781 6.203125 -5.832031 6.203125 -6.21875 C 6.203125 -6.238281 6.234375 -6.25 6.296875 -6.25 C 6.359375 -6.25 6.390625 -6.238281 6.390625 -6.21875 L 6.375 -4.9375 C 6.375 -4.632812 6.378906 -4.40625 6.390625 -4.25 L 6.40625 -3.484375 C 6.40625 -3.460938 6.375 -3.453125 6.3125 -3.453125 C 6.25 -3.453125 6.21875 -3.460938 6.21875 -3.484375 C 6.21875 -3.953125 6.09375 -4.285156 5.84375 -4.484375 C 5.601562 -4.679688 5.191406 -4.78125 4.609375 -4.78125 L 3.0625 -4.78125 L 3.0625 -1.34375 C 3.0625 -1.007812 3.101562 -0.765625 3.1875 -0.609375 C 3.28125 -0.453125 3.457031 -0.34375 3.71875 -0.28125 C 3.988281 -0.21875 4.40625 -0.1875 4.96875 -0.1875 C 5 -0.1875 5.015625 -0.15625 5.015625 -0.09375 C 5.015625 -0.03125 5 0 4.96875 0 C 4.539062 0 4.207031 -0.00390625 3.96875 -0.015625 L 2.546875 -0.03125 L 1.46875 -0.015625 C 1.28125 -0.00390625 1.007812 0 0.65625 0 C 0.632812 0 0.625 -0.03125 0.625 -0.09375 C 0.625 -0.15625 0.632812 -0.1875 0.65625 -0.1875 C 1.0625 -0.1875 1.359375 -0.210938 1.546875 -0.265625 C 1.734375 -0.316406 1.859375 -0.421875 1.921875 -0.578125 C 1.992188 -0.734375 2.03125 -0.96875 2.03125 -1.28125 L 2.03125 -8.59375 C 2.03125 -8.90625 1.992188 -9.132812 1.921875 -9.28125 C 1.859375 -9.4375 1.734375 -9.539062 1.546875 -9.59375 C 1.367188 -9.65625 1.078125 -9.6875 0.671875 -9.6875 C 0.648438 -9.6875 0.640625 -9.71875 0.640625 -9.78125 C 0.640625 -9.84375 0.648438 -9.875 0.671875 -9.875 L 7.03125 -9.875 C 7.125 -9.875 7.171875 -9.828125 7.171875 -9.734375 Z M 7.203125 -7.78125 "/></g></g></g><g fill="#42312b" fill-opacity="1"><g transform="translate(105.969181, 236.577625)"><g><path d="M 10.796875 -0.1875 C 10.816406 -0.1875 10.828125 -0.15625 10.828125 -0.09375 C 10.828125 -0.03125 10.816406 0 10.796875 0 L 8.75 0 C 8.488281 0 7.992188 -0.4375 7.265625 -1.3125 C 6.535156 -2.1875 5.671875 -3.382812 4.671875 -4.90625 C 4.390625 -4.84375 4.097656 -4.8125 3.796875 -4.8125 C 3.734375 -4.8125 3.492188 -4.828125 3.078125 -4.859375 L 3.078125 -1.28125 C 3.078125 -0.957031 3.109375 -0.71875 3.171875 -0.5625 C 3.234375 -0.414062 3.359375 -0.316406 3.546875 -0.265625 C 3.734375 -0.210938 4.023438 -0.1875 4.421875 -0.1875 C 4.453125 -0.1875 4.46875 -0.15625 4.46875 -0.09375 C 4.46875 -0.03125 4.453125 0 4.421875 0 C 4.097656 0 3.84375 -0.00390625 3.65625 -0.015625 L 2.5625 -0.03125 L 1.484375 -0.015625 C 1.296875 -0.00390625 1.023438 0 0.671875 0 C 0.648438 0 0.640625 -0.03125 0.640625 -0.09375 C 0.640625 -0.15625 0.648438 -0.1875 0.671875 -0.1875 C 1.078125 -0.1875 1.375 -0.210938 1.5625 -0.265625 C 1.75 -0.316406 1.875 -0.421875 1.9375 -0.578125 C 2.007812 -0.734375 2.046875 -0.96875 2.046875 -1.28125 L 2.046875 -8.59375 C 2.046875 -8.90625 2.015625 -9.132812 1.953125 -9.28125 C 1.890625 -9.4375 1.765625 -9.539062 1.578125 -9.59375 C 1.398438 -9.65625 1.109375 -9.6875 0.703125 -9.6875 C 0.671875 -9.6875 0.65625 -9.71875 0.65625 -9.78125 C 0.65625 -9.84375 0.671875 -9.875 0.703125 -9.875 L 1.484375 -9.859375 C 1.921875 -9.835938 2.28125 -9.828125 2.5625 -9.828125 C 2.789062 -9.828125 3.003906 -9.832031 3.203125 -9.84375 C 3.398438 -9.851562 3.570312 -9.863281 3.71875 -9.875 C 4.101562 -9.90625 4.453125 -9.921875 4.765625 -9.921875 C 5.597656 -9.921875 6.238281 -9.726562 6.6875 -9.34375 C 7.144531 -8.96875 7.375 -8.460938 7.375 -7.828125 C 7.375 -7.265625 7.207031 -6.753906 6.875 -6.296875 C 6.539062 -5.835938 6.101562 -5.476562 5.5625 -5.21875 C 6.445312 -3.9375 7.191406 -2.9375 7.796875 -2.21875 C 8.398438 -1.5 8.9375 -0.976562 9.40625 -0.65625 C 9.875 -0.34375 10.335938 -0.1875 10.796875 -0.1875 Z M 3.078125 -5.25 C 3.335938 -5.207031 3.648438 -5.1875 4.015625 -5.1875 C 4.835938 -5.1875 5.421875 -5.363281 5.765625 -5.71875 C 6.117188 -6.070312 6.296875 -6.625 6.296875 -7.375 C 6.296875 -8.195312 6.113281 -8.785156 5.75 -9.140625 C 5.394531 -9.503906 4.867188 -9.6875 4.171875 -9.6875 C 3.753906 -9.6875 3.46875 -9.609375 3.3125 -9.453125 C 3.15625 -9.304688 3.078125 -9.007812 3.078125 -8.5625 Z M 3.078125 -5.25 "/></g></g></g><g fill="#42312b" fill-opacity="1"><g transform="translate(118.686684, 236.577625)"><g><path d="M 7.5 -2.359375 C 7.5 -2.378906 7.519531 -2.390625 7.5625 -2.390625 C 7.59375 -2.390625 7.617188 -2.382812 7.640625 -2.375 C 7.671875 -2.363281 7.6875 -2.347656 7.6875 -2.328125 C 7.59375 -1.660156 7.546875 -0.960938 7.546875 -0.234375 C 7.546875 -0.148438 7.523438 -0.0859375 7.484375 -0.046875 C 7.453125 -0.015625 7.390625 0 7.296875 0 L 0.671875 0 C 0.648438 0 0.640625 -0.03125 0.640625 -0.09375 C 0.640625 -0.15625 0.648438 -0.1875 0.671875 -0.1875 C 1.078125 -0.1875 1.367188 -0.210938 1.546875 -0.265625 C 1.734375 -0.316406 1.859375 -0.421875 1.921875 -0.578125 C 1.992188 -0.734375 2.03125 -0.96875 2.03125 -1.28125 L 2.03125 -8.59375 C 2.03125 -8.90625 1.992188 -9.132812 1.921875 -9.28125 C 1.859375 -9.4375 1.734375 -9.539062 1.546875 -9.59375 C 1.367188 -9.65625 1.078125 -9.6875 0.671875 -9.6875 C 0.648438 -9.6875 0.640625 -9.71875 0.640625 -9.78125 C 0.640625 -9.84375 0.648438 -9.875 0.671875 -9.875 L 7.03125 -9.875 C 7.125 -9.875 7.171875 -9.828125 7.171875 -9.734375 L 7.203125 -7.78125 C 7.203125 -7.75 7.175781 -7.726562 7.125 -7.71875 C 7.070312 -7.71875 7.039062 -7.734375 7.03125 -7.765625 C 7 -8.328125 6.828125 -8.765625 6.515625 -9.078125 C 6.210938 -9.390625 5.8125 -9.546875 5.3125 -9.546875 L 4.34375 -9.546875 C 3.976562 -9.546875 3.707031 -9.515625 3.53125 -9.453125 C 3.351562 -9.398438 3.226562 -9.300781 3.15625 -9.15625 C 3.09375 -9.007812 3.0625 -8.796875 3.0625 -8.515625 L 3.0625 -5.3125 L 4.984375 -5.3125 C 5.492188 -5.3125 5.851562 -5.394531 6.0625 -5.5625 C 6.28125 -5.726562 6.390625 -6.007812 6.390625 -6.40625 C 6.390625 -6.425781 6.421875 -6.4375 6.484375 -6.4375 C 6.554688 -6.4375 6.59375 -6.425781 6.59375 -6.40625 L 6.578125 -5.140625 C 6.578125 -4.828125 6.582031 -4.59375 6.59375 -4.4375 L 6.609375 -3.6875 C 6.609375 -3.664062 6.570312 -3.65625 6.5 -3.65625 C 6.4375 -3.65625 6.40625 -3.664062 6.40625 -3.6875 C 6.40625 -4.144531 6.289062 -4.472656 6.0625 -4.671875 C 5.84375 -4.867188 5.46875 -4.96875 4.9375 -4.96875 L 3.0625 -4.96875 L 3.0625 -1.34375 C 3.0625 -1.050781 3.09375 -0.832031 3.15625 -0.6875 C 3.21875 -0.550781 3.332031 -0.457031 3.5 -0.40625 C 3.675781 -0.351562 3.941406 -0.328125 4.296875 -0.328125 L 5.5625 -0.328125 C 6.0625 -0.328125 6.476562 -0.503906 6.8125 -0.859375 C 7.15625 -1.222656 7.382812 -1.722656 7.5 -2.359375 Z M 7.5 -2.359375 "/></g></g></g><g fill="#42312b" fill-opacity="1"><g transform="translate(129.255797, 236.577625)"><g><path d="M 11.125 -9.875 C 11.15625 -9.875 11.171875 -9.84375 11.171875 -9.78125 C 11.171875 -9.71875 11.15625 -9.6875 11.125 -9.6875 C 10.675781 -9.6875 10.351562 -9.5625 10.15625 -9.3125 C 9.957031 -9.070312 9.859375 -8.679688 9.859375 -8.140625 L 9.859375 0.1875 C 9.859375 0.207031 9.832031 0.222656 9.78125 0.234375 C 9.726562 0.242188 9.691406 0.238281 9.671875 0.21875 L 2.40625 -8.578125 L 2.265625 -8.734375 L 2.265625 -1.71875 C 2.265625 -1.175781 2.359375 -0.785156 2.546875 -0.546875 C 2.742188 -0.304688 3.054688 -0.1875 3.484375 -0.1875 C 3.515625 -0.1875 3.53125 -0.15625 3.53125 -0.09375 C 3.53125 -0.03125 3.515625 0 3.484375 0 C 3.222656 0 3.023438 -0.00390625 2.890625 -0.015625 L 2.09375 -0.03125 L 1.296875 -0.015625 C 1.148438 -0.00390625 0.929688 0 0.640625 0 C 0.617188 0 0.609375 -0.03125 0.609375 -0.09375 C 0.609375 -0.15625 0.617188 -0.1875 0.640625 -0.1875 C 1.097656 -0.1875 1.421875 -0.304688 1.609375 -0.546875 C 1.796875 -0.785156 1.890625 -1.175781 1.890625 -1.71875 L 1.890625 -9.109375 C 1.484375 -9.492188 1.066406 -9.6875 0.640625 -9.6875 C 0.609375 -9.6875 0.59375 -9.71875 0.59375 -9.78125 C 0.59375 -9.84375 0.609375 -9.875 0.640625 -9.875 L 1.234375 -9.859375 C 1.359375 -9.847656 1.53125 -9.84375 1.75 -9.84375 C 1.976562 -9.84375 2.164062 -9.847656 2.3125 -9.859375 C 2.46875 -9.867188 2.585938 -9.875 2.671875 -9.875 C 2.753906 -9.875 2.8125 -9.851562 2.84375 -9.8125 C 2.882812 -9.78125 2.945312 -9.703125 3.03125 -9.578125 C 3.15625 -9.378906 3.28125 -9.203125 3.40625 -9.046875 L 9.5 -1.578125 L 9.5 -8.140625 C 9.5 -8.679688 9.40625 -9.070312 9.21875 -9.3125 C 9.03125 -9.5625 8.722656 -9.6875 8.296875 -9.6875 C 8.273438 -9.6875 8.265625 -9.71875 8.265625 -9.78125 C 8.265625 -9.84375 8.273438 -9.875 8.296875 -9.875 L 8.90625 -9.859375 C 9.226562 -9.835938 9.488281 -9.828125 9.6875 -9.828125 C 9.875 -9.828125 10.132812 -9.835938 10.46875 -9.859375 Z M 11.125 -9.875 "/></g></g></g><g fill="#42312b" fill-opacity="1"><g transform="translate(142.826332, 236.577625)"><g><path d="M 6.5 -10.046875 C 7.15625 -10.046875 7.707031 -10 8.15625 -9.90625 C 8.613281 -9.8125 9.070312 -9.648438 9.53125 -9.421875 C 9.601562 -9.378906 9.644531 -9.335938 9.65625 -9.296875 C 9.664062 -9.265625 9.679688 -9.1875 9.703125 -9.0625 L 9.890625 -7.1875 C 9.890625 -7.15625 9.859375 -7.132812 9.796875 -7.125 C 9.742188 -7.125 9.710938 -7.140625 9.703125 -7.171875 C 9.210938 -8.929688 8.125 -9.8125 6.4375 -9.8125 C 5.5625 -9.8125 4.785156 -9.613281 4.109375 -9.21875 C 3.429688 -8.832031 2.90625 -8.28125 2.53125 -7.5625 C 2.164062 -6.84375 1.984375 -6.003906 1.984375 -5.046875 C 1.984375 -4.128906 2.1875 -3.285156 2.59375 -2.515625 C 3 -1.753906 3.546875 -1.148438 4.234375 -0.703125 C 4.929688 -0.265625 5.6875 -0.046875 6.5 -0.046875 C 7.351562 -0.046875 8.050781 -0.253906 8.59375 -0.671875 C 9.132812 -1.097656 9.546875 -1.742188 9.828125 -2.609375 C 9.828125 -2.628906 9.851562 -2.640625 9.90625 -2.640625 C 9.976562 -2.640625 10.015625 -2.625 10.015625 -2.59375 L 9.859375 -0.859375 C 9.847656 -0.722656 9.832031 -0.640625 9.8125 -0.609375 C 9.789062 -0.578125 9.75 -0.539062 9.6875 -0.5 C 9.132812 -0.238281 8.617188 -0.0546875 8.140625 0.046875 C 7.660156 0.148438 7.113281 0.203125 6.5 0.203125 C 5.382812 0.203125 4.394531 -0.015625 3.53125 -0.453125 C 2.664062 -0.890625 1.988281 -1.5 1.5 -2.28125 C 1.019531 -3.070312 0.78125 -3.976562 0.78125 -5 C 0.78125 -6 1.023438 -6.878906 1.515625 -7.640625 C 2.015625 -8.398438 2.695312 -8.988281 3.5625 -9.40625 C 4.425781 -9.832031 5.40625 -10.046875 6.5 -10.046875 Z M 6.5 -10.046875 "/></g></g></g><g fill="#42312b" fill-opacity="1"><g transform="translate(155.7492, 236.577625)"><g><path d="M 11.40625 -0.1875 C 11.4375 -0.1875 11.453125 -0.15625 11.453125 -0.09375 C 11.453125 -0.03125 11.4375 0 11.40625 0 C 11.082031 0 10.820312 -0.00390625 10.625 -0.015625 L 9.546875 -0.03125 L 8.375 -0.015625 C 8.195312 -0.00390625 7.945312 0 7.625 0 C 7.59375 0 7.578125 -0.03125 7.578125 -0.09375 C 7.578125 -0.15625 7.59375 -0.1875 7.625 -0.1875 C 8.039062 -0.1875 8.34375 -0.210938 8.53125 -0.265625 C 8.71875 -0.316406 8.84375 -0.421875 8.90625 -0.578125 C 8.976562 -0.734375 9.015625 -0.96875 9.015625 -1.28125 L 9.015625 -4.96875 L 2.953125 -4.96875 L 2.953125 -1.28125 C 2.953125 -0.96875 2.984375 -0.734375 3.046875 -0.578125 C 3.117188 -0.421875 3.25 -0.316406 3.4375 -0.265625 C 3.632812 -0.210938 3.9375 -0.1875 4.34375 -0.1875 C 4.363281 -0.1875 4.375 -0.15625 4.375 -0.09375 C 4.375 -0.03125 4.363281 0 4.34375 0 C 4.019531 0 3.757812 -0.00390625 3.5625 -0.015625 L 2.4375 -0.03125 L 1.34375 -0.015625 C 1.15625 -0.00390625 0.890625 0 0.546875 0 C 0.523438 0 0.515625 -0.03125 0.515625 -0.09375 C 0.515625 -0.15625 0.523438 -0.1875 0.546875 -0.1875 C 0.953125 -0.1875 1.25 -0.210938 1.4375 -0.265625 C 1.632812 -0.316406 1.765625 -0.421875 1.828125 -0.578125 C 1.898438 -0.734375 1.9375 -0.96875 1.9375 -1.28125 L 1.9375 -8.59375 C 1.9375 -8.90625 1.898438 -9.132812 1.828125 -9.28125 C 1.765625 -9.4375 1.640625 -9.539062 1.453125 -9.59375 C 1.265625 -9.65625 0.96875 -9.6875 0.5625 -9.6875 C 0.539062 -9.6875 0.53125 -9.71875 0.53125 -9.78125 C 0.53125 -9.84375 0.539062 -9.875 0.5625 -9.875 L 1.375 -9.859375 C 1.8125 -9.835938 2.164062 -9.828125 2.4375 -9.828125 C 2.738281 -9.828125 3.117188 -9.835938 3.578125 -9.859375 L 4.34375 -9.875 C 4.363281 -9.875 4.375 -9.84375 4.375 -9.78125 C 4.375 -9.71875 4.363281 -9.6875 4.34375 -9.6875 C 3.945312 -9.6875 3.648438 -9.65625 3.453125 -9.59375 C 3.253906 -9.53125 3.117188 -9.421875 3.046875 -9.265625 C 2.984375 -9.109375 2.953125 -8.875 2.953125 -8.5625 L 2.953125 -5.3125 L 9.015625 -5.3125 L 9.015625 -8.5625 C 9.015625 -8.875 8.976562 -9.109375 8.90625 -9.265625 C 8.84375 -9.421875 8.71875 -9.53125 8.53125 -9.59375 C 8.34375 -9.65625 8.039062 -9.6875 7.625 -9.6875 C 7.59375 -9.6875 7.578125 -9.71875 7.578125 -9.78125 C 7.578125 -9.84375 7.59375 -9.875 7.625 -9.875 L 8.375 -9.859375 C 8.832031 -9.835938 9.222656 -9.828125 9.546875 -9.828125 C 9.828125 -9.828125 10.1875 -9.835938 10.625 -9.859375 L 11.40625 -9.875 C 11.4375 -9.875 11.453125 -9.84375 11.453125 -9.78125 C 11.453125 -9.71875 11.4375 -9.6875 11.40625 -9.6875 C 11.007812 -9.6875 10.710938 -9.65625 10.515625 -9.59375 C 10.328125 -9.539062 10.195312 -9.4375 10.125 -9.28125 C 10.0625 -9.132812 10.03125 -8.90625 10.03125 -8.59375 L 10.03125 -1.28125 C 10.03125 -0.96875 10.0625 -0.734375 10.125 -0.578125 C 10.195312 -0.421875 10.328125 -0.316406 10.515625 -0.265625 C 10.710938 -0.210938 11.007812 -0.1875 11.40625 -0.1875 Z M 11.40625 -0.1875 "/></g></g></g><g fill="#42312b" fill-opacity="1"><g transform="translate(169.825243, 236.577625)"><g/></g></g><g fill="#42312b" fill-opacity="1"><g transform="translate(175.60788, 236.577625)"><g><path d="M 11.015625 -0.1875 C 11.054688 -0.175781 11.070312 -0.140625 11.0625 -0.078125 C 11.0625 -0.0234375 11.046875 0 11.015625 0 L 9.296875 0 C 8.828125 0 8.109375 -0.375 7.140625 -1.125 C 6.285156 -0.25 5.222656 0.1875 3.953125 0.1875 C 3.296875 0.1875 2.75 0.078125 2.3125 -0.140625 C 1.875 -0.359375 1.546875 -0.644531 1.328125 -1 C 1.117188 -1.363281 1.015625 -1.753906 1.015625 -2.171875 C 1.015625 -2.765625 1.195312 -3.285156 1.5625 -3.734375 C 1.9375 -4.179688 2.476562 -4.664062 3.1875 -5.1875 C 3 -5.46875 2.847656 -5.726562 2.734375 -5.96875 C 2.429688 -6.644531 2.28125 -7.21875 2.28125 -7.6875 C 2.28125 -8.144531 2.390625 -8.566406 2.609375 -8.953125 C 2.828125 -9.335938 3.132812 -9.640625 3.53125 -9.859375 C 3.9375 -10.085938 4.390625 -10.203125 4.890625 -10.203125 C 5.398438 -10.203125 5.835938 -10.082031 6.203125 -9.84375 C 6.566406 -9.601562 6.75 -9.203125 6.75 -8.640625 C 6.75 -8.234375 6.644531 -7.863281 6.4375 -7.53125 C 6.226562 -7.207031 5.972656 -6.921875 5.671875 -6.671875 C 5.378906 -6.421875 4.976562 -6.128906 4.46875 -5.796875 C 4.394531 -5.753906 4.285156 -5.679688 4.140625 -5.578125 C 4.867188 -4.410156 5.988281 -3.234375 7.5 -2.046875 C 7.875 -2.691406 8.0625 -3.40625 8.0625 -4.1875 C 8.0625 -4.5625 7.984375 -4.84375 7.828125 -5.03125 C 7.671875 -5.226562 7.375 -5.328125 6.9375 -5.328125 C 6.90625 -5.328125 6.882812 -5.359375 6.875 -5.421875 C 6.875 -5.484375 6.894531 -5.515625 6.9375 -5.515625 L 10.234375 -5.53125 C 10.273438 -5.53125 10.296875 -5.5 10.296875 -5.4375 C 10.296875 -5.375 10.273438 -5.34375 10.234375 -5.34375 C 9.878906 -5.34375 9.609375 -5.304688 9.421875 -5.234375 C 9.242188 -5.171875 9.117188 -5.078125 9.046875 -4.953125 C 8.972656 -4.835938 8.898438 -4.65625 8.828125 -4.40625 C 8.523438 -3.363281 8.160156 -2.519531 7.734375 -1.875 C 8.359375 -1.425781 8.957031 -1.050781 9.53125 -0.75 C 10.113281 -0.457031 10.609375 -0.269531 11.015625 -0.1875 Z M 3.1875 -8.375 C 3.1875 -7.550781 3.460938 -6.679688 4.015625 -5.765625 C 4.585938 -6.191406 5.03125 -6.609375 5.34375 -7.015625 C 5.65625 -7.421875 5.8125 -7.878906 5.8125 -8.390625 C 5.8125 -8.847656 5.6875 -9.207031 5.4375 -9.46875 C 5.195312 -9.738281 4.863281 -9.875 4.4375 -9.875 C 3.601562 -9.875 3.1875 -9.375 3.1875 -8.375 Z M 4.65625 -0.28125 C 5.539062 -0.28125 6.300781 -0.613281 6.9375 -1.28125 L 6.65625 -1.515625 C 6.019531 -2.015625 5.410156 -2.566406 4.828125 -3.171875 C 4.242188 -3.773438 3.738281 -4.375 3.3125 -4.96875 C 2.90625 -4.644531 2.585938 -4.300781 2.359375 -3.9375 C 2.128906 -3.570312 2.015625 -3.164062 2.015625 -2.71875 C 2.015625 -2.269531 2.128906 -1.859375 2.359375 -1.484375 C 2.585938 -1.117188 2.90625 -0.828125 3.3125 -0.609375 C 3.71875 -0.390625 4.164062 -0.28125 4.65625 -0.28125 Z M 4.65625 -0.28125 "/></g></g></g><g fill="#42312b" fill-opacity="1"><g transform="translate(188.704503, 236.577625)"><g/></g></g><g fill="#42312b" fill-opacity="1"><g transform="translate(194.48714, 236.577625)"><g><path d="M 11.046875 -0.1875 C 11.085938 -0.1875 11.109375 -0.15625 11.109375 -0.09375 C 11.109375 -0.03125 11.085938 0 11.046875 0 C 10.835938 0 10.523438 -0.0078125 10.109375 -0.03125 C 9.691406 -0.0507812 9.382812 -0.0625 9.1875 -0.0625 C 8.957031 -0.0625 8.664062 -0.0507812 8.3125 -0.03125 C 7.96875 -0.0078125 7.707031 0 7.53125 0 C 7.488281 0 7.46875 -0.03125 7.46875 -0.09375 C 7.46875 -0.15625 7.488281 -0.1875 7.53125 -0.1875 C 7.925781 -0.1875 8.210938 -0.222656 8.390625 -0.296875 C 8.566406 -0.367188 8.65625 -0.492188 8.65625 -0.671875 C 8.65625 -0.828125 8.585938 -1.054688 8.453125 -1.359375 L 7.046875 -4.34375 L 3.28125 -4.34375 L 2.296875 -2 C 2.140625 -1.644531 2.0625 -1.359375 2.0625 -1.140625 C 2.0625 -0.804688 2.191406 -0.5625 2.453125 -0.40625 C 2.710938 -0.257812 3.101562 -0.1875 3.625 -0.1875 C 3.675781 -0.1875 3.703125 -0.15625 3.703125 -0.09375 C 3.703125 -0.03125 3.675781 0 3.625 0 C 3.425781 0 3.148438 -0.0078125 2.796875 -0.03125 C 2.398438 -0.0507812 2.050781 -0.0625 1.75 -0.0625 C 1.476562 -0.0625 1.164062 -0.0507812 0.8125 -0.03125 C 0.488281 -0.0078125 0.222656 0 0.015625 0 C -0.0351562 0 -0.0625 -0.03125 -0.0625 -0.09375 C -0.0625 -0.15625 -0.0351562 -0.1875 0.015625 -0.1875 C 0.304688 -0.1875 0.554688 -0.238281 0.765625 -0.34375 C 0.972656 -0.457031 1.164062 -0.65625 1.34375 -0.9375 C 1.53125 -1.21875 1.734375 -1.617188 1.953125 -2.140625 L 5.296875 -10.015625 C 5.316406 -10.046875 5.351562 -10.0625 5.40625 -10.0625 C 5.457031 -10.0625 5.488281 -10.046875 5.5 -10.015625 L 9.21875 -2.171875 C 9.582031 -1.390625 9.890625 -0.863281 10.140625 -0.59375 C 10.390625 -0.320312 10.691406 -0.1875 11.046875 -0.1875 Z M 3.40625 -4.65625 L 6.90625 -4.65625 L 5.0625 -8.5625 Z M 3.40625 -4.65625 "/></g></g></g><g fill="#42312b" fill-opacity="1"><g transform="translate(207.662744, 236.577625)"><g><path d="M 10.796875 -0.1875 C 10.816406 -0.1875 10.828125 -0.15625 10.828125 -0.09375 C 10.828125 -0.03125 10.816406 0 10.796875 0 L 8.75 0 C 8.488281 0 7.992188 -0.4375 7.265625 -1.3125 C 6.535156 -2.1875 5.671875 -3.382812 4.671875 -4.90625 C 4.390625 -4.84375 4.097656 -4.8125 3.796875 -4.8125 C 3.734375 -4.8125 3.492188 -4.828125 3.078125 -4.859375 L 3.078125 -1.28125 C 3.078125 -0.957031 3.109375 -0.71875 3.171875 -0.5625 C 3.234375 -0.414062 3.359375 -0.316406 3.546875 -0.265625 C 3.734375 -0.210938 4.023438 -0.1875 4.421875 -0.1875 C 4.453125 -0.1875 4.46875 -0.15625 4.46875 -0.09375 C 4.46875 -0.03125 4.453125 0 4.421875 0 C 4.097656 0 3.84375 -0.00390625 3.65625 -0.015625 L 2.5625 -0.03125 L 1.484375 -0.015625 C 1.296875 -0.00390625 1.023438 0 0.671875 0 C 0.648438 0 0.640625 -0.03125 0.640625 -0.09375 C 0.640625 -0.15625 0.648438 -0.1875 0.671875 -0.1875 C 1.078125 -0.1875 1.375 -0.210938 1.5625 -0.265625 C 1.75 -0.316406 1.875 -0.421875 1.9375 -0.578125 C 2.007812 -0.734375 2.046875 -0.96875 2.046875 -1.28125 L 2.046875 -8.59375 C 2.046875 -8.90625 2.015625 -9.132812 1.953125 -9.28125 C 1.890625 -9.4375 1.765625 -9.539062 1.578125 -9.59375 C 1.398438 -9.65625 1.109375 -9.6875 0.703125 -9.6875 C 0.671875 -9.6875 0.65625 -9.71875 0.65625 -9.78125 C 0.65625 -9.84375 0.671875 -9.875 0.703125 -9.875 L 1.484375 -9.859375 C 1.921875 -9.835938 2.28125 -9.828125 2.5625 -9.828125 C 2.789062 -9.828125 3.003906 -9.832031 3.203125 -9.84375 C 3.398438 -9.851562 3.570312 -9.863281 3.71875 -9.875 C 4.101562 -9.90625 4.453125 -9.921875 4.765625 -9.921875 C 5.597656 -9.921875 6.238281 -9.726562 6.6875 -9.34375 C 7.144531 -8.96875 7.375 -8.460938 7.375 -7.828125 C 7.375 -7.265625 7.207031 -6.753906 6.875 -6.296875 C 6.539062 -5.835938 6.101562 -5.476562 5.5625 -5.21875 C 6.445312 -3.9375 7.191406 -2.9375 7.796875 -2.21875 C 8.398438 -1.5 8.9375 -0.976562 9.40625 -0.65625 C 9.875 -0.34375 10.335938 -0.1875 10.796875 -0.1875 Z M 3.078125 -5.25 C 3.335938 -5.207031 3.648438 -5.1875 4.015625 -5.1875 C 4.835938 -5.1875 5.421875 -5.363281 5.765625 -5.71875 C 6.117188 -6.070312 6.296875 -6.625 6.296875 -7.375 C 6.296875 -8.195312 6.113281 -8.785156 5.75 -9.140625 C 5.394531 -9.503906 4.867188 -9.6875 4.171875 -9.6875 C 3.753906 -9.6875 3.46875 -9.609375 3.3125 -9.453125 C 3.15625 -9.304688 3.078125 -9.007812 3.078125 -8.5625 Z M 3.078125 -5.25 "/></g></g></g><g fill="#42312b" fill-opacity="1"><g transform="translate(220.380242, 236.577625)"><g><path d="M 11.046875 -0.1875 C 11.085938 -0.1875 11.109375 -0.15625 11.109375 -0.09375 C 11.109375 -0.03125 11.085938 0 11.046875 0 C 10.835938 0 10.523438 -0.0078125 10.109375 -0.03125 C 9.691406 -0.0507812 9.382812 -0.0625 9.1875 -0.0625 C 8.957031 -0.0625 8.664062 -0.0507812 8.3125 -0.03125 C 7.96875 -0.0078125 7.707031 0 7.53125 0 C 7.488281 0 7.46875 -0.03125 7.46875 -0.09375 C 7.46875 -0.15625 7.488281 -0.1875 7.53125 -0.1875 C 7.925781 -0.1875 8.210938 -0.222656 8.390625 -0.296875 C 8.566406 -0.367188 8.65625 -0.492188 8.65625 -0.671875 C 8.65625 -0.828125 8.585938 -1.054688 8.453125 -1.359375 L 7.046875 -4.34375 L 3.28125 -4.34375 L 2.296875 -2 C 2.140625 -1.644531 2.0625 -1.359375 2.0625 -1.140625 C 2.0625 -0.804688 2.191406 -0.5625 2.453125 -0.40625 C 2.710938 -0.257812 3.101562 -0.1875 3.625 -0.1875 C 3.675781 -0.1875 3.703125 -0.15625 3.703125 -0.09375 C 3.703125 -0.03125 3.675781 0 3.625 0 C 3.425781 0 3.148438 -0.0078125 2.796875 -0.03125 C 2.398438 -0.0507812 2.050781 -0.0625 1.75 -0.0625 C 1.476562 -0.0625 1.164062 -0.0507812 0.8125 -0.03125 C 0.488281 -0.0078125 0.222656 0 0.015625 0 C -0.0351562 0 -0.0625 -0.03125 -0.0625 -0.09375 C -0.0625 -0.15625 -0.0351562 -0.1875 0.015625 -0.1875 C 0.304688 -0.1875 0.554688 -0.238281 0.765625 -0.34375 C 0.972656 -0.457031 1.164062 -0.65625 1.34375 -0.9375 C 1.53125 -1.21875 1.734375 -1.617188 1.953125 -2.140625 L 5.296875 -10.015625 C 5.316406 -10.046875 5.351562 -10.0625 5.40625 -10.0625 C 5.457031 -10.0625 5.488281 -10.046875 5.5 -10.015625 L 9.21875 -2.171875 C 9.582031 -1.390625 9.890625 -0.863281 10.140625 -0.59375 C 10.390625 -0.320312 10.691406 -0.1875 11.046875 -0.1875 Z M 3.40625 -4.65625 L 6.90625 -4.65625 L 5.0625 -8.5625 Z M 3.40625 -4.65625 "/></g></g></g><g fill="#42312b" fill-opacity="1"><g transform="translate(233.555847, 236.577625)"><g><path d="M 5.25 -5.5625 C 6.082031 -5.5 6.753906 -5.222656 7.265625 -4.734375 C 7.773438 -4.242188 8.03125 -3.632812 8.03125 -2.90625 C 8.03125 -2.34375 7.890625 -1.832031 7.609375 -1.375 C 7.335938 -0.925781 6.960938 -0.570312 6.484375 -0.3125 C 6.003906 -0.0625 5.46875 0.0625 4.875 0.0625 C 4.53125 0.0625 4.15625 0.046875 3.75 0.015625 C 3.59375 0.00390625 3.414062 -0.00390625 3.21875 -0.015625 C 3.019531 -0.0234375 2.800781 -0.03125 2.5625 -0.03125 L 1.484375 -0.015625 C 1.296875 -0.00390625 1.023438 0 0.671875 0 C 0.648438 0 0.640625 -0.03125 0.640625 -0.09375 C 0.640625 -0.15625 0.648438 -0.1875 0.671875 -0.1875 C 1.066406 -0.1875 1.359375 -0.210938 1.546875 -0.265625 C 1.734375 -0.328125 1.863281 -0.429688 1.9375 -0.578125 C 2.007812 -0.734375 2.046875 -0.96875 2.046875 -1.28125 L 2.046875 -8.59375 C 2.046875 -8.90625 2.007812 -9.132812 1.9375 -9.28125 C 1.875 -9.4375 1.75 -9.539062 1.5625 -9.59375 C 1.382812 -9.65625 1.097656 -9.6875 0.703125 -9.6875 C 0.671875 -9.6875 0.65625 -9.71875 0.65625 -9.78125 C 0.65625 -9.84375 0.671875 -9.875 0.703125 -9.875 L 1.484375 -9.859375 C 1.921875 -9.835938 2.28125 -9.828125 2.5625 -9.828125 C 2.75 -9.828125 2.921875 -9.832031 3.078125 -9.84375 C 3.242188 -9.851562 3.382812 -9.863281 3.5 -9.875 C 3.832031 -9.90625 4.140625 -9.921875 4.421875 -9.921875 C 5.304688 -9.921875 5.96875 -9.726562 6.40625 -9.34375 C 6.851562 -8.957031 7.078125 -8.453125 7.078125 -7.828125 C 7.078125 -7.328125 6.910156 -6.878906 6.578125 -6.484375 C 6.253906 -6.085938 5.8125 -5.78125 5.25 -5.5625 Z M 4.09375 -9.6875 C 3.820312 -9.6875 3.613281 -9.660156 3.46875 -9.609375 C 3.332031 -9.566406 3.234375 -9.46875 3.171875 -9.3125 C 3.109375 -9.15625 3.078125 -8.90625 3.078125 -8.5625 L 3.078125 -5.5625 L 3.796875 -5.546875 C 4.554688 -5.546875 5.117188 -5.742188 5.484375 -6.140625 C 5.859375 -6.535156 6.046875 -7.054688 6.046875 -7.703125 C 6.046875 -8.296875 5.882812 -8.773438 5.5625 -9.140625 C 5.25 -9.503906 4.757812 -9.6875 4.09375 -9.6875 Z M 4.640625 -0.21875 C 5.410156 -0.21875 5.984375 -0.414062 6.359375 -0.8125 C 6.734375 -1.207031 6.921875 -1.773438 6.921875 -2.515625 C 6.921875 -3.316406 6.6875 -3.960938 6.21875 -4.453125 C 5.75 -4.953125 5.101562 -5.207031 4.28125 -5.21875 C 3.945312 -5.226562 3.546875 -5.21875 3.078125 -5.1875 L 3.078125 -1.28125 C 3.078125 -1.007812 3.113281 -0.796875 3.1875 -0.640625 C 3.269531 -0.492188 3.425781 -0.382812 3.65625 -0.3125 C 3.882812 -0.25 4.210938 -0.21875 4.640625 -0.21875 Z M 4.640625 -0.21875 "/></g></g></g><g fill="#42312b" fill-opacity="1"><g transform="translate(244.456698, 236.577625)"><g><path d="M 3.140625 -1.28125 C 3.140625 -0.96875 3.171875 -0.734375 3.234375 -0.578125 C 3.296875 -0.421875 3.421875 -0.316406 3.609375 -0.265625 C 3.796875 -0.210938 4.085938 -0.1875 4.484375 -0.1875 C 4.515625 -0.1875 4.53125 -0.15625 4.53125 -0.09375 C 4.53125 -0.03125 4.515625 0 4.484375 0 C 4.171875 0 3.921875 -0.00390625 3.734375 -0.015625 L 2.609375 -0.03125 L 1.515625 -0.015625 C 1.328125 -0.00390625 1.070312 0 0.75 0 C 0.707031 0 0.6875 -0.03125 0.6875 -0.09375 C 0.6875 -0.15625 0.707031 -0.1875 0.75 -0.1875 C 1.144531 -0.1875 1.429688 -0.210938 1.609375 -0.265625 C 1.796875 -0.316406 1.921875 -0.421875 1.984375 -0.578125 C 2.054688 -0.734375 2.09375 -0.96875 2.09375 -1.28125 L 2.09375 -8.59375 C 2.09375 -8.90625 2.054688 -9.132812 1.984375 -9.28125 C 1.921875 -9.4375 1.796875 -9.539062 1.609375 -9.59375 C 1.429688 -9.65625 1.144531 -9.6875 0.75 -9.6875 C 0.707031 -9.6875 0.6875 -9.71875 0.6875 -9.78125 C 0.6875 -9.84375 0.707031 -9.875 0.75 -9.875 L 1.515625 -9.859375 C 1.960938 -9.835938 2.328125 -9.828125 2.609375 -9.828125 C 2.921875 -9.828125 3.300781 -9.835938 3.75 -9.859375 L 4.484375 -9.875 C 4.515625 -9.875 4.53125 -9.84375 4.53125 -9.78125 C 4.53125 -9.71875 4.515625 -9.6875 4.484375 -9.6875 C 4.097656 -9.6875 3.8125 -9.65625 3.625 -9.59375 C 3.4375 -9.53125 3.304688 -9.421875 3.234375 -9.265625 C 3.171875 -9.109375 3.140625 -8.875 3.140625 -8.5625 Z M 3.140625 -1.28125 "/></g></g></g><g fill="#42312b" fill-opacity="1"><g transform="translate(251.787428, 236.577625)"><g><path d="M 6.5 -10.046875 C 7.15625 -10.046875 7.707031 -10 8.15625 -9.90625 C 8.613281 -9.8125 9.070312 -9.648438 9.53125 -9.421875 C 9.601562 -9.378906 9.644531 -9.335938 9.65625 -9.296875 C 9.664062 -9.265625 9.679688 -9.1875 9.703125 -9.0625 L 9.890625 -7.1875 C 9.890625 -7.15625 9.859375 -7.132812 9.796875 -7.125 C 9.742188 -7.125 9.710938 -7.140625 9.703125 -7.171875 C 9.210938 -8.929688 8.125 -9.8125 6.4375 -9.8125 C 5.5625 -9.8125 4.785156 -9.613281 4.109375 -9.21875 C 3.429688 -8.832031 2.90625 -8.28125 2.53125 -7.5625 C 2.164062 -6.84375 1.984375 -6.003906 1.984375 -5.046875 C 1.984375 -4.128906 2.1875 -3.285156 2.59375 -2.515625 C 3 -1.753906 3.546875 -1.148438 4.234375 -0.703125 C 4.929688 -0.265625 5.6875 -0.046875 6.5 -0.046875 C 7.351562 -0.046875 8.050781 -0.253906 8.59375 -0.671875 C 9.132812 -1.097656 9.546875 -1.742188 9.828125 -2.609375 C 9.828125 -2.628906 9.851562 -2.640625 9.90625 -2.640625 C 9.976562 -2.640625 10.015625 -2.625 10.015625 -2.59375 L 9.859375 -0.859375 C 9.847656 -0.722656 9.832031 -0.640625 9.8125 -0.609375 C 9.789062 -0.578125 9.75 -0.539062 9.6875 -0.5 C 9.132812 -0.238281 8.617188 -0.0546875 8.140625 0.046875 C 7.660156 0.148438 7.113281 0.203125 6.5 0.203125 C 5.382812 0.203125 4.394531 -0.015625 3.53125 -0.453125 C 2.664062 -0.890625 1.988281 -1.5 1.5 -2.28125 C 1.019531 -3.070312 0.78125 -3.976562 0.78125 -5 C 0.78125 -6 1.023438 -6.878906 1.515625 -7.640625 C 2.015625 -8.398438 2.695312 -8.988281 3.5625 -9.40625 C 4.425781 -9.832031 5.40625 -10.046875 6.5 -10.046875 Z M 6.5 -10.046875 "/></g></g></g><g fill="#42312b" fill-opacity="1"><g transform="translate(264.721276, 236.577625)"><g/></g></g></svg>