<?xml version="1.0" encoding="UTF-8"?>
<!DOCTYPE svg PUBLIC "-//W3C//DTD SVG 1.1//EN" "http://www.w3.org/Graphics/SVG/1.1/DTD/svg11.dtd">
<svg xmlns="http://www.w3.org/2000/svg" version="1.1" width="704px" height="597px" style="shape-rendering:geometricPrecision; text-rendering:geometricPrecision; image-rendering:optimizeQuality; fill-rule:evenodd; clip-rule:evenodd" xmlns:xlink="http://www.w3.org/1999/xlink">
<g><path style="opacity:1" fill="#125788" d="M -0.5,-0.5 C 234.167,-0.5 468.833,-0.5 703.5,-0.5C 703.5,198.5 703.5,397.5 703.5,596.5C 468.833,596.5 234.167,596.5 -0.5,596.5C -0.5,397.5 -0.5,198.5 -0.5,-0.5 Z"/></g>
<g><path style="opacity:1" fill="#bdbcbc" d="M 493.5,330.5 C 493.444,335.731 494.111,340.731 495.5,345.5C 497.425,408.825 472.092,457.659 419.5,492C 368.863,518.798 318.196,519.131 267.5,493C 217.081,459.847 191.748,412.847 191.5,352C 191.718,330.805 195.551,310.305 203,290.5C 212.87,265.426 224.87,241.426 239,218.5C 264.393,180.771 289.393,142.771 314,104.5C 324.995,85.5103 334.661,65.8436 343,45.5C 356.737,81.8646 374.737,115.865 397,147.5C 421.406,180.633 444.072,214.967 465,250.5C 478.984,275.623 488.484,302.289 493.5,330.5 Z"/></g>
<g><path style="opacity:1" fill="#135788" d="M 228.5,334.5 C 228.399,324.148 228.733,313.815 229.5,303.5C 233.27,281.029 241.103,260.029 253,240.5C 260.508,228.816 268.508,217.483 277,206.5C 297.651,183.185 315.984,158.185 332,131.5C 335.273,125.288 338.273,118.954 341,112.5C 342.938,111.14 344.604,111.473 346,113.5C 352.143,130.786 360.143,147.119 370,162.5C 382.944,181.777 396.278,200.777 410,219.5C 417.171,230.504 423.838,241.838 430,253.5C 445.608,283.689 451.608,315.689 448,349.5C 433.278,416.135 391.778,446.635 323.5,441C 275.901,430.405 245.401,401.572 232,354.5C 230.878,347.812 229.712,341.146 228.5,334.5 Z"/></g>
<g><path style="opacity:1" fill="#62849f" d="M 262.5,309.5 C 261.833,308.5 261.167,307.5 260.5,306.5C 260.393,304.621 260.893,304.288 262,305.5C 262.49,306.793 262.657,308.127 262.5,309.5 Z"/></g>
<g><path style="opacity:1" fill="#bcbbbc" d="M 260.5,306.5 C 261.167,307.5 261.833,308.5 262.5,309.5C 269.823,345.346 288.489,373.512 318.5,394C 321.411,395.761 324.411,397.261 327.5,398.5C 325.5,399.167 323.5,399.833 321.5,400.5C 302.053,402.284 283.719,398.784 266.5,390C 257.916,383.681 252.75,375.181 251,364.5C 249.097,344.205 252.264,324.871 260.5,306.5 Z"/></g>
<g><path style="opacity:1" fill="#8097a9" d="M 229.5,303.5 C 228.733,313.815 228.399,324.148 228.5,334.5C 227.834,330.514 227.501,326.347 227.5,322C 227.326,315.594 227.993,309.427 229.5,303.5 Z"/></g>
<g><path style="opacity:1" fill="#527b9b" d="M 478.5,331.5 C 477.833,330.833 477.167,330.167 476.5,329.5C 476.343,328.127 476.51,326.793 477,325.5C 478.128,327.345 478.628,329.345 478.5,331.5 Z"/></g>
<g><path style="opacity:1" fill="#225d8b" d="M 476.5,329.5 C 477.167,330.167 477.833,330.833 478.5,331.5C 484.538,367.541 476.705,400.207 455,429.5C 452.332,433.334 449.165,436.667 445.5,439.5C 444.833,439.5 444.5,439.167 444.5,438.5C 454.887,420.724 463.387,402.057 470,382.5C 473.485,364.978 475.652,347.312 476.5,329.5 Z"/></g>
<g><path style="opacity:1" fill="#8b9dac" d="M 493.5,330.5 C 495.031,335.25 495.698,340.25 495.5,345.5C 494.111,340.731 493.444,335.731 493.5,330.5 Z"/></g>
<g><path style="opacity:1" fill="#bbbabb" d="M 544.5,363.5 C 545.924,361.485 546.59,359.152 546.5,356.5C 548.101,350.198 552.101,347.698 558.5,349C 565.499,353.649 567.999,360.149 566,368.5C 562.418,376.991 556.918,383.991 549.5,389.5C 545.31,381.393 543.644,372.726 544.5,363.5 Z"/></g>
<g><path style="opacity:1" fill="#b8b9ba" d="M 142.5,355.5 C 154.112,354.604 160.945,359.937 163,371.5C 163.499,375.152 163.665,378.818 163.5,382.5C 151.598,380.073 143.598,373.24 139.5,362C 139.391,359.288 140.391,357.122 142.5,355.5 Z"/></g>
<g><path style="opacity:1" fill="#879bab" d="M 546.5,356.5 C 546.59,359.152 545.924,361.485 544.5,363.5C 544.41,360.848 545.076,358.515 546.5,356.5 Z"/></g>
<g><path style="opacity:1" fill="#bababb" d="M 563.5,394.5 C 572.493,394.827 577.16,399.493 577.5,408.5C 576.143,420.214 570.476,429.214 560.5,435.5C 558.855,433.075 557.689,430.408 557,427.5C 554.355,417.859 555.022,408.525 559,399.5C 560.707,397.963 562.207,396.296 563.5,394.5 Z"/></g>
<g><path style="opacity:1" fill="#bbbbbc" d="M 521.5,396.5 C 532.551,396.373 540.385,401.373 545,411.5C 547.075,426.199 544.241,439.866 536.5,452.5C 522.277,440.054 515.11,424.388 515,405.5C 516.211,401.721 518.377,398.721 521.5,396.5 Z"/></g>
<g><path style="opacity:1" fill="#4b7598" d="M 148.5,400.5 C 151.976,399.357 155.642,399.19 159.5,400C 160.056,400.383 160.389,400.883 160.5,401.5C 156.566,400.64 152.566,400.307 148.5,400.5 Z"/></g>
<g><path style="opacity:1" fill="#7590a6" d="M 327.5,398.5 C 328.043,398.56 328.376,398.893 328.5,399.5C 326.257,400.474 323.924,400.808 321.5,400.5C 323.5,399.833 325.5,399.167 327.5,398.5 Z"/></g>
<g><path style="opacity:1" fill="#bcbbbc" d="M 148.5,400.5 C 152.566,400.307 156.566,400.64 160.5,401.5C 169.594,405.636 175.427,412.636 178,422.5C 178.826,425.793 179.326,429.126 179.5,432.5C 180.097,437.294 179.43,441.627 177.5,445.5C 159.605,441.102 147.105,430.435 140,413.5C 138.339,406.143 141.173,401.81 148.5,400.5 Z"/></g>
<g><path style="opacity:1" fill="#537c9b" d="M 444.5,438.5 C 444.5,439.167 444.833,439.5 445.5,439.5C 444.542,440.962 443.376,442.295 442,443.5C 442.097,441.541 442.93,439.875 444.5,438.5 Z"/></g>
<g><path style="opacity:1" fill="#91a1ae" d="M 179.5,432.5 C 180.486,436.97 180.819,441.637 180.5,446.5C 179.209,446.737 178.209,446.404 177.5,445.5C 179.43,441.627 180.097,437.294 179.5,432.5 Z"/></g>
<g><path style="opacity:1" fill="#1c5a8a" d="M 263.5,451.5 C 290.831,480.084 324.164,491.251 363.5,485C 342.791,495.964 321.124,498.63 298.5,493C 280.917,484.243 269.251,470.41 263.5,451.5 Z"/></g>
<g><path style="opacity:1" fill="#0a95c7" d="M 217.5,457.5 C 218.675,457.281 219.675,457.614 220.5,458.5C 222.833,461.833 225.167,465.167 227.5,468.5C 206.526,473.101 186.859,480.935 168.5,492C 147.219,506.872 146.219,522.872 165.5,540C 178.447,548.806 192.447,555.473 207.5,560C 264.489,575.273 322.489,580.606 381.5,576C 415.927,573.988 449.593,567.988 482.5,558C 495.545,553.327 507.878,547.327 519.5,540C 524.805,535.701 528.972,530.534 532,524.5C 534.902,516.373 533.569,509.04 528,502.5C 516.514,491.166 503.014,482.999 487.5,478C 477.861,474.675 468.194,471.509 458.5,468.5C 461.051,464.707 464.051,461.374 467.5,458.5C 493.914,463.375 518.914,472.209 542.5,485C 553.135,490.966 560.968,499.466 566,510.5C 567.335,524.004 562.501,534.837 551.5,543C 534.331,554.731 515.664,563.398 495.5,569C 426.498,586.112 356.498,591.779 285.5,586C 252.916,583.569 220.916,577.903 189.5,569C 169.274,563.552 150.607,554.885 133.5,543C 113.936,526.297 113.602,509.297 132.5,492C 147.783,481.025 164.449,472.692 182.5,467C 194.26,463.684 205.926,460.517 217.5,457.5 Z"/></g>
<g><path style="opacity:1" fill="#0a95c7" d="M 236.5,483.5 C 238.527,483.338 240.527,483.505 242.5,484C 245.5,486.5 248.5,489 251.5,491.5C 241.436,495.28 232.603,500.947 225,508.5C 221.795,514.073 221.795,519.739 225,525.5C 233.145,533.491 242.645,539.325 253.5,543C 291.054,554.048 329.388,557.715 368.5,554C 392.536,552.664 415.869,547.997 438.5,540C 446.962,537.024 454.129,532.19 460,525.5C 463.205,519.739 463.205,514.073 460,508.5C 457.833,506.333 455.667,504.167 453.5,502C 447.1,498.47 440.767,494.97 434.5,491.5C 437.788,487.948 441.621,485.282 446,483.5C 461.671,487.265 475.337,494.599 487,505.5C 493,513.167 493,520.833 487,528.5C 482.622,532.935 477.788,536.768 472.5,540C 455.889,547.87 438.556,553.537 420.5,557C 371.609,564.891 322.609,565.557 273.5,559C 256.734,556.182 240.401,551.849 224.5,546C 212.082,541.727 202.249,534.227 195,523.5C 194.333,519.167 194.333,514.833 195,510.5C 199.218,503.282 205.052,497.782 212.5,494C 220.394,489.99 228.394,486.49 236.5,483.5 Z"/></g>
<g><path style="opacity:1" fill="#0a94c6" d="M 279.5,509.5 C 283.921,510.875 288.254,512.541 292.5,514.5C 289.373,519.936 290.706,524.103 296.5,527C 306.93,531.919 317.93,534.586 329.5,535C 346.095,536.532 362.429,535.199 378.5,531C 383.612,529.278 388.279,526.778 392.5,523.5C 395.167,520.5 395.167,517.5 392.5,514.5C 396.128,512.438 399.961,510.771 404,509.5C 412.278,513.495 413.612,519.161 408,526.5C 393.55,535.665 377.716,540.832 360.5,542C 340.283,543.55 320.283,542.217 300.5,538C 291.914,535.623 284.08,531.79 277,526.5C 273.98,523.377 272.98,519.71 274,515.5C 276.04,513.63 277.873,511.63 279.5,509.5 Z"/></g>
</svg>
