<svg xmlns="http://www.w3.org/2000/svg" xmlns:xlink="http://www.w3.org/1999/xlink" width="500" zoomAndPan="magnify" viewBox="0 0 375 374.999991" height="500" preserveAspectRatio="xMidYMid meet" version="1.0"><defs><clipPath id="387ade2dd9"><path d="M 0 6.917969 L 368.25 6.917969 L 368.25 375 L 0 375 Z M 0 6.917969 " clip-rule="nonzero"/></clipPath></defs><g clip-path="url(#387ade2dd9)"><path fill="#c22229" d="M 368.25 191.042969 C 368.25 194.058594 368.175781 197.066406 368.027344 200.078125 C 367.878906 203.085938 367.660156 206.09375 367.363281 209.089844 C 367.066406 212.089844 366.699219 215.078125 366.257812 218.058594 C 365.816406 221.039062 365.300781 224.007812 364.710938 226.964844 C 364.125 229.917969 363.464844 232.859375 362.730469 235.78125 C 362 238.707031 361.195312 241.609375 360.320312 244.492188 C 359.445312 247.375 358.5 250.234375 357.488281 253.074219 C 356.472656 255.910156 355.386719 258.722656 354.234375 261.503906 C 353.082031 264.289062 351.859375 267.042969 350.570312 269.765625 C 349.285156 272.492188 347.929688 275.183594 346.507812 277.839844 C 345.089844 280.496094 343.601562 283.117188 342.054688 285.703125 C 340.503906 288.289062 338.894531 290.832031 337.21875 293.335938 C 335.546875 295.84375 333.8125 298.304688 332.015625 300.726562 C 330.21875 303.148438 328.367188 305.523438 326.457031 307.851562 C 324.542969 310.179688 322.578125 312.460938 320.550781 314.695312 C 318.527344 316.925781 316.453125 319.109375 314.320312 321.238281 C 312.191406 323.371094 310.007812 325.449219 307.777344 327.472656 C 305.542969 329.496094 303.261719 331.460938 300.933594 333.375 C 298.601562 335.285156 296.226562 337.140625 293.808594 338.933594 C 291.386719 340.730469 288.925781 342.464844 286.417969 344.136719 C 283.914062 345.8125 281.367188 347.421875 278.785156 348.972656 C 276.199219 350.523438 273.578125 352.007812 270.921875 353.425781 C 268.261719 354.847656 265.574219 356.203125 262.847656 357.492188 C 260.125 358.777344 257.371094 360 254.585938 361.152344 C 251.800781 362.304688 248.992188 363.390625 246.15625 364.40625 C 243.316406 365.421875 240.457031 366.367188 237.574219 367.238281 C 234.691406 368.113281 231.785156 368.917969 228.863281 369.648438 C 225.941406 370.382812 223 371.042969 220.046875 371.628906 C 217.089844 372.21875 214.121094 372.734375 211.140625 373.175781 C 208.160156 373.617188 205.171875 373.988281 202.171875 374.28125 C 199.171875 374.578125 196.167969 374.796875 193.160156 374.945312 C 190.148438 375.09375 187.136719 375.167969 184.125 375.167969 C 181.113281 375.167969 178.101562 375.09375 175.089844 374.945312 C 172.082031 374.796875 169.078125 374.578125 166.078125 374.28125 C 163.078125 373.988281 160.089844 373.617188 157.109375 373.175781 C 154.128906 372.734375 151.160156 372.21875 148.203125 371.628906 C 145.25 371.042969 142.308594 370.382812 139.386719 369.648438 C 136.464844 368.917969 133.558594 368.113281 130.675781 367.238281 C 127.792969 366.367188 124.933594 365.421875 122.09375 364.40625 C 119.257812 363.390625 116.449219 362.304688 113.664062 361.152344 C 110.878906 360 108.125 358.777344 105.402344 357.492188 C 102.675781 356.203125 99.988281 354.847656 97.328125 353.425781 C 94.671875 352.007812 92.050781 350.523438 89.464844 348.972656 C 86.882812 347.421875 84.335938 345.8125 81.832031 344.136719 C 79.324219 342.464844 76.863281 340.730469 74.441406 338.933594 C 72.023438 337.140625 69.648438 335.285156 67.316406 333.375 C 64.988281 331.460938 62.707031 329.496094 60.472656 327.472656 C 58.242188 325.449219 56.058594 323.371094 53.929688 321.238281 C 51.796875 319.109375 49.722656 316.925781 47.699219 314.695312 C 45.671875 312.460938 43.707031 310.179688 41.792969 307.851562 C 39.882812 305.523438 38.03125 303.148438 36.234375 300.726562 C 34.4375 298.304688 32.703125 295.84375 31.03125 293.335938 C 29.355469 290.832031 27.746094 288.289062 26.195312 285.703125 C 24.648438 283.117188 23.160156 280.496094 21.742188 277.839844 C 20.320312 275.183594 18.964844 272.492188 17.679688 269.765625 C 16.390625 267.042969 15.167969 264.289062 14.015625 261.503906 C 12.863281 258.722656 11.777344 255.910156 10.761719 253.074219 C 9.746094 250.234375 8.804688 247.375 7.929688 244.492188 C 7.054688 241.609375 6.25 238.707031 5.519531 235.78125 C 4.785156 232.859375 4.125 229.917969 3.539062 226.964844 C 2.949219 224.007812 2.433594 221.039062 1.992188 218.058594 C 1.550781 215.078125 1.183594 212.089844 0.886719 209.089844 C 0.589844 206.09375 0.371094 203.085938 0.222656 200.078125 C 0.0742188 197.066406 0 194.058594 0 191.042969 C 0 188.03125 0.0742188 185.019531 0.222656 182.007812 C 0.371094 179 0.589844 175.996094 0.886719 172.996094 C 1.183594 169.996094 1.550781 167.007812 1.992188 164.027344 C 2.433594 161.046875 2.949219 158.078125 3.539062 155.121094 C 4.125 152.167969 4.785156 149.226562 5.519531 146.304688 C 6.25 143.382812 7.054688 140.476562 7.929688 137.59375 C 8.804688 134.710938 9.746094 131.851562 10.761719 129.011719 C 11.777344 126.175781 12.863281 123.367188 14.015625 120.582031 C 15.167969 117.796875 16.390625 115.042969 17.679688 112.320312 C 18.964844 109.597656 20.320312 106.90625 21.742188 104.246094 C 23.160156 101.589844 24.648438 98.96875 26.195312 96.382812 C 27.746094 93.800781 29.355469 91.253906 31.03125 88.75 C 32.703125 86.242188 34.4375 83.78125 36.234375 81.359375 C 38.03125 78.941406 39.882812 76.566406 41.792969 74.234375 C 43.707031 71.90625 45.671875 69.625 47.699219 67.394531 C 49.722656 65.160156 51.796875 62.976562 53.929688 60.847656 C 56.058594 58.714844 58.242188 56.640625 60.472656 54.617188 C 62.707031 52.59375 64.988281 50.625 67.316406 48.710938 C 69.648438 46.800781 72.023438 44.949219 74.441406 43.152344 C 76.863281 41.359375 79.324219 39.625 81.832031 37.949219 C 84.335938 36.273438 86.882812 34.664062 89.464844 33.113281 C 92.050781 31.566406 94.671875 30.082031 97.328125 28.660156 C 99.988281 27.238281 102.675781 25.882812 105.402344 24.597656 C 108.125 23.308594 110.878906 22.085938 113.664062 20.933594 C 116.449219 19.78125 119.257812 18.695312 122.09375 17.679688 C 124.933594 16.667969 127.792969 15.722656 130.675781 14.847656 C 133.558594 13.972656 136.464844 13.167969 139.386719 12.4375 C 142.308594 11.703125 145.25 11.042969 148.203125 10.457031 C 151.160156 9.867188 154.128906 9.351562 157.109375 8.910156 C 160.089844 8.46875 163.078125 8.101562 166.078125 7.804688 C 169.078125 7.507812 172.082031 7.289062 175.089844 7.140625 C 178.101562 6.992188 181.113281 6.917969 184.125 6.917969 C 187.136719 6.917969 190.148438 6.992188 193.160156 7.140625 C 196.167969 7.289062 199.171875 7.507812 202.171875 7.804688 C 205.171875 8.101562 208.160156 8.46875 211.140625 8.910156 C 214.121094 9.351562 217.089844 9.867188 220.046875 10.457031 C 223 11.042969 225.941406 11.703125 228.863281 12.4375 C 231.785156 13.167969 234.691406 13.972656 237.574219 14.847656 C 240.457031 15.722656 243.316406 16.667969 246.15625 17.679688 C 248.992188 18.695312 251.800781 19.78125 254.585938 20.933594 C 257.371094 22.085938 260.125 23.308594 262.847656 24.597656 C 265.574219 25.882812 268.261719 27.238281 270.921875 28.660156 C 273.578125 30.082031 276.199219 31.566406 278.785156 33.113281 C 281.367188 34.664062 283.914062 36.273438 286.417969 37.949219 C 288.925781 39.625 291.386719 41.359375 293.808594 43.152344 C 296.226562 44.949219 298.601562 46.800781 300.933594 48.710938 C 303.261719 50.625 305.542969 52.59375 307.777344 54.617188 C 310.007812 56.640625 312.191406 58.714844 314.320312 60.847656 C 316.453125 62.976562 318.527344 65.160156 320.550781 67.394531 C 322.578125 69.625 324.542969 71.90625 326.457031 74.234375 C 328.367188 76.566406 330.21875 78.941406 332.015625 81.359375 C 333.8125 83.78125 335.546875 86.242188 337.21875 88.75 C 338.894531 91.253906 340.503906 93.800781 342.054688 96.382812 C 343.601562 98.96875 345.089844 101.589844 346.507812 104.246094 C 347.929688 106.90625 349.285156 109.597656 350.570312 112.320312 C 351.859375 115.042969 353.082031 117.796875 354.234375 120.582031 C 355.386719 123.367188 356.472656 126.175781 357.488281 129.011719 C 358.5 131.851562 359.445312 134.710938 360.320312 137.59375 C 361.195312 140.476562 362 143.382812 362.730469 146.304688 C 363.464844 149.226562 364.125 152.167969 364.710938 155.121094 C 365.300781 158.078125 365.816406 161.046875 366.257812 164.027344 C 366.699219 167.007812 367.066406 169.996094 367.363281 172.996094 C 367.660156 175.996094 367.878906 179 368.027344 182.007812 C 368.175781 185.019531 368.25 188.03125 368.25 191.042969 Z M 368.25 191.042969 " fill-opacity="1" fill-rule="nonzero"/></g><path fill="#105c2f" d="M 221.222656 212.59375 L 221.222656 212.5625 L 278.707031 169.824219 L 231.066406 169.292969 L 229.53125 169.292969 L 207.042969 169.023438 L 184.160156 101.097656 L 161.273438 169.023438 L 89.609375 169.824219 L 147.09375 212.5625 L 147.09375 212.59375 L 147.125 212.628906 L 125.742188 280.988281 L 184.160156 239.519531 L 184.191406 239.550781 L 184.226562 239.519531 L 242.542969 280.953125 L 221.191406 212.59375 Z M 229.429688 180.199219 L 246.113281 180.402344 L 217.621094 201.585938 L 210.679688 180.234375 L 229.429688 180.234375 Z M 184.125 135.328125 L 195.566406 169.257812 L 172.683594 169.257812 Z M 122.105469 180.367188 L 138.785156 180.167969 L 157.535156 180.167969 L 150.597656 201.519531 Z M 145.792969 253.261719 L 156.402344 219.402344 L 174.75 232.746094 Z M 184.125 226.007812 L 159.871094 208.390625 L 169.046875 180.167969 L 199.203125 180.167969 L 208.378906 208.390625 Z M 222.425781 253.261719 L 193.5 232.710938 L 211.847656 219.367188 Z M 222.425781 253.261719 " fill-opacity="1" fill-rule="nonzero"/></svg>