<svg xmlns="http://www.w3.org/2000/svg" xmlns:xlink="http://www.w3.org/1999/xlink" width="500" zoomAndPan="magnify" viewBox="0 0 375 374.999991" height="500" preserveAspectRatio="xMidYMid meet" version="1.0"><defs><clipPath id="b2756d7ebe"><path d="M 5.40625 124 L 375 124 L 375 256 L 5.40625 256 Z M 5.40625 124 " clip-rule="nonzero"/></clipPath><clipPath id="68c5403f3e"><path d="M 374.140625 189.957031 C 374.140625 291.695312 291.695312 374.164062 189.957031 374.164062 C 88.21875 374.164062 5.769531 291.695312 5.769531 189.957031 C 5.769531 88.21875 88.21875 5.746094 189.957031 5.746094 C 291.695312 5.746094 374.140625 88.21875 374.140625 189.957031 Z M 374.140625 189.957031 " clip-rule="nonzero"/></clipPath><clipPath id="be4c3961cf"><path d="M 5.40625 255 L 375 255 L 375 375 L 5.40625 375 Z M 5.40625 255 " clip-rule="nonzero"/></clipPath><clipPath id="85fea560e0"><path d="M 374.140625 189.957031 C 374.140625 291.695312 291.695312 374.164062 189.957031 374.164062 C 88.21875 374.164062 5.769531 291.695312 5.769531 189.957031 C 5.769531 88.21875 88.21875 5.746094 189.957031 5.746094 C 291.695312 5.746094 374.140625 88.21875 374.140625 189.957031 Z M 374.140625 189.957031 " clip-rule="nonzero"/></clipPath><clipPath id="8b169014b7"><path d="M 5.40625 5.40625 L 375 5.40625 L 375 124.972656 L 5.40625 124.972656 Z M 5.40625 5.40625 " clip-rule="nonzero"/></clipPath><clipPath id="156eef7e6a"><path d="M 374.140625 189.957031 C 374.140625 291.695312 291.695312 374.164062 189.957031 374.164062 C 88.21875 374.164062 5.769531 291.695312 5.769531 189.957031 C 5.769531 88.21875 88.21875 5.746094 189.957031 5.746094 C 291.695312 5.746094 374.140625 88.21875 374.140625 189.957031 Z M 374.140625 189.957031 " clip-rule="nonzero"/></clipPath><clipPath id="b60eabd5f8"><path d="M 5.40625 5.40625 L 189.957031 5.40625 L 189.957031 375 L 5.40625 375 Z M 5.40625 5.40625 " clip-rule="nonzero"/></clipPath><clipPath id="1f9dce839f"><path d="M 374.140625 189.957031 C 374.140625 291.695312 291.695312 374.164062 189.957031 374.164062 C 88.21875 374.164062 5.769531 291.695312 5.769531 189.957031 C 5.769531 88.21875 88.21875 5.746094 189.957031 5.746094 C 291.695312 5.746094 374.140625 88.21875 374.140625 189.957031 Z M 374.140625 189.957031 " clip-rule="nonzero"/></clipPath><clipPath id="9fa45ed26a"><path d="M 5.40625 5.40625 L 375 5.40625 L 375 375 L 5.40625 375 Z M 5.40625 5.40625 " clip-rule="nonzero"/></clipPath></defs><g clip-path="url(#b2756d7ebe)"><g clip-path="url(#68c5403f3e)"><path fill="#ffffff" d="M -49.667969 255.34375 L -49.667969 124.59375 L 502.9375 124.59375 L 502.9375 255.34375 L -49.667969 255.34375 " fill-opacity="1" fill-rule="nonzero"/></g></g><g clip-path="url(#be4c3961cf)"><g clip-path="url(#85fea560e0)"><path fill="#237a39" d="M -49.667969 374.164062 L 502.9375 374.164062 L 502.9375 255.34375 L -49.667969 255.34375 L -49.667969 374.164062 " fill-opacity="1" fill-rule="nonzero"/></g></g><g clip-path="url(#8b169014b7)"><g clip-path="url(#156eef7e6a)"><path fill="#100f0d" d="M -49.667969 5.769531 L -49.667969 124.59375 L 502.9375 124.59375 L 502.9375 5.769531 L -49.667969 5.769531 " fill-opacity="1" fill-rule="nonzero"/></g></g><g clip-path="url(#b60eabd5f8)"><g clip-path="url(#1f9dce839f)"><path fill="#d01e27" d="M 189.957031 189.957031 L -49.667969 374.164062 L -49.667969 5.746094 Z M 189.957031 189.957031 " fill-opacity="1" fill-rule="nonzero"/></g></g><g clip-path="url(#9fa45ed26a)"><path stroke-linecap="butt" transform="matrix(0.649824, 0, 0, -0.649824, -4.99149, 384.90308)" fill="none" stroke-linejoin="miter" d="M 583.437955 299.998127 C 583.437955 143.435355 456.564702 16.526035 300.001931 16.526035 C 143.439159 16.526035 16.559895 143.435355 16.559895 299.998127 C 16.559895 456.560898 143.439159 583.47623 300.001931 583.47623 C 456.564702 583.47623 583.437955 456.560898 583.437955 299.998127 Z M 583.437955 299.998127 " stroke="#929292" stroke-width="1.984" stroke-opacity="1" stroke-miterlimit="4"/></g></svg>