<svg xmlns="http://www.w3.org/2000/svg" xmlns:xlink="http://www.w3.org/1999/xlink" width="500" zoomAndPan="magnify" viewBox="0 0 375 374.999991" height="500" preserveAspectRatio="xMidYMid meet" version="1.0"><defs><filter x="0%" y="0%" width="100%" height="100%" id="017b45cec2"><feColorMatrix values="0 0 0 0 1 0 0 0 0 1 0 0 0 0 1 0 0 0 1 0" color-interpolation-filters="sRGB"/></filter><mask id="3a9a141313"><g filter="url(#017b45cec2)"><rect x="-37.5" width="450" fill="#000000" y="-37.499999" height="449.999989" fill-opacity="0.31"/></g></mask><clipPath id="8a184aa21a"><path d="M 0.238281 2 L 25 2 L 25 96 L 0.238281 96 Z M 0.238281 2 " clip-rule="nonzero"/></clipPath><clipPath id="fe0d514b74"><path d="M 76 2 L 99 2 L 99 96 L 76 96 Z M 76 2 " clip-rule="nonzero"/></clipPath><clipPath id="055921a075"><path d="M 112 2 L 137 2 L 137 96 L 112 96 Z M 112 2 " clip-rule="nonzero"/></clipPath><clipPath id="031e6c157d"><rect x="0" width="138" y="0" height="96"/></clipPath><clipPath id="b4c9bf387b"><path d="M 243 352 L 259 352 L 259 361.859375 L 243 361.859375 Z M 243 352 " clip-rule="nonzero"/></clipPath><clipPath id="97a17e7ad6"><path d="M 271.007812 335.355469 C 271.007812 335.355469 266.574219 342.476562 260.613281 338.320312 L 243.804688 361.859375 L 279.296875 343.886719 Z M 271.007812 335.355469 " clip-rule="nonzero"/></clipPath><clipPath id="244e031056"><path d="M 217 359 L 231 359 L 231 368.324219 L 217 368.324219 Z M 217 359 " clip-rule="nonzero"/></clipPath><clipPath id="0cc82044c1"><path d="M 253.210938 355.949219 C 253.210938 355.949219 246.136719 360.457031 242.554688 354.128906 L 217.230469 368.085938 L 256.996094 367.226562 Z M 253.210938 355.949219 " clip-rule="nonzero"/></clipPath></defs><path fill="#ffffff" d="M 294.488281 167.476562 L 355.050781 167.476562 C 364.40625 167.476562 371.394531 175.277344 369.476562 183.578125 L 350.132812 267.335938 L 350.132812 274.46875 C 350.132812 278.84375 346.222656 282.386719 341.398438 282.386719 L 263.417969 282.386719 L 263.417969 252.183594 L 317.28125 248.398438 Z M 294.488281 167.476562 " fill-opacity="1" fill-rule="nonzero"/><path fill="#ffad65" d="M 313.539062 192.722656 L 322.847656 228.296875 C 323.648438 232.257812 327.675781 234.675781 331.546875 233.515625 C 334.773438 232.546875 336.820312 229.378906 336.378906 226.035156 L 331.054688 196.433594 Z M 313.539062 192.722656 " fill-opacity="1" fill-rule="nonzero"/><path fill="#000000" d="M 15.785156 0 L 269.175781 0 L 269.175781 173.226562 L 15.785156 173.226562 Z M 15.785156 0 " fill-opacity="1" fill-rule="nonzero"/><path fill="#ffffff" d="M 264.460938 4.714844 L 264.460938 168.511719 L 20.496094 168.511719 L 20.496094 4.714844 Z M 264.460938 4.714844 " fill-opacity="1" fill-rule="nonzero"/><path fill="#000000" d="M 102.308594 361.273438 L 112.085938 365.984375 C 113.125 366.480469 113.75 367.625 113.429688 368.707031 C 113.175781 369.5625 112.339844 370.21875 110.164062 370.253906 C 105.328125 370.339844 83.933594 367.21875 83.933594 367.21875 L 83.933594 369.410156 L 74.007812 368.316406 C 74.007812 368.316406 73.3125 357.234375 76.335938 355.613281 Z M 102.308594 361.273438 " fill-opacity="1" fill-rule="nonzero"/><path fill="#ffad65" d="M 89.207031 351.917969 L 102.308594 361.273438 C 102.308594 361.273438 100.621094 365.503906 93.15625 362.683594 C 85.691406 359.863281 76.335938 355.617188 76.335938 355.617188 L 77.28125 349.304688 Z M 89.207031 351.917969 " fill-opacity="1" fill-rule="nonzero"/><path fill="#ffad65" d="M 77.226562 350.71875 L 78.46875 316.757812 L 94.726562 315.835938 L 92.066406 356.292969 Z M 77.226562 350.71875 " fill-opacity="1" fill-rule="nonzero"/><path fill="#000000" d="M 53.816406 361.273438 L 63.597656 365.984375 C 64.632812 366.480469 65.261719 367.625 64.9375 368.707031 C 64.683594 369.5625 63.847656 370.21875 61.675781 370.253906 C 56.839844 370.339844 35.445312 367.21875 35.445312 367.21875 L 35.445312 369.410156 L 25.515625 368.316406 C 25.515625 368.316406 24.820312 357.234375 27.84375 355.613281 Z M 53.816406 361.273438 " fill-opacity="1" fill-rule="nonzero"/><path fill="#ffad65" d="M 40.714844 351.917969 L 53.816406 361.273438 C 53.816406 361.273438 52.132812 365.503906 44.667969 362.683594 C 37.199219 359.863281 27.847656 355.617188 27.847656 355.617188 L 28.789062 349.304688 Z M 40.714844 351.917969 " fill-opacity="1" fill-rule="nonzero"/><path fill="#ffad65" d="M 28.738281 350.71875 L 29.980469 316.757812 L 46.238281 315.835938 L 43.578125 356.292969 Z M 28.738281 350.71875 " fill-opacity="1" fill-rule="nonzero"/><path fill="#000000" d="M 66.3125 24.949219 C 65.589844 24.929688 64.074219 26.875 63.617188 27.441406 C 62.570312 28.734375 61.523438 30.039062 60.65625 31.464844 C 57.265625 37.023438 57.125 43.191406 56.695312 49.496094 C 56.265625 55.742188 55.335938 62.082031 52.558594 67.695312 C 51.195312 70.441406 49.410156 72.984375 48.292969 75.839844 C 47.179688 78.699219 46.816406 82.070312 48.320312 84.742188 C 48.460938 84.988281 48.621094 85.238281 48.867188 85.378906 C 56.027344 89.476562 65.074219 90.746094 73.113281 88.90625 C 75.339844 88.394531 77.550781 87.703125 79.511719 86.527344 C 85.074219 83.1875 87.746094 76.4375 88.289062 69.96875 C 88.828125 63.503906 87.636719 57.03125 87.371094 50.546875 C 87.175781 45.816406 87.433594 40.855469 85.339844 36.613281 C 84.378906 34.664062 82.972656 32.980469 81.574219 31.316406 C 80.105469 29.5625 78.59375 27.777344 76.617188 26.625 C 73.765625 24.964844 69.613281 25.042969 66.3125 24.949219 Z M 66.3125 24.949219 " fill-opacity="1" fill-rule="nonzero"/><path fill="#3f2952" d="M 100.261719 144.785156 C 100.261719 144.785156 105.703125 148.304688 106.6875 177.695312 C 106.890625 183.738281 106.773438 192.132812 106.394531 198.164062 L 97.371094 340.847656 L 73.382812 340.847656 L 78.230469 187.503906 L 47.570312 340.847656 L 24.222656 340.1875 L 50.503906 144.785156 L 74.105469 141.90625 Z M 100.261719 144.785156 " fill-opacity="1" fill-rule="nonzero"/><path fill="#000000" d="M 77.308594 187.851562 C 77.140625 187.851562 76.996094 187.730469 76.96875 187.5625 C 76.9375 187.375 77.066406 187.195312 77.253906 187.164062 L 90.992188 184.882812 C 91.175781 184.867188 91.355469 184.980469 91.386719 185.167969 C 91.417969 185.355469 91.292969 185.535156 91.105469 185.566406 L 77.363281 187.84375 C 77.34375 187.847656 77.328125 187.851562 77.308594 187.851562 Z M 77.308594 187.851562 " fill-opacity="1" fill-rule="nonzero"/><path fill="#ffad65" d="M 115.492188 151.089844 L 154.019531 112.085938 L 149.75 105.75 C 149.75 105.75 122.242188 125.078125 104.671875 138.96875 C 101.882812 141.171875 103.589844 147.851562 106.007812 150.453125 C 108.277344 152.894531 113.054688 153.355469 115.492188 151.089844 Z M 115.492188 151.089844 " fill-opacity="1" fill-rule="nonzero"/><path fill="#ffad65" d="M 150.523438 113.164062 C 150.523438 113.164062 157.160156 113.679688 161.832031 108.347656 L 168.515625 106.496094 C 169.554688 106.207031 170.199219 105.203125 170.027344 104.144531 C 169.839844 102.996094 168.769531 102.179688 167.601562 102.296875 L 163.429688 102.71875 L 164.582031 101.855469 C 166.410156 100.480469 168.675781 99.765625 171.003906 99.828125 L 177.632812 100.003906 C 178.386719 100.027344 179.082031 99.640625 179.445312 99 C 180.152344 97.757812 179.347656 96.175781 177.902344 95.957031 L 169.214844 94.636719 C 165.851562 94.125 162.460938 95.066406 159.914062 97.210938 L 146.238281 108.75 Z M 150.523438 113.164062 " fill-opacity="1" fill-rule="nonzero"/><path fill="#ffad65" d="M 92.851562 95.539062 C 92.851562 95.539062 96.164062 124.605469 102.992188 146.765625 C 103.8125 149.429688 108.917969 153.035156 111.703125 153.21875 C 115.902344 153.496094 119.324219 149.898438 118.835938 145.714844 L 110.507812 93.828125 Z M 92.851562 95.539062 " fill-opacity="1" fill-rule="nonzero"/><path fill="#f89a00" d="M 100.785156 77.464844 C 100.785156 77.464844 114.902344 85.882812 117.648438 108.6875 L 97.488281 119.769531 Z M 100.785156 77.464844 " fill-opacity="1" fill-rule="nonzero"/><path fill="#f89a00" d="M 97.488281 119.769531 L 120.371094 112.921875 L 118.417969 106.511719 L 98.003906 112.003906 Z M 97.488281 119.769531 " fill-opacity="1" fill-rule="nonzero"/><path fill="#f89a00" d="M 73.8125 70.34375 C 66.863281 70.933594 60.007812 72.460938 53.53125 75.054688 C 51.945312 75.6875 50.382812 76.386719 48.953125 77.132812 C 44.449219 79.492188 45.796875 84.582031 46.363281 89.78125 L 49.007812 160.074219 L 105.695312 158.632812 L 107.945312 92.097656 C 108.441406 84.851562 104.15625 78.191406 97.527344 75.855469 C 90.105469 73.234375 81.042969 70.304688 77.09375 70.0625 Z M 73.8125 70.34375 " fill-opacity="1" fill-rule="nonzero"/><path fill="#000000" d="M 106.289062 116.578125 C 106.28125 116.578125 106.273438 116.578125 106.265625 116.578125 C 106.074219 116.566406 105.929688 116.398438 105.945312 116.210938 L 107.355469 95.625 C 107.367188 95.433594 107.535156 95.300781 107.722656 95.304688 C 107.910156 95.316406 108.054688 95.480469 108.042969 95.671875 L 106.632812 116.257812 C 106.617188 116.4375 106.46875 116.578125 106.289062 116.578125 Z M 106.289062 116.578125 " fill-opacity="1" fill-rule="nonzero"/><path fill="#f89a00" d="M 94.1875 74.695312 C 94.1875 74.695312 83.753906 70.605469 77.09375 70.0625 C 77.09375 70.0625 67.992188 70.449219 61.738281 72.378906 C 61.738281 72.378906 65.207031 79.785156 81.179688 81 C 97.15625 82.214844 94.1875 74.695312 94.1875 74.695312 Z M 94.1875 74.695312 " fill-opacity="1" fill-rule="nonzero"/><path fill="#ffad65" d="M 17.347656 110.210938 L 44.003906 150.941406 L 36.824219 159.089844 L 7.398438 129.167969 Z M 17.347656 110.210938 " fill-opacity="1" fill-rule="nonzero"/><path fill="#ffad65" d="M 68.496094 152.792969 L 57.09375 146.777344 L 58.214844 144.179688 C 58.621094 143.234375 58.371094 142.121094 57.597656 141.464844 C 56.800781 140.785156 55.660156 140.765625 54.84375 141.417969 L 43.613281 150.570312 L 36.824219 159.089844 C 42.984375 164.5625 47.011719 164.496094 49.328125 163.433594 C 49.601562 163.527344 49.867188 163.632812 50.140625 163.714844 L 59.621094 166.535156 C 60.496094 166.925781 61.515625 166.542969 61.945312 165.660156 C 62.257812 165.015625 62.367188 163.988281 60.542969 163.027344 L 62.367188 163.988281 C 63.292969 164.40625 64.371094 163.984375 64.804688 163.035156 C 65.210938 162.199219 64.710938 161.09375 63.640625 160.371094 L 65.035156 160.941406 C 66.046875 161.394531 67.238281 160.878906 67.617188 159.765625 C 67.945312 158.800781 67.453125 157.738281 66.574219 157.277344 L 64.5625 156.21875 L 66.953125 156.820312 C 68.054688 157.222656 69.285156 156.613281 69.644531 155.414062 C 69.953125 154.386719 69.421875 153.285156 68.496094 152.792969 Z M 68.496094 152.792969 " fill-opacity="1" fill-rule="nonzero"/><path fill="#000000" d="M 65.164062 156.738281 C 65.132812 156.738281 65.097656 156.734375 65.066406 156.71875 L 58.328125 153.414062 C 58.214844 153.359375 58.171875 153.226562 58.222656 153.117188 C 58.277344 153.003906 58.414062 152.960938 58.523438 153.011719 L 65.265625 156.3125 C 65.375 156.371094 65.421875 156.503906 65.367188 156.613281 C 65.328125 156.695312 65.25 156.738281 65.164062 156.738281 Z M 65.164062 156.738281 " fill-opacity="1" fill-rule="nonzero"/><path fill="#000000" d="M 63.351562 160.472656 C 63.324219 160.472656 63.292969 160.46875 63.265625 160.453125 L 56.765625 157.644531 C 56.652344 157.597656 56.601562 157.464844 56.648438 157.351562 C 56.699219 157.238281 56.832031 157.183594 56.941406 157.234375 L 63.441406 160.042969 C 63.558594 160.09375 63.609375 160.226562 63.558594 160.335938 C 63.523438 160.421875 63.441406 160.472656 63.351562 160.472656 Z M 63.351562 160.472656 " fill-opacity="1" fill-rule="nonzero"/><path fill="#000000" d="M 61.148438 163.5 C 61.117188 163.5 61.089844 163.496094 61.0625 163.484375 L 55.554688 161.226562 C 55.441406 161.183594 55.382812 161.050781 55.433594 160.9375 C 55.476562 160.824219 55.609375 160.765625 55.722656 160.8125 L 61.230469 163.066406 C 61.34375 163.113281 61.402344 163.246094 61.351562 163.359375 C 61.320312 163.445312 61.234375 163.5 61.148438 163.5 Z M 61.148438 163.5 " fill-opacity="1" fill-rule="nonzero"/><path fill="#ffad65" d="M 54.734375 98.980469 L 20.835938 129.324219 C 17.671875 132.644531 12.679688 133.152344 8.953125 130.535156 C 4.257812 127.238281 3.449219 120.394531 7.242188 116.015625 L 39.117188 83.695312 C 42.929688 79.296875 49.382812 78.753906 53.824219 82.457031 C 58.789062 86.59375 59.214844 94.28125 54.734375 98.980469 Z M 54.734375 98.980469 " fill-opacity="1" fill-rule="nonzero"/><path fill="#f89a00" d="M 55.480469 74.308594 C 55.480469 74.308594 41.867188 77.0625 24.96875 98.046875 L 39.441406 117.480469 L 61.492188 101.089844 Z M 55.480469 74.308594 " fill-opacity="1" fill-rule="nonzero"/><path fill="#f89a00" d="M 39.011719 117.777344 L 44.894531 113.40625 L 29.035156 91.449219 L 23.03125 95.894531 Z M 39.011719 117.777344 " fill-opacity="1" fill-rule="nonzero"/><path fill="#000000" d="M 46.925781 112.261719 C 46.820312 112.261719 46.71875 112.210938 46.652344 112.121094 C 46.535156 111.96875 46.570312 111.75 46.722656 111.636719 L 59.515625 102.132812 C 59.667969 102.019531 59.882812 102.050781 59.996094 102.203125 C 60.109375 102.355469 60.078125 102.570312 59.925781 102.683594 L 47.132812 112.191406 C 47.070312 112.238281 47 112.261719 46.925781 112.261719 Z M 46.925781 112.261719 " fill-opacity="1" fill-rule="nonzero"/><path fill="#000000" d="M 79.242188 20.246094 C 79.242188 20.246094 92.367188 16.375 98.730469 22.03125 C 108.042969 30.316406 96.527344 36.566406 96.527344 36.566406 Z M 79.242188 20.246094 " fill-opacity="1" fill-rule="nonzero"/><path fill="#000000" d="M 99.226562 38.664062 C 99.25 39.292969 99.242188 39.917969 99.199219 40.542969 C 99.15625 41.167969 99.082031 41.792969 98.976562 42.410156 C 98.871094 43.03125 98.734375 43.644531 98.566406 44.25 C 98.398438 44.855469 98.199219 45.453125 97.96875 46.042969 C 97.738281 46.628906 97.480469 47.203125 97.191406 47.769531 C 96.902344 48.332031 96.585938 48.882812 96.238281 49.414062 C 95.894531 49.949219 95.523438 50.46875 95.125 50.964844 C 94.726562 51.464844 94.300781 51.945312 93.855469 52.40625 C 93.40625 52.867188 92.9375 53.304688 92.445312 53.71875 C 91.953125 54.136719 91.4375 54.527344 90.90625 54.894531 C 90.375 55.265625 89.824219 55.605469 89.253906 55.921875 C 88.6875 56.238281 88.105469 56.527344 87.507812 56.789062 C 86.910156 57.050781 86.300781 57.285156 85.679688 57.492188 C 85.058594 57.695312 84.429688 57.871094 83.789062 58.015625 C 83.152344 58.164062 82.507812 58.277344 81.855469 58.363281 C 81.203125 58.449219 80.550781 58.503906 79.894531 58.527344 C 79.238281 58.550781 78.582031 58.542969 77.929688 58.507812 C 77.273438 58.46875 76.621094 58.402344 75.972656 58.304688 C 75.324219 58.203125 74.683594 58.074219 74.050781 57.917969 C 73.414062 57.757812 72.792969 57.570312 72.175781 57.351562 C 71.5625 57.136719 70.960938 56.890625 70.371094 56.613281 C 69.78125 56.339844 69.207031 56.039062 68.648438 55.710938 C 68.089844 55.382812 67.550781 55.03125 67.027344 54.652344 C 66.507812 54.273438 66.007812 53.871094 65.527344 53.445312 C 65.046875 53.019531 64.589844 52.570312 64.15625 52.101562 C 63.722656 51.632812 63.3125 51.144531 62.929688 50.636719 C 62.546875 50.128906 62.1875 49.605469 61.859375 49.0625 C 61.53125 48.523438 61.230469 47.96875 60.957031 47.398438 C 60.683594 46.828125 60.441406 46.246094 60.230469 45.65625 C 60.015625 45.0625 59.835938 44.460938 59.683594 43.851562 C 59.535156 43.242188 59.414062 42.625 59.328125 42.003906 C 59.242188 41.382812 59.1875 40.761719 59.164062 40.132812 C 59.140625 39.507812 59.148438 38.882812 59.191406 38.253906 C 59.234375 37.628906 59.304688 37.007812 59.410156 36.386719 C 59.515625 35.769531 59.652344 35.15625 59.824219 34.550781 C 59.992188 33.941406 60.191406 33.34375 60.421875 32.757812 C 60.648438 32.167969 60.910156 31.59375 61.199219 31.03125 C 61.488281 30.464844 61.804688 29.917969 62.148438 29.382812 C 62.496094 28.847656 62.867188 28.332031 63.265625 27.832031 C 63.664062 27.332031 64.085938 26.851562 64.535156 26.394531 C 64.984375 25.933594 65.453125 25.496094 65.945312 25.078125 C 66.4375 24.664062 66.949219 24.269531 67.484375 23.902344 C 68.015625 23.535156 68.566406 23.191406 69.132812 22.875 C 69.703125 22.558594 70.285156 22.269531 70.882812 22.007812 C 71.480469 21.746094 72.089844 21.511719 72.710938 21.308594 C 73.332031 21.101562 73.960938 20.929688 74.601562 20.78125 C 75.238281 20.636719 75.882812 20.519531 76.535156 20.433594 C 77.183594 20.351562 77.839844 20.296875 78.496094 20.269531 C 79.152344 20.246094 79.804688 20.253906 80.460938 20.292969 C 81.117188 20.328125 81.769531 20.398438 82.417969 20.496094 C 83.0625 20.59375 83.707031 20.722656 84.339844 20.882812 C 84.972656 21.039062 85.597656 21.230469 86.214844 21.445312 C 86.828125 21.664062 87.429688 21.910156 88.019531 22.183594 C 88.609375 22.457031 89.183594 22.757812 89.742188 23.085938 C 90.300781 23.414062 90.839844 23.769531 91.363281 24.148438 C 91.882812 24.527344 92.382812 24.929688 92.863281 25.355469 C 93.34375 25.78125 93.800781 26.226562 94.234375 26.695312 C 94.667969 27.167969 95.078125 27.65625 95.460938 28.160156 C 95.84375 28.667969 96.203125 29.195312 96.53125 29.734375 C 96.859375 30.277344 97.160156 30.832031 97.433594 31.402344 C 97.707031 31.96875 97.949219 32.550781 98.160156 33.144531 C 98.375 33.738281 98.554688 34.335938 98.707031 34.949219 C 98.855469 35.558594 98.972656 36.171875 99.0625 36.792969 C 99.148438 37.414062 99.203125 38.039062 99.226562 38.664062 Z M 99.226562 38.664062 " fill-opacity="1" fill-rule="nonzero"/><path fill="#ffad65" d="M 103.367188 45.894531 C 103.367188 46.234375 103.335938 46.574219 103.269531 46.90625 C 103.203125 47.242188 103.105469 47.566406 102.972656 47.882812 C 102.84375 48.195312 102.683594 48.496094 102.492188 48.777344 C 102.304688 49.0625 102.089844 49.324219 101.847656 49.566406 C 101.609375 49.804688 101.347656 50.019531 101.0625 50.210938 C 100.78125 50.398438 100.480469 50.558594 100.164062 50.691406 C 99.851562 50.820312 99.527344 50.917969 99.191406 50.984375 C 98.859375 51.050781 98.519531 51.085938 98.179688 51.085938 C 97.839844 51.085938 97.503906 51.050781 97.167969 50.984375 C 96.835938 50.917969 96.511719 50.820312 96.195312 50.691406 C 95.882812 50.558594 95.582031 50.398438 95.300781 50.210938 C 95.015625 50.019531 94.753906 49.804688 94.511719 49.566406 C 94.273438 49.324219 94.058594 49.0625 93.867188 48.777344 C 93.679688 48.496094 93.519531 48.195312 93.386719 47.882812 C 93.257812 47.566406 93.160156 47.242188 93.09375 46.90625 C 93.027344 46.574219 92.992188 46.234375 92.992188 45.894531 C 92.992188 45.554688 93.027344 45.214844 93.09375 44.882812 C 93.160156 44.546875 93.257812 44.222656 93.386719 43.910156 C 93.519531 43.59375 93.679688 43.296875 93.867188 43.011719 C 94.058594 42.726562 94.273438 42.464844 94.511719 42.226562 C 94.753906 41.984375 95.015625 41.769531 95.300781 41.578125 C 95.582031 41.390625 95.882812 41.230469 96.195312 41.101562 C 96.511719 40.96875 96.835938 40.871094 97.167969 40.804688 C 97.503906 40.738281 97.839844 40.703125 98.179688 40.703125 C 98.519531 40.703125 98.859375 40.738281 99.191406 40.804688 C 99.527344 40.871094 99.851562 40.96875 100.164062 41.101562 C 100.480469 41.230469 100.78125 41.390625 101.0625 41.578125 C 101.347656 41.769531 101.609375 41.984375 101.847656 42.226562 C 102.089844 42.464844 102.304688 42.726562 102.492188 43.011719 C 102.683594 43.296875 102.84375 43.59375 102.972656 43.910156 C 103.105469 44.222656 103.203125 44.546875 103.269531 44.882812 C 103.335938 45.214844 103.367188 45.554688 103.367188 45.894531 Z M 103.367188 45.894531 " fill-opacity="1" fill-rule="nonzero"/><path fill="#ffad65" d="M 86.1875 57.910156 L 86.507812 77.699219 L 71.835938 77.398438 L 73.851562 47.382812 Z M 86.1875 57.910156 " fill-opacity="1" fill-rule="nonzero"/><path fill="#000000" d="M 86.355469 68.34375 L 75.375 56.597656 L 86.1875 57.910156 Z M 86.355469 68.34375 " fill-opacity="1" fill-rule="nonzero"/><path fill="#ffad65" d="M 96.210938 27.433594 C 97.558594 28.492188 98.449219 30.015625 98.84375 31.675781 C 100.015625 36.601562 102.285156 45.273438 100.722656 50.601562 C 98.6875 57.535156 93.308594 62.597656 84.261719 61.214844 C 84.261719 61.214844 73.457031 60.523438 70.742188 46.960938 C 66.421875 25.355469 84.667969 18.375 96.210938 27.433594 Z M 96.210938 27.433594 " fill-opacity="1" fill-rule="nonzero"/><path fill="#000000" d="M 94.414062 48.6875 C 94.273438 48.6875 94.144531 48.589844 94.113281 48.441406 C 94.074219 48.273438 94.179688 48.109375 94.347656 48.070312 L 95.617188 47.789062 C 95.710938 47.757812 95.78125 47.636719 95.75 47.515625 L 94.855469 45.332031 C 94.789062 45.171875 94.867188 44.992188 95.023438 44.925781 C 95.183594 44.859375 95.363281 44.9375 95.429688 45.09375 L 96.339844 47.320312 C 96.464844 47.800781 96.214844 48.253906 95.777344 48.386719 L 94.484375 48.679688 C 94.460938 48.683594 94.4375 48.6875 94.414062 48.6875 Z M 94.414062 48.6875 " fill-opacity="1" fill-rule="nonzero"/><path fill="#000000" d="M 89.488281 42.941406 C 89.488281 43.109375 89.453125 43.269531 89.390625 43.425781 C 89.324219 43.582031 89.234375 43.71875 89.117188 43.835938 C 88.996094 43.957031 88.859375 44.046875 88.707031 44.109375 C 88.550781 44.175781 88.386719 44.207031 88.21875 44.207031 C 88.054688 44.207031 87.890625 44.175781 87.734375 44.109375 C 87.582031 44.046875 87.445312 43.957031 87.324219 43.835938 C 87.207031 43.71875 87.117188 43.582031 87.050781 43.425781 C 86.988281 43.269531 86.953125 43.109375 86.953125 42.941406 C 86.953125 42.773438 86.988281 42.609375 87.050781 42.457031 C 87.117188 42.300781 87.207031 42.164062 87.324219 42.046875 C 87.445312 41.925781 87.582031 41.835938 87.734375 41.769531 C 87.890625 41.707031 88.054688 41.675781 88.21875 41.675781 C 88.386719 41.675781 88.550781 41.707031 88.707031 41.769531 C 88.859375 41.835938 88.996094 41.925781 89.117188 42.046875 C 89.234375 42.164062 89.324219 42.300781 89.390625 42.457031 C 89.453125 42.609375 89.488281 42.773438 89.488281 42.941406 Z M 89.488281 42.941406 " fill-opacity="1" fill-rule="nonzero"/><path fill="#000000" d="M 97.097656 42.503906 C 97.097656 43.152344 97.621094 43.679688 98.269531 43.679688 C 98.917969 43.679688 99.441406 43.152344 99.441406 42.503906 C 99.441406 41.855469 98.917969 41.332031 98.269531 41.332031 C 97.621094 41.332031 97.097656 41.855469 97.097656 42.503906 Z M 97.097656 42.503906 " fill-opacity="1" fill-rule="nonzero"/><path fill="#000000" d="M 92.832031 52.214844 C 91.507812 52.214844 89.917969 51.867188 88.449219 50.648438 C 88.316406 50.539062 88.300781 50.339844 88.410156 50.210938 C 88.519531 50.078125 88.714844 50.058594 88.847656 50.167969 C 91.839844 52.65625 95.515625 51.089844 95.550781 51.070312 C 95.710938 51 95.890625 51.074219 95.960938 51.230469 C 96.03125 51.386719 95.960938 51.570312 95.804688 51.640625 C 95.710938 51.683594 94.476562 52.214844 92.832031 52.214844 Z M 92.832031 52.214844 " fill-opacity="1" fill-rule="nonzero"/><path fill="#000000" d="M 96.503906 35.570312 C 96.503906 35.570312 96.03125 36.992188 97.804688 37.285156 C 99.148438 37.503906 100.003906 37.625 100.753906 37.953125 C 101.183594 38.136719 101.679688 37.984375 101.9375 37.597656 C 102.140625 37.285156 102.148438 36.878906 101.941406 36.566406 C 101.527344 35.929688 100.636719 34.941406 99.003906 34.648438 C 96.902344 34.273438 96.503906 35.570312 96.503906 35.570312 Z M 96.503906 35.570312 " fill-opacity="1" fill-rule="nonzero"/><path fill="#000000" d="M 90.300781 35.628906 C 90.300781 35.628906 90.84375 37.0625 88.558594 37.316406 C 86.824219 37.503906 84.75 38.160156 83.769531 38.46875 C 83.214844 38.644531 82.582031 38.480469 82.273438 38.085938 C 82.023438 37.765625 82.03125 37.363281 82.308594 37.054688 C 82.875 36.425781 85.03125 34.90625 87.140625 34.652344 C 89.847656 34.328125 90.300781 35.628906 90.300781 35.628906 Z M 90.300781 35.628906 " fill-opacity="1" fill-rule="nonzero"/><path fill="#000000" d="M 92.023438 23.566406 C 92.023438 23.566406 94.101562 34.816406 66.953125 33.304688 C 66.953125 33.304688 65.367188 17.578125 92.023438 23.566406 Z M 92.023438 23.566406 " fill-opacity="1" fill-rule="nonzero"/><path fill="#000000" d="M 75.375 31.007812 L 73.851562 47.382812 L 61.023438 36.476562 Z M 75.375 31.007812 " fill-opacity="1" fill-rule="nonzero"/><path fill="#ffad65" d="M 63.800781 49.832031 C 64.867188 52.941406 68.253906 54.597656 71.359375 53.527344 C 74.464844 52.460938 76.121094 49.074219 75.054688 45.96875 C 73.984375 42.859375 70.601562 41.203125 67.496094 42.273438 C 64.390625 43.339844 62.734375 46.726562 63.800781 49.832031 Z M 63.800781 49.832031 " fill-opacity="1" fill-rule="nonzero"/><path fill="#000000" d="M 71.632812 49.503906 C 71.488281 49.503906 71.359375 49.40625 71.328125 49.257812 C 71.050781 48 70.496094 47.136719 69.679688 46.691406 C 68.378906 45.980469 66.808594 46.546875 66.792969 46.554688 C 66.628906 46.613281 66.453125 46.53125 66.390625 46.371094 C 66.332031 46.207031 66.414062 46.03125 66.574219 45.96875 C 66.648438 45.941406 68.417969 45.292969 69.972656 46.140625 C 70.957031 46.675781 71.617188 47.679688 71.933594 49.125 C 71.972656 49.292969 71.867188 49.460938 71.699219 49.496094 C 71.675781 49.5 71.65625 49.503906 71.632812 49.503906 Z M 71.632812 49.503906 " fill-opacity="1" fill-rule="nonzero"/><path fill="#ffffff" d="M 82.921875 77.929688 L 72.46875 70.878906 L 72.574219 66.941406 L 70.769531 66.941406 C 70.023438 66.941406 69.308594 67.25 68.78125 67.800781 L 65.503906 71.226562 L 73.03125 83.039062 C 73.820312 84.277344 75.457031 84.519531 76.542969 83.5625 Z M 82.921875 77.929688 " fill-opacity="1" fill-rule="nonzero"/><path fill="#ffffff" d="M 86.203125 66.941406 L 87.558594 66.941406 C 88.5 66.941406 89.375 67.433594 89.898438 68.25 L 92.164062 71.792969 L 91.175781 82.03125 C 91.078125 83.070312 89.921875 83.589844 89.132812 82.953125 L 82.921875 77.929688 L 86.417969 71.804688 Z M 86.203125 66.941406 " fill-opacity="1" fill-rule="nonzero"/><path fill="#ffffff" d="M 84.003906 82.808594 C 84.003906 83.4375 83.519531 83.941406 82.921875 83.941406 C 82.328125 83.941406 81.84375 83.4375 81.84375 82.808594 C 81.84375 82.183594 82.328125 81.675781 82.921875 81.675781 C 83.519531 81.675781 84.003906 82.183594 84.003906 82.808594 Z M 84.003906 82.808594 " fill-opacity="1" fill-rule="nonzero"/><path fill="#ffffff" d="M 84.246094 87.324219 C 84.246094 87.953125 83.761719 88.457031 83.164062 88.457031 C 82.566406 88.457031 82.082031 87.953125 82.082031 87.324219 C 82.082031 86.699219 82.566406 86.191406 83.164062 86.191406 C 83.761719 86.191406 84.246094 86.699219 84.246094 87.324219 Z M 84.246094 87.324219 " fill-opacity="1" fill-rule="nonzero"/><path fill="#ffffff" d="M 246.875 282.386719 L 232.441406 375.023438 L 222.945312 375.023438 L 234.910156 281.042969 Z M 246.875 282.386719 " fill-opacity="1" fill-rule="nonzero"/><path fill="#ffffff" d="M 298.730469 281.042969 L 309.765625 375.023438 L 320.78125 375.023438 L 311.980469 281.042969 Z M 298.730469 281.042969 " fill-opacity="1" fill-rule="nonzero"/><path fill="#ffffff" d="M 334.074219 282.386719 L 348.507812 375.023438 L 358.003906 375.023438 L 346.039062 281.042969 Z M 334.074219 282.386719 " fill-opacity="1" fill-rule="nonzero"/><path fill="#ffffff" d="M 246.875 282.386719 L 232.441406 375.023438 L 222.945312 375.023438 L 234.910156 281.042969 Z M 246.875 282.386719 " fill-opacity="1" fill-rule="nonzero"/><path fill="#ffffff" d="M 298.730469 281.042969 L 309.765625 375.023438 L 320.78125 375.023438 L 311.980469 281.042969 Z M 298.730469 281.042969 " fill-opacity="1" fill-rule="nonzero"/><path fill="#ffffff" d="M 334.074219 282.386719 L 348.507812 375.023438 L 358.003906 375.023438 L 346.039062 281.042969 Z M 334.074219 282.386719 " fill-opacity="1" fill-rule="nonzero"/><g mask="url(#3a9a141313)"><g transform="matrix(1, 0, 0, 1, 222, 279)"><g clip-path="url(#031e6c157d)"><g clip-path="url(#8a184aa21a)"><path fill="#000000" d="M 24.875 3.386719 L 10.441406 96.023438 L 0.945312 96.023438 L 12.910156 2.042969 Z M 24.875 3.386719 " fill-opacity="1" fill-rule="nonzero"/></g><g clip-path="url(#fe0d514b74)"><path fill="#000000" d="M 76.730469 2.042969 L 87.765625 96.023438 L 98.78125 96.023438 L 89.980469 2.042969 Z M 76.730469 2.042969 " fill-opacity="1" fill-rule="nonzero"/></g><g clip-path="url(#055921a075)"><path fill="#000000" d="M 112.074219 3.386719 L 126.507812 96.023438 L 136.003906 96.023438 L 124.039062 2.042969 Z M 112.074219 3.386719 " fill-opacity="1" fill-rule="nonzero"/></g></g></g></g><path fill="#ffffff" d="M 228.183594 368.085938 L 234.910156 365.570312 L 253.179688 365.832031 L 257 367.226562 L 250.785156 369.394531 L 230.695312 369.394531 Z M 228.183594 368.085938 " fill-opacity="1" fill-rule="nonzero"/><path fill="#ffffff" d="M 279.296875 343.886719 L 259.320312 351.8125 L 238.515625 361.347656 L 240 365.3125 L 262.667969 353.230469 L 279.003906 344.769531 Z M 279.296875 343.886719 " fill-opacity="1" fill-rule="nonzero"/><path fill="#ffffff" d="M 264.546875 321.945312 L 272.511719 338.972656 L 263.992188 343.625 L 254.4375 326.988281 Z M 264.546875 321.945312 " fill-opacity="1" fill-rule="nonzero"/><path fill="#000000" d="M 271.007812 335.355469 C 271.007812 335.355469 266.574219 342.476562 260.613281 338.320312 L 243.804688 361.859375 L 279.296875 343.886719 Z M 271.007812 335.355469 " fill-opacity="1" fill-rule="nonzero"/><g clip-path="url(#b4c9bf387b)"><g clip-path="url(#97a17e7ad6)"><path fill="#ffffff" d="M 244.273438 352.597656 C 244.273438 352.597656 253.714844 349.527344 258.488281 360.800781 L 241.199219 364.214844 Z M 244.273438 352.597656 " fill-opacity="1" fill-rule="nonzero"/></g></g><path fill="#ffffff" d="M 243.789062 361.863281 L 279.28125 343.886719 L 280.851562 346.992188 L 245.359375 364.964844 Z M 243.789062 361.863281 " fill-opacity="1" fill-rule="nonzero"/><path fill="#ffffff" d="M 260.863281 345.609375 C 260.75 345.621094 260.632812 345.597656 260.523438 345.546875 C 258.238281 344.421875 256.402344 344.21875 256.382812 344.21875 C 256.023438 344.179688 255.773438 343.863281 255.824219 343.511719 C 255.878906 343.160156 256.21875 342.910156 256.574219 342.941406 C 256.65625 342.949219 258.648438 343.164062 261.160156 344.394531 C 261.480469 344.554688 261.597656 344.9375 261.421875 345.253906 C 261.304688 345.464844 261.089844 345.59375 260.863281 345.609375 Z M 260.863281 345.609375 " fill-opacity="1" fill-rule="nonzero"/><path fill="#ffffff" d="M 258.679688 348.519531 C 258.566406 348.527344 258.449219 348.507812 258.339844 348.453125 C 256.054688 347.328125 254.21875 347.128906 254.199219 347.125 C 253.839844 347.089844 253.589844 346.773438 253.644531 346.417969 C 253.695312 346.066406 254.039062 345.8125 254.390625 345.847656 C 254.476562 345.855469 256.464844 346.070312 258.976562 347.300781 C 259.296875 347.460938 259.414062 347.84375 259.238281 348.164062 C 259.121094 348.371094 258.90625 348.5 258.679688 348.519531 Z M 258.679688 348.519531 " fill-opacity="1" fill-rule="nonzero"/><path fill="#ffffff" d="M 256.5 351.425781 C 256.382812 351.433594 256.265625 351.414062 256.160156 351.359375 C 253.871094 350.234375 252.035156 350.035156 252.015625 350.03125 C 251.65625 349.996094 251.40625 349.679688 251.460938 349.324219 C 251.511719 348.972656 251.855469 348.71875 252.207031 348.753906 C 252.292969 348.761719 254.28125 348.976562 256.792969 350.207031 C 257.113281 350.367188 257.230469 350.75 257.058594 351.070312 C 256.9375 351.277344 256.722656 351.40625 256.5 351.425781 Z M 256.5 351.425781 " fill-opacity="1" fill-rule="nonzero"/><path fill="#ffffff" d="M 253.179688 341.0625 L 253.003906 359.863281 L 243.3125 360.375 L 241.886719 341.238281 Z M 253.179688 341.0625 " fill-opacity="1" fill-rule="nonzero"/><path fill="#000000" d="M 253.210938 355.949219 C 253.210938 355.949219 246.136719 360.457031 242.554688 354.128906 L 217.230469 368.085938 L 256.996094 367.226562 Z M 253.210938 355.949219 " fill-opacity="1" fill-rule="nonzero"/><g clip-path="url(#244e031056)"><g clip-path="url(#0cc82044c1)"><path fill="#ffffff" d="M 221.652344 359.933594 C 221.652344 359.933594 231.496094 361.25 230.929688 373.476562 L 213.863281 369.082031 Z M 221.652344 359.933594 " fill-opacity="1" fill-rule="nonzero"/></g></g><path fill="#ffffff" d="M 217.242188 368.09375 L 257.011719 367.234375 L 257.085938 370.710938 L 217.316406 371.574219 Z M 217.242188 368.09375 " fill-opacity="1" fill-rule="nonzero"/><path fill="#ffffff" d="M 239.632812 360.8125 C 239.527344 360.769531 239.429688 360.699219 239.355469 360.605469 C 237.777344 358.601562 236.210938 357.625 236.195312 357.617188 C 235.886719 357.425781 235.796875 357.03125 235.996094 356.738281 C 236.195312 356.445312 236.613281 356.367188 236.917969 356.546875 C 236.992188 356.589844 238.691406 357.644531 240.425781 359.84375 C 240.644531 360.125 240.585938 360.523438 240.289062 360.734375 C 240.09375 360.871094 239.84375 360.894531 239.632812 360.8125 Z M 239.632812 360.8125 " fill-opacity="1" fill-rule="nonzero"/><path fill="#ffffff" d="M 236.410156 362.488281 C 236.300781 362.445312 236.203125 362.375 236.128906 362.28125 C 234.550781 360.28125 232.984375 359.304688 232.96875 359.292969 C 232.660156 359.101562 232.570312 358.710938 232.773438 358.414062 C 232.972656 358.121094 233.390625 358.039062 233.691406 358.226562 C 233.765625 358.269531 235.46875 359.320312 237.199219 361.519531 C 237.417969 361.800781 237.359375 362.199219 237.066406 362.410156 C 236.867188 362.546875 236.617188 362.570312 236.410156 362.488281 Z M 236.410156 362.488281 " fill-opacity="1" fill-rule="nonzero"/><path fill="#ffffff" d="M 233.183594 364.164062 C 233.078125 364.125 232.980469 364.054688 232.90625 363.957031 C 231.328125 361.957031 229.761719 360.980469 229.742188 360.96875 C 229.433594 360.78125 229.34375 360.386719 229.546875 360.089844 C 229.746094 359.796875 230.164062 359.714844 230.46875 359.902344 C 230.539062 359.945312 232.242188 360.996094 233.972656 363.195312 C 234.195312 363.476562 234.132812 363.871094 233.839844 364.085938 C 233.644531 364.226562 233.394531 364.246094 233.183594 364.164062 Z M 233.183594 364.164062 " fill-opacity="1" fill-rule="nonzero"/><path fill="#ffad65" d="M 278.359375 229.878906 C 278.347656 230.519531 278.335938 231.15625 278.324219 231.792969 C 278.09375 241.808594 276.90625 251.714844 276.101562 261.707031 C 275.199219 267.492188 272.816406 269.289062 270.921875 269.777344 C 270.816406 269.957031 270.703125 270.128906 270.585938 270.296875 L 266.4375 276.164062 C 266.113281 276.773438 265.332031 277.035156 264.636719 276.75 C 264.140625 276.546875 263.578125 276.058594 264.140625 274.707031 L 263.566406 276.046875 C 263.230469 276.695312 262.390625 276.960938 261.664062 276.644531 C 261.003906 276.378906 260.753906 275.558594 261.027344 274.675781 L 260.488281 275.621094 C 260.117188 276.324219 259.171875 276.589844 258.386719 276.164062 C 257.71875 275.792969 257.488281 274.996094 257.765625 274.347656 L 258.367188 272.976562 L 258.421875 272.847656 L 257.316406 274.273438 C 256.878906 274.996094 255.851562 275.230469 255.046875 274.738281 C 254.351562 274.335938 254.121094 273.496094 254.421875 272.804688 L 258.113281 264.34375 L 256.175781 263.449219 C 255.460938 263.132812 255.058594 262.410156 255.183594 261.707031 C 255.3125 260.972656 255.980469 260.441406 256.773438 260.421875 L 267.796875 260.21875 C 264.996094 239.445312 262.597656 218.71875 260.613281 197.871094 C 260.566406 193.128906 264.835938 189.21875 269.898438 189.21875 C 270.070312 189.21875 270.242188 189.21875 270.425781 189.226562 C 275.164062 189.484375 275.183594 194.425781 276.132812 198.730469 C 278.328125 208.691406 278.460938 219.089844 278.359375 229.878906 Z M 278.359375 229.878906 " fill-opacity="1" fill-rule="nonzero"/><path fill="#000000" d="M 258.21875 273.453125 C 258.195312 273.453125 258.167969 273.449219 258.144531 273.4375 C 258.0625 273.398438 258.027344 273.300781 258.066406 273.21875 L 260.378906 268.351562 C 260.417969 268.269531 260.515625 268.234375 260.597656 268.273438 C 260.683594 268.3125 260.71875 268.410156 260.679688 268.492188 L 258.367188 273.359375 C 258.339844 273.421875 258.28125 273.453125 258.21875 273.453125 Z M 258.21875 273.453125 " fill-opacity="1" fill-rule="nonzero"/><path fill="#000000" d="M 261.132812 274.640625 C 261.105469 274.640625 261.078125 274.632812 261.050781 274.621094 C 260.972656 274.578125 260.941406 274.476562 260.984375 274.394531 L 263.398438 269.90625 C 263.441406 269.824219 263.542969 269.796875 263.625 269.839844 C 263.703125 269.882812 263.734375 269.984375 263.691406 270.0625 L 261.277344 274.554688 C 261.246094 274.609375 261.1875 274.640625 261.132812 274.640625 Z M 261.132812 274.640625 " fill-opacity="1" fill-rule="nonzero"/><path fill="#000000" d="M 263.925781 275.261719 C 263.898438 275.261719 263.871094 275.257812 263.84375 275.242188 C 263.761719 275.195312 263.734375 275.097656 263.78125 275.015625 L 265.890625 271.28125 C 265.933594 271.199219 266.035156 271.171875 266.113281 271.21875 C 266.195312 271.261719 266.222656 271.363281 266.175781 271.441406 L 264.070312 275.179688 C 264.039062 275.234375 263.984375 275.261719 263.925781 275.261719 Z M 263.925781 275.261719 " fill-opacity="1" fill-rule="nonzero"/><path fill="#f89a00" d="M 319.625 239.597656 L 319.625 260.210938 C 319.625 269.570312 311.859375 277.050781 302.515625 276.703125 L 267.640625 275.429688 L 263.3125 308.691406 L 270.488281 330.5 L 260.027344 333.957031 L 258.074219 348.984375 L 238.535156 347.496094 L 238.1875 304.988281 L 226.140625 280.398438 C 222.429688 272.832031 225.828125 263.847656 233.761719 260.222656 L 242.007812 256.460938 C 245.4375 252.105469 250.480469 249.113281 256.210938 248.328125 Z M 319.625 239.597656 " fill-opacity="1" fill-rule="nonzero"/><path fill="#3f2952" d="M 273.539062 174.023438 C 273.539062 174.023438 261.054688 181.464844 258.628906 201.628906 L 276.453125 211.429688 Z M 273.539062 174.023438 " fill-opacity="1" fill-rule="nonzero"/><path fill="#3f2952" d="M 297.386719 167.726562 C 303.535156 168.25 309.59375 169.597656 315.320312 171.890625 C 317.539062 172.777344 320.019531 173.859375 321.371094 175.941406 C 323.1875 178.730469 321.773438 181.878906 321.660156 184.910156 C 321.660156 184.914062 319.964844 247.066406 319.964844 247.066406 L 269.046875 247.066406 L 267.210938 186.960938 C 266.773438 180.550781 270.5625 174.664062 276.417969 172.597656 C 282.984375 170.28125 290.996094 167.6875 294.488281 167.476562 Z M 297.386719 167.726562 " fill-opacity="1" fill-rule="nonzero"/><path fill="#000000" d="M 268.21875 207.738281 C 268.066406 207.738281 267.933594 207.613281 267.933594 207.457031 L 267.472656 189.21875 C 267.46875 189.058594 267.59375 188.925781 267.753906 188.921875 C 267.902344 188.933594 268.046875 189.042969 268.046875 189.203125 L 268.507812 207.441406 C 268.511719 207.601562 268.386719 207.734375 268.226562 207.738281 C 268.226562 207.738281 268.222656 207.738281 268.21875 207.738281 Z M 268.21875 207.738281 " fill-opacity="1" fill-rule="nonzero"/><path fill="#ffad65" d="M 279.375 171.574219 C 279.375 171.574219 288.597656 167.957031 294.488281 167.476562 C 294.488281 167.476562 302.535156 167.820312 308.066406 169.523438 C 308.066406 169.523438 304.996094 176.074219 290.875 177.148438 C 276.75 178.222656 279.375 171.574219 279.375 171.574219 Z M 279.375 171.574219 " fill-opacity="1" fill-rule="nonzero"/><path fill="#3f2952" d="M 318.691406 173.480469 C 318.691406 173.480469 332.597656 180.980469 334.871094 210 L 314.457031 216.480469 L 307.074219 193.328125 Z M 318.691406 173.480469 " fill-opacity="1" fill-rule="nonzero"/><path fill="#000000" d="M 237.867188 304.636719 C 237.867188 304.636719 237.863281 304.636719 237.863281 304.636719 C 237.691406 304.632812 237.550781 304.492188 237.554688 304.320312 C 237.554688 304.148438 237.730469 286.996094 237.539062 274.480469 C 237.347656 261.847656 241.570312 256.492188 241.75 256.269531 C 241.855469 256.132812 242.054688 256.113281 242.191406 256.222656 C 242.324219 256.332031 242.34375 256.527344 242.238281 256.664062 C 242.195312 256.714844 237.980469 262.089844 238.167969 274.46875 C 238.359375 286.996094 238.179688 304.152344 238.179688 304.324219 C 238.179688 304.5 238.039062 304.636719 237.867188 304.636719 Z M 237.867188 304.636719 " fill-opacity="1" fill-rule="nonzero"/><path fill="#000000" d="M 260.035156 334.265625 C 260.019531 334.265625 260.007812 334.265625 259.992188 334.261719 C 259.820312 334.242188 259.699219 334.082031 259.722656 333.910156 L 262.929688 309.242188 C 262.949219 309.070312 263.101562 308.949219 263.28125 308.972656 C 263.453125 308.992188 263.574219 309.152344 263.550781 309.324219 L 260.34375 333.992188 C 260.324219 334.152344 260.1875 334.265625 260.035156 334.265625 Z M 260.035156 334.265625 " fill-opacity="1" fill-rule="nonzero"/><path fill="#000000" d="M 315.023438 216.613281 C 314.863281 216.613281 314.730469 216.496094 314.710938 216.335938 L 312.011719 192.761719 C 311.996094 192.585938 312.117188 192.429688 312.289062 192.410156 C 312.457031 192.390625 312.617188 192.515625 312.636719 192.6875 L 315.335938 216.265625 C 315.355469 216.4375 315.230469 216.59375 315.058594 216.613281 C 315.046875 216.613281 315.035156 216.613281 315.023438 216.613281 Z M 315.023438 216.613281 " fill-opacity="1" fill-rule="nonzero"/><path fill="#ffffff" d="M 217.230469 368.085938 L 224.113281 366.847656 L 230.316406 367.804688 L 226.535156 369.125 L 219.5625 369.125 Z M 217.230469 368.085938 " fill-opacity="1" fill-rule="nonzero"/><path fill="#ffffff" d="M 177.304688 229.503906 L 349.800781 229.503906 L 349.800781 236.582031 L 177.304688 236.582031 Z M 177.304688 229.503906 " fill-opacity="1" fill-rule="nonzero"/><path fill="#000000" d="M 177.304688 229.503906 L 349.800781 229.503906 L 349.800781 236.582031 L 177.304688 236.582031 Z M 177.304688 229.503906 " fill-opacity="0.27" fill-rule="nonzero"/><path fill="#ffad65" d="M 288.542969 229.75 L 329.296875 229.5625 C 332.53125 229.519531 335.796875 225.410156 335.707031 222.175781 C 335.605469 218.582031 331.859375 214.8125 328.335938 215.523438 L 288.472656 223.496094 Z M 288.542969 229.75 " fill-opacity="1" fill-rule="nonzero"/><path fill="#ffad65" d="M 290.703125 223.296875 C 290.703125 223.296875 272.820312 219.019531 272.820312 229.75 L 288.546875 229.75 Z M 290.703125 223.296875 " fill-opacity="1" fill-rule="nonzero"/><path fill="#000000" d="M 315.058594 138.816406 C 315.058594 138.816406 338.203125 132.945312 327.695312 157.59375 C 325.871094 161.871094 324.796875 165.351562 324.253906 168.1875 C 322.8125 175.675781 311.671875 175.019531 311.265625 167.402344 C 311.070312 163.753906 312.097656 159.085938 315.039062 153.125 C 315.039062 153.125 319.777344 144.433594 314.28125 142.429688 Z M 315.058594 138.816406 " fill-opacity="1" fill-rule="nonzero"/><path fill="#f89a00" d="M 317.003906 140.246094 C 317.003906 140.53125 316.976562 140.8125 316.917969 141.09375 C 316.863281 141.375 316.78125 141.648438 316.671875 141.910156 C 316.5625 142.175781 316.429688 142.425781 316.269531 142.664062 C 316.109375 142.902344 315.929688 143.121094 315.726562 143.324219 C 315.527344 143.527344 315.304688 143.707031 315.066406 143.867188 C 314.832031 144.023438 314.578125 144.160156 314.316406 144.269531 C 314.050781 144.378906 313.777344 144.460938 313.5 144.515625 C 313.21875 144.570312 312.9375 144.601562 312.648438 144.601562 C 312.363281 144.601562 312.082031 144.570312 311.800781 144.515625 C 311.519531 144.460938 311.246094 144.378906 310.984375 144.269531 C 310.71875 144.160156 310.46875 144.023438 310.230469 143.867188 C 309.992188 143.707031 309.773438 143.527344 309.570312 143.324219 C 309.371094 143.121094 309.1875 142.902344 309.03125 142.664062 C 308.871094 142.425781 308.738281 142.175781 308.628906 141.910156 C 308.519531 141.648438 308.4375 141.375 308.378906 141.09375 C 308.324219 140.8125 308.296875 140.53125 308.296875 140.246094 C 308.296875 139.957031 308.324219 139.675781 308.378906 139.394531 C 308.4375 139.113281 308.519531 138.84375 308.628906 138.578125 C 308.738281 138.3125 308.871094 138.0625 309.03125 137.824219 C 309.1875 137.585938 309.371094 137.367188 309.570312 137.164062 C 309.773438 136.964844 309.992188 136.78125 310.230469 136.625 C 310.46875 136.464844 310.71875 136.332031 310.984375 136.222656 C 311.246094 136.113281 311.519531 136.027344 311.800781 135.972656 C 312.082031 135.917969 312.363281 135.890625 312.648438 135.890625 C 312.9375 135.890625 313.21875 135.917969 313.5 135.972656 C 313.777344 136.027344 314.050781 136.113281 314.316406 136.222656 C 314.578125 136.332031 314.832031 136.464844 315.066406 136.625 C 315.304688 136.78125 315.527344 136.964844 315.726562 137.164062 C 315.929688 137.367188 316.109375 137.585938 316.269531 137.824219 C 316.429688 138.0625 316.5625 138.3125 316.671875 138.578125 C 316.78125 138.84375 316.863281 139.113281 316.917969 139.394531 C 316.976562 139.675781 317.003906 139.957031 317.003906 140.246094 Z M 317.003906 140.246094 " fill-opacity="1" fill-rule="nonzero"/><path fill="#000000" d="M 299.6875 123.164062 C 299.6875 123.164062 288.953125 117.3125 282.335938 121.050781 C 272.644531 126.527344 281.523438 134.15625 281.523438 134.15625 Z M 299.6875 123.164062 " fill-opacity="1" fill-rule="nonzero"/><path fill="#000000" d="M 300.332031 123.316406 C 300.902344 123.460938 301.460938 123.632812 302.015625 123.832031 C 302.566406 124.027344 303.105469 124.25 303.636719 124.496094 C 304.167969 124.746094 304.683594 125.015625 305.1875 125.3125 C 305.691406 125.609375 306.179688 125.925781 306.652344 126.269531 C 307.125 126.609375 307.578125 126.972656 308.015625 127.355469 C 308.453125 127.738281 308.867188 128.140625 309.265625 128.5625 C 309.660156 128.984375 310.035156 129.421875 310.386719 129.878906 C 310.738281 130.335938 311.066406 130.804688 311.371094 131.292969 C 311.675781 131.777344 311.953125 132.277344 312.207031 132.789062 C 312.460938 133.300781 312.6875 133.820312 312.890625 134.351562 C 313.089844 134.882812 313.265625 135.421875 313.410156 135.96875 C 313.558594 136.515625 313.675781 137.066406 313.765625 137.625 C 313.855469 138.179688 313.917969 138.738281 313.949219 139.300781 C 313.984375 139.863281 313.988281 140.421875 313.964844 140.984375 C 313.941406 141.542969 313.886719 142.101562 313.804688 142.65625 C 313.722656 143.210938 313.613281 143.757812 313.476562 144.300781 C 313.339844 144.84375 313.171875 145.378906 312.980469 145.902344 C 312.785156 146.429688 312.566406 146.945312 312.320312 147.449219 C 312.074219 147.953125 311.804688 148.445312 311.507812 148.921875 C 311.210938 149.398438 310.886719 149.859375 310.542969 150.304688 C 310.199219 150.753906 309.832031 151.179688 309.441406 151.589844 C 309.050781 152 308.644531 152.390625 308.210938 152.761719 C 307.78125 153.132812 307.332031 153.484375 306.867188 153.8125 C 306.398438 154.140625 305.914062 154.445312 305.417969 154.726562 C 304.917969 155.007812 304.402344 155.261719 303.875 155.496094 C 303.351562 155.730469 302.8125 155.9375 302.261719 156.117188 C 301.714844 156.296875 301.15625 156.453125 300.589844 156.582031 C 300.023438 156.710938 299.453125 156.8125 298.875 156.886719 C 298.296875 156.960938 297.714844 157.003906 297.132812 157.023438 C 296.546875 157.042969 295.964844 157.035156 295.378906 157 C 294.792969 156.964844 294.210938 156.902344 293.632812 156.808594 C 293.054688 156.71875 292.480469 156.601562 291.914062 156.457031 C 291.34375 156.3125 290.785156 156.140625 290.230469 155.945312 C 289.679688 155.746094 289.136719 155.523438 288.609375 155.277344 C 288.078125 155.03125 287.558594 154.757812 287.054688 154.460938 C 286.550781 154.167969 286.0625 153.847656 285.59375 153.507812 C 285.121094 153.164062 284.664062 152.804688 284.230469 152.421875 C 283.792969 152.035156 283.378906 151.632812 282.980469 151.210938 C 282.585938 150.789062 282.210938 150.351562 281.859375 149.894531 C 281.507812 149.441406 281.179688 148.96875 280.875 148.484375 C 280.570312 147.996094 280.292969 147.5 280.039062 146.988281 C 279.785156 146.476562 279.554688 145.953125 279.355469 145.421875 C 279.152344 144.890625 278.980469 144.351562 278.832031 143.804688 C 278.6875 143.257812 278.570312 142.707031 278.480469 142.152344 C 278.390625 141.59375 278.328125 141.035156 278.292969 140.472656 C 278.261719 139.914062 278.257812 139.351562 278.28125 138.789062 C 278.304688 138.230469 278.359375 137.671875 278.441406 137.117188 C 278.523438 136.566406 278.632812 136.015625 278.769531 135.472656 C 278.90625 134.929688 279.074219 134.398438 279.265625 133.871094 C 279.457031 133.34375 279.679688 132.828125 279.925781 132.324219 C 280.171875 131.820312 280.441406 131.332031 280.738281 130.855469 C 281.035156 130.375 281.355469 129.914062 281.703125 129.46875 C 282.046875 129.023438 282.414062 128.59375 282.804688 128.183594 C 283.191406 127.773438 283.601562 127.382812 284.035156 127.011719 C 284.464844 126.640625 284.914062 126.292969 285.378906 125.964844 C 285.847656 125.636719 286.328125 125.332031 286.828125 125.050781 C 287.328125 124.769531 287.84375 124.511719 288.367188 124.277344 C 288.894531 124.046875 289.433594 123.839844 289.984375 123.65625 C 290.53125 123.476562 291.089844 123.320312 291.65625 123.195312 C 292.222656 123.066406 292.792969 122.964844 293.371094 122.890625 C 293.949219 122.816406 294.53125 122.769531 295.113281 122.75 C 295.699219 122.730469 296.28125 122.738281 296.867188 122.773438 C 297.449219 122.8125 298.03125 122.875 298.613281 122.964844 C 299.191406 123.054688 299.765625 123.171875 300.332031 123.316406 Z M 300.332031 123.316406 " fill-opacity="1" fill-rule="nonzero"/><path fill="#ffad65" d="M 286.925781 156.042969 L 286.640625 173.71875 L 299.746094 173.449219 L 297.941406 146.636719 Z M 286.925781 156.042969 " fill-opacity="1" fill-rule="nonzero"/><path fill="#000000" d="M 286.773438 165.363281 L 296.582031 154.867188 L 286.925781 156.042969 Z M 286.773438 165.363281 " fill-opacity="1" fill-rule="nonzero"/><path fill="#ffad65" d="M 283.34375 126.328125 C 282.0625 126.96875 281.078125 128.074219 280.457031 129.371094 C 278.515625 133.433594 274.855469 140.640625 275.21875 145.621094 C 275.691406 152.058594 279.4375 157.492188 287.59375 157.988281 C 287.59375 157.988281 297.160156 159.417969 302.082031 148.089844 C 309.957031 129.949219 295.15625 120.414062 283.34375 126.328125 Z M 283.34375 126.328125 " fill-opacity="1" fill-rule="nonzero"/><path fill="#000000" d="M 281.144531 145.144531 C 281.105469 145.144531 281.066406 145.136719 281.027344 145.117188 L 279.972656 144.628906 C 279.597656 144.417969 279.460938 143.976562 279.644531 143.613281 L 280.875 141.808594 C 280.964844 141.683594 281.132812 141.648438 281.261719 141.738281 C 281.390625 141.824219 281.421875 142 281.332031 142.125 L 280.121094 143.894531 C 280.089844 143.960938 280.125 144.082031 280.222656 144.136719 L 281.257812 144.609375 C 281.398438 144.675781 281.460938 144.839844 281.394531 144.980469 C 281.351562 145.082031 281.25 145.144531 281.144531 145.144531 Z M 281.144531 145.144531 " fill-opacity="1" fill-rule="nonzero"/><path fill="#000000" d="M 288.707031 141.289062 C 288.707031 141.4375 288.679688 141.582031 288.621094 141.71875 C 288.5625 141.859375 288.480469 141.980469 288.375 142.085938 C 288.269531 142.191406 288.148438 142.273438 288.007812 142.332031 C 287.871094 142.390625 287.726562 142.417969 287.578125 142.417969 C 287.425781 142.417969 287.28125 142.390625 287.144531 142.332031 C 287.003906 142.273438 286.882812 142.191406 286.777344 142.085938 C 286.671875 141.980469 286.589844 141.859375 286.53125 141.71875 C 286.476562 141.582031 286.445312 141.4375 286.445312 141.289062 C 286.445312 141.136719 286.476562 140.992188 286.53125 140.855469 C 286.589844 140.714844 286.671875 140.59375 286.777344 140.488281 C 286.882812 140.382812 287.003906 140.300781 287.144531 140.242188 C 287.28125 140.183594 287.425781 140.15625 287.578125 140.15625 C 287.726562 140.15625 287.871094 140.183594 288.007812 140.242188 C 288.148438 140.300781 288.269531 140.382812 288.375 140.488281 C 288.480469 140.59375 288.5625 140.714844 288.621094 140.855469 C 288.679688 140.992188 288.707031 141.136719 288.707031 141.289062 Z M 288.707031 141.289062 " fill-opacity="1" fill-rule="nonzero"/><path fill="#000000" d="M 279.910156 139.234375 C 279.789062 139.800781 279.230469 140.160156 278.664062 140.039062 C 278.097656 139.917969 277.738281 139.359375 277.859375 138.792969 C 277.980469 138.226562 278.539062 137.867188 279.105469 137.988281 C 279.671875 138.109375 280.03125 138.667969 279.910156 139.234375 Z M 279.910156 139.234375 " fill-opacity="1" fill-rule="nonzero"/><path fill="#000000" d="M 283.15625 148.660156 C 281.011719 148.660156 279.410156 147.523438 279.320312 147.457031 C 279.195312 147.363281 279.167969 147.191406 279.257812 147.066406 C 279.347656 146.941406 279.523438 146.914062 279.644531 147.003906 C 279.675781 147.027344 282.589844 149.085938 285.667969 147.480469 C 285.804688 147.410156 285.972656 147.460938 286.042969 147.597656 C 286.113281 147.734375 286.0625 147.902344 285.925781 147.972656 C 284.957031 148.480469 284.011719 148.660156 283.15625 148.660156 Z M 283.15625 148.660156 " fill-opacity="1" fill-rule="nonzero"/><path fill="#000000" d="M 281.730469 133.289062 C 281.730469 133.289062 281.875 134.621094 280.273438 134.542969 C 279.058594 134.484375 278.289062 134.425781 277.570312 134.570312 C 277.164062 134.648438 276.757812 134.425781 276.605469 134.039062 C 276.488281 133.726562 276.554688 133.371094 276.796875 133.132812 C 277.277344 132.65625 278.242188 131.964844 279.722656 132.015625 C 281.625 132.085938 281.730469 133.289062 281.730469 133.289062 Z M 281.730469 133.289062 " fill-opacity="1" fill-rule="nonzero"/><path fill="#000000" d="M 287.136719 134.511719 C 287.136719 134.511719 286.394531 135.664062 288.339844 136.3125 C 289.820312 136.804688 291.503906 137.765625 292.304688 138.21875 C 292.757812 138.476562 293.339844 138.453125 293.683594 138.167969 C 293.960938 137.9375 294.027344 137.582031 293.84375 137.257812 C 293.46875 136.605469 291.871094 134.871094 290.078125 134.253906 C 287.777344 133.457031 287.136719 134.511719 287.136719 134.511719 Z M 287.136719 134.511719 " fill-opacity="1" fill-rule="nonzero"/><path fill="#000000" d="M 287.902344 123.652344 C 287.902344 123.652344 283.96875 133.085938 307.960938 136.878906 C 307.960938 136.878906 312.300781 123.449219 287.902344 123.652344 Z M 287.902344 123.652344 " fill-opacity="1" fill-rule="nonzero"/><path fill="#000000" d="M 301.035156 133.285156 L 299.285156 147.871094 L 312.539062 140.765625 Z M 301.035156 133.285156 " fill-opacity="1" fill-rule="nonzero"/><path fill="#ffad65" d="M 307.601562 151.90625 C 306.082031 154.417969 302.816406 155.226562 300.304688 153.707031 C 297.796875 152.191406 296.988281 148.921875 298.503906 146.410156 C 300.019531 143.898438 303.285156 143.089844 305.796875 144.609375 C 308.308594 146.125 309.117188 149.390625 307.601562 151.90625 Z M 307.601562 151.90625 " fill-opacity="1" fill-rule="nonzero"/><path fill="#000000" d="M 300.882812 150.148438 C 300.84375 150.148438 300.804688 150.140625 300.769531 150.121094 C 300.628906 150.058594 300.566406 149.894531 300.628906 149.753906 C 301.179688 148.554688 301.945312 147.800781 302.90625 147.515625 C 304.425781 147.074219 305.847656 147.96875 305.90625 148.007812 C 306.035156 148.089844 306.074219 148.265625 305.988281 148.390625 C 305.90625 148.523438 305.734375 148.558594 305.605469 148.476562 C 305.59375 148.46875 304.324219 147.675781 303.058594 148.054688 C 302.261719 148.289062 301.613281 148.941406 301.136719 149.984375 C 301.089844 150.089844 300.988281 150.148438 300.882812 150.148438 Z M 300.882812 150.148438 " fill-opacity="1" fill-rule="nonzero"/><path fill="#000000" d="M 186.511719 236.582031 L 195.699219 236.582031 L 195.699219 375.023438 L 186.511719 375.023438 Z M 186.511719 236.582031 " fill-opacity="1" fill-rule="nonzero"/><path fill="#000000" d="M 328.523438 236.582031 L 337.707031 236.582031 L 337.707031 375.023438 L 328.523438 375.023438 Z M 328.523438 236.582031 " fill-opacity="1" fill-rule="nonzero"/><path fill="#000000" d="M 148.671875 63.078125 C 148.894531 62.390625 149.109375 61.726562 149.3125 61.09375 C 149.515625 60.460938 149.699219 59.875 149.855469 59.335938 C 150.011719 58.792969 150.136719 58.320312 150.230469 57.902344 C 150.320312 57.488281 150.375 57.160156 150.382812 56.914062 C 150.445312 56.679688 150.550781 56.492188 150.703125 56.351562 C 150.855469 56.214844 151.03125 56.144531 151.230469 56.144531 C 151.347656 56.144531 151.449219 56.171875 151.535156 56.226562 C 151.621094 56.28125 151.6875 56.351562 151.742188 56.441406 C 151.792969 56.53125 151.832031 56.632812 151.855469 56.746094 C 151.882812 56.859375 151.894531 56.972656 151.894531 57.085938 C 151.894531 57.171875 151.890625 57.25 151.878906 57.316406 C 151.871094 57.386719 151.855469 57.457031 151.839844 57.519531 C 151.726562 57.980469 151.589844 58.453125 151.429688 58.945312 C 151.269531 59.433594 151.105469 59.929688 150.941406 60.429688 C 150.773438 60.929688 150.609375 61.433594 150.441406 61.9375 C 150.277344 62.441406 150.132812 62.9375 150 63.421875 L 149.867188 63.929688 C 149.796875 64.1875 149.738281 64.4375 149.6875 64.671875 C 149.636719 64.90625 149.613281 65.09375 149.613281 65.238281 C 149.613281 65.320312 149.628906 65.382812 149.660156 65.429688 C 149.6875 65.476562 149.746094 65.5 149.832031 65.5 C 150.035156 65.5 150.273438 65.46875 150.546875 65.398438 C 150.824219 65.332031 151.105469 65.25 151.402344 65.152344 C 151.695312 65.054688 151.988281 64.949219 152.28125 64.832031 C 152.574219 64.714844 152.839844 64.601562 153.085938 64.5 C 153.214844 64.445312 153.328125 64.394531 153.417969 64.355469 C 153.511719 64.316406 153.625 64.269531 153.761719 64.210938 C 153.898438 64.152344 154.082031 64.078125 154.3125 63.984375 C 154.542969 63.886719 154.859375 63.753906 155.261719 63.585938 C 155.332031 63.558594 155.394531 63.539062 155.445312 63.523438 C 155.5 63.503906 155.546875 63.496094 155.589844 63.496094 C 155.671875 63.496094 155.738281 63.511719 155.796875 63.539062 C 155.855469 63.570312 155.898438 63.609375 155.933594 63.660156 C 155.964844 63.710938 155.988281 63.765625 156.003906 63.832031 C 156.019531 63.894531 156.023438 63.960938 156.023438 64.027344 C 156.023438 64.136719 156.015625 64.234375 156 64.316406 C 155.980469 64.398438 155.960938 64.464844 155.941406 64.519531 C 155.882812 64.617188 155.804688 64.703125 155.710938 64.78125 C 155.617188 64.855469 155.515625 64.925781 155.410156 64.980469 C 155.304688 65.039062 155.203125 65.089844 155.105469 65.128906 C 155.003906 65.167969 154.921875 65.199219 154.855469 65.21875 C 154.777344 65.25 154.671875 65.289062 154.539062 65.335938 C 154.40625 65.386719 154.261719 65.441406 154.109375 65.503906 C 153.953125 65.5625 153.792969 65.625 153.628906 65.683594 C 153.464844 65.746094 153.308594 65.804688 153.164062 65.863281 C 153.019531 65.917969 152.890625 65.964844 152.78125 66.007812 C 152.667969 66.050781 152.589844 66.078125 152.542969 66.09375 C 152.328125 66.171875 152.089844 66.261719 151.828125 66.363281 C 151.566406 66.460938 151.304688 66.558594 151.046875 66.648438 C 150.789062 66.738281 150.542969 66.8125 150.308594 66.875 C 150.078125 66.9375 149.882812 66.96875 149.730469 66.96875 C 149.539062 66.96875 149.390625 66.953125 149.285156 66.925781 C 149.175781 66.894531 149.082031 66.855469 148.996094 66.800781 C 148.910156 66.75 148.824219 66.6875 148.738281 66.609375 C 148.648438 66.535156 148.535156 66.453125 148.390625 66.363281 C 148.261719 66.28125 148.167969 66.171875 148.113281 66.03125 C 148.058594 65.894531 148.03125 65.742188 148.03125 65.585938 C 148.03125 65.503906 148.039062 65.410156 148.050781 65.304688 C 148.0625 65.203125 148.078125 65.09375 148.097656 64.976562 C 148.117188 64.863281 148.140625 64.75 148.164062 64.640625 C 148.191406 64.53125 148.21875 64.433594 148.246094 64.347656 Z M 148.671875 63.078125 " fill-opacity="1" fill-rule="nonzero"/><path fill="#000000" d="M 156.832031 64.050781 C 156.832031 63.835938 156.890625 63.652344 157.007812 63.503906 C 157.121094 63.355469 157.273438 63.253906 157.460938 63.203125 C 157.515625 63.09375 157.601562 62.945312 157.714844 62.757812 C 157.832031 62.570312 157.972656 62.367188 158.144531 62.148438 C 158.3125 61.929688 158.507812 61.710938 158.722656 61.488281 C 158.941406 61.265625 159.179688 61.0625 159.441406 60.882812 C 159.703125 60.699219 159.984375 60.550781 160.289062 60.433594 C 160.589844 60.320312 160.910156 60.261719 161.25 60.261719 C 161.539062 60.261719 161.789062 60.296875 162.003906 60.367188 C 162.21875 60.4375 162.398438 60.535156 162.535156 60.660156 C 162.675781 60.785156 162.78125 60.933594 162.851562 61.105469 C 162.921875 61.277344 162.957031 61.460938 162.957031 61.664062 C 162.957031 61.832031 162.933594 61.996094 162.886719 62.148438 C 162.816406 62.429688 162.6875 62.671875 162.5 62.882812 C 162.308594 63.09375 162.085938 63.277344 161.828125 63.433594 C 161.570312 63.589844 161.292969 63.722656 160.992188 63.828125 C 160.6875 63.929688 160.386719 64.019531 160.085938 64.089844 C 159.78125 64.15625 159.492188 64.210938 159.214844 64.25 C 158.933594 64.289062 158.691406 64.316406 158.488281 64.335938 C 158.441406 64.425781 158.40625 64.539062 158.375 64.675781 C 158.339844 64.8125 158.324219 64.949219 158.324219 65.078125 C 158.324219 65.367188 158.4375 65.589844 158.667969 65.75 C 158.898438 65.910156 159.214844 65.988281 159.621094 65.988281 C 159.851562 65.988281 160.078125 65.964844 160.292969 65.910156 C 160.507812 65.859375 160.710938 65.792969 160.902344 65.710938 C 161.09375 65.628906 161.273438 65.535156 161.445312 65.441406 C 161.613281 65.34375 161.769531 65.246094 161.90625 65.152344 C 162.085938 65.03125 162.257812 64.929688 162.421875 64.847656 C 162.582031 64.765625 162.726562 64.726562 162.851562 64.726562 C 162.976562 64.726562 163.054688 64.757812 163.089844 64.816406 C 163.125 64.878906 163.144531 64.949219 163.144531 65.015625 C 163.144531 65.054688 163.140625 65.09375 163.140625 65.132812 C 163.136719 65.171875 163.132812 65.203125 163.128906 65.226562 C 163.101562 65.355469 163.054688 65.484375 162.976562 65.617188 C 162.902344 65.746094 162.808594 65.859375 162.695312 65.953125 C 162.175781 66.363281 161.640625 66.65625 161.097656 66.828125 C 160.550781 67.003906 159.96875 67.089844 159.347656 67.089844 C 159.230469 67.089844 159.085938 67.082031 158.925781 67.066406 C 158.761719 67.054688 158.59375 67.023438 158.421875 66.980469 C 158.246094 66.933594 158.074219 66.867188 157.90625 66.785156 C 157.734375 66.699219 157.585938 66.585938 157.453125 66.445312 C 157.320312 66.308594 157.210938 66.136719 157.128906 65.929688 C 157.046875 65.726562 157.007812 65.480469 157.007812 65.191406 C 157.007812 64.957031 157.039062 64.695312 157.105469 64.402344 C 157.039062 64.394531 156.976562 64.359375 156.921875 64.300781 C 156.863281 64.246094 156.832031 64.160156 156.832031 64.050781 Z M 161.519531 61.976562 C 161.527344 61.953125 161.535156 61.929688 161.535156 61.910156 C 161.535156 61.890625 161.535156 61.867188 161.535156 61.839844 C 161.535156 61.707031 161.484375 61.605469 161.382812 61.539062 C 161.285156 61.472656 161.164062 61.4375 161.023438 61.4375 C 160.804688 61.4375 160.589844 61.496094 160.378906 61.609375 C 160.167969 61.726562 159.964844 61.867188 159.78125 62.039062 C 159.59375 62.214844 159.425781 62.398438 159.28125 62.59375 C 159.136719 62.792969 159.027344 62.96875 158.945312 63.128906 C 159.304688 63.101562 159.632812 63.050781 159.933594 62.984375 C 160.234375 62.917969 160.492188 62.832031 160.714844 62.730469 C 160.9375 62.628906 161.117188 62.511719 161.253906 62.386719 C 161.390625 62.257812 161.480469 62.121094 161.519531 61.976562 Z M 161.519531 61.976562 " fill-opacity="1" fill-rule="nonzero"/><path fill="#000000" d="M 164.691406 65.617188 C 164.730469 65.617188 164.769531 65.621094 164.800781 65.632812 C 164.832031 65.640625 164.867188 65.652344 164.90625 65.664062 C 164.949219 65.679688 164.992188 65.6875 165.042969 65.699219 C 165.09375 65.710938 165.15625 65.714844 165.238281 65.714844 C 165.472656 65.714844 165.734375 65.6875 166.019531 65.640625 C 166.304688 65.589844 166.578125 65.523438 166.832031 65.445312 C 167.085938 65.367188 167.304688 65.273438 167.484375 65.171875 C 167.667969 65.070312 167.773438 64.964844 167.796875 64.855469 C 167.8125 64.792969 167.820312 64.742188 167.820312 64.695312 C 167.820312 64.613281 167.777344 64.53125 167.695312 64.453125 C 167.613281 64.375 167.511719 64.300781 167.386719 64.234375 C 167.261719 64.164062 167.125 64.097656 166.980469 64.039062 C 166.835938 63.976562 166.703125 63.921875 166.578125 63.871094 L 166.324219 63.769531 C 166.191406 63.71875 166.066406 63.65625 165.941406 63.585938 C 165.816406 63.511719 165.703125 63.429688 165.59375 63.335938 C 165.488281 63.238281 165.390625 63.128906 165.308594 63 C 165.226562 62.875 165.167969 62.726562 165.125 62.5625 C 165.105469 62.492188 165.089844 62.425781 165.078125 62.351562 C 165.066406 62.28125 165.058594 62.207031 165.058594 62.128906 C 165.058594 62 165.101562 61.851562 165.191406 61.683594 C 165.277344 61.515625 165.394531 61.351562 165.542969 61.1875 C 165.691406 61.019531 165.855469 60.863281 166.042969 60.714844 C 166.230469 60.5625 166.425781 60.4375 166.632812 60.339844 C 166.78125 60.234375 166.925781 60.140625 167.066406 60.054688 C 167.207031 59.96875 167.347656 59.898438 167.488281 59.839844 C 167.628906 59.777344 167.777344 59.730469 167.921875 59.695312 C 168.070312 59.660156 168.226562 59.644531 168.390625 59.644531 C 168.539062 59.644531 168.703125 59.652344 168.875 59.667969 C 169.050781 59.679688 169.210938 59.714844 169.355469 59.769531 C 169.5 59.824219 169.621094 59.90625 169.71875 60.015625 C 169.8125 60.121094 169.863281 60.265625 169.863281 60.445312 C 169.863281 60.5 169.855469 60.570312 169.839844 60.660156 C 169.824219 60.75 169.800781 60.839844 169.765625 60.929688 C 169.730469 61.019531 169.6875 61.097656 169.640625 61.164062 C 169.589844 61.226562 169.527344 61.261719 169.460938 61.261719 C 169.34375 61.261719 169.25 61.238281 169.175781 61.191406 C 169.101562 61.148438 169.03125 61.097656 168.972656 61.046875 C 168.914062 60.992188 168.851562 60.945312 168.785156 60.898438 C 168.71875 60.855469 168.640625 60.832031 168.546875 60.832031 C 168.429688 60.832031 168.296875 60.851562 168.144531 60.894531 C 167.992188 60.9375 167.839844 60.992188 167.679688 61.066406 C 167.519531 61.140625 167.363281 61.222656 167.210938 61.316406 C 167.058594 61.414062 166.921875 61.511719 166.800781 61.609375 C 166.675781 61.710938 166.578125 61.808594 166.503906 61.90625 C 166.429688 62.003906 166.390625 62.09375 166.390625 62.171875 C 166.390625 62.257812 166.417969 62.328125 166.472656 62.382812 C 166.527344 62.4375 166.597656 62.484375 166.683594 62.523438 C 166.792969 62.585938 166.917969 62.644531 167.0625 62.703125 C 167.203125 62.765625 167.347656 62.824219 167.492188 62.882812 C 167.636719 62.945312 167.777344 63.003906 167.914062 63.0625 C 168.050781 63.125 168.171875 63.179688 168.269531 63.230469 C 168.40625 63.296875 168.527344 63.367188 168.632812 63.433594 C 168.738281 63.503906 168.832031 63.574219 168.90625 63.65625 C 168.980469 63.734375 169.039062 63.824219 169.078125 63.925781 C 169.117188 64.023438 169.136719 64.140625 169.136719 64.277344 C 169.136719 64.34375 169.132812 64.40625 169.125 64.472656 C 169.113281 64.539062 169.097656 64.613281 169.078125 64.699219 C 169.0625 64.773438 169.039062 64.859375 169 64.960938 C 168.960938 65.058594 168.921875 65.15625 168.878906 65.253906 C 168.835938 65.351562 168.792969 65.441406 168.75 65.515625 C 168.703125 65.59375 168.667969 65.644531 168.636719 65.671875 C 168.441406 65.851562 168.210938 66.019531 167.949219 66.175781 C 167.683594 66.332031 167.410156 66.46875 167.121094 66.585938 C 166.832031 66.707031 166.546875 66.800781 166.261719 66.867188 C 165.972656 66.9375 165.710938 66.972656 165.472656 66.972656 C 165.351562 66.972656 165.21875 66.949219 165.074219 66.902344 C 164.929688 66.855469 164.796875 66.792969 164.675781 66.714844 C 164.554688 66.636719 164.449219 66.550781 164.367188 66.449219 C 164.285156 66.351562 164.242188 66.25 164.242188 66.148438 C 164.242188 66.101562 164.257812 66.042969 164.289062 65.980469 C 164.320312 65.917969 164.355469 65.859375 164.402344 65.808594 C 164.445312 65.753906 164.496094 65.710938 164.546875 65.671875 C 164.601562 65.636719 164.644531 65.617188 164.691406 65.617188 Z M 164.691406 65.617188 " fill-opacity="1" fill-rule="nonzero"/><path fill="#000000" d="M 171.03125 65.617188 C 171.070312 65.617188 171.105469 65.621094 171.136719 65.632812 C 171.167969 65.640625 171.207031 65.652344 171.246094 65.664062 C 171.285156 65.679688 171.332031 65.6875 171.378906 65.699219 C 171.429688 65.710938 171.496094 65.714844 171.574219 65.714844 C 171.808594 65.714844 172.070312 65.6875 172.359375 65.640625 C 172.644531 65.589844 172.914062 65.523438 173.167969 65.445312 C 173.421875 65.367188 173.640625 65.273438 173.824219 65.171875 C 174.007812 65.070312 174.109375 64.964844 174.136719 64.855469 C 174.148438 64.792969 174.15625 64.742188 174.15625 64.695312 C 174.15625 64.613281 174.117188 64.53125 174.035156 64.453125 C 173.953125 64.375 173.847656 64.300781 173.722656 64.234375 C 173.597656 64.164062 173.464844 64.097656 173.320312 64.039062 C 173.175781 63.976562 173.039062 63.921875 172.914062 63.871094 L 172.660156 63.769531 C 172.53125 63.71875 172.402344 63.65625 172.28125 63.585938 C 172.15625 63.511719 172.039062 63.429688 171.933594 63.335938 C 171.824219 63.238281 171.730469 63.128906 171.648438 63 C 171.566406 62.875 171.503906 62.726562 171.464844 62.5625 C 171.445312 62.492188 171.429688 62.425781 171.417969 62.351562 C 171.402344 62.28125 171.398438 62.207031 171.398438 62.128906 C 171.398438 62 171.441406 61.851562 171.527344 61.683594 C 171.613281 61.515625 171.734375 61.351562 171.878906 61.1875 C 172.027344 61.019531 172.195312 60.863281 172.382812 60.714844 C 172.570312 60.5625 172.765625 60.4375 172.96875 60.339844 C 173.117188 60.234375 173.261719 60.140625 173.402344 60.054688 C 173.542969 59.96875 173.683594 59.898438 173.824219 59.839844 C 173.96875 59.777344 174.113281 59.730469 174.261719 59.695312 C 174.40625 59.660156 174.5625 59.644531 174.726562 59.644531 C 174.875 59.644531 175.039062 59.652344 175.214844 59.667969 C 175.386719 59.679688 175.546875 59.714844 175.691406 59.769531 C 175.835938 59.824219 175.957031 59.90625 176.054688 60.015625 C 176.152344 60.121094 176.199219 60.265625 176.199219 60.445312 C 176.199219 60.5 176.191406 60.570312 176.179688 60.660156 C 176.164062 60.75 176.136719 60.839844 176.105469 60.929688 C 176.070312 61.019531 176.027344 61.097656 175.976562 61.164062 C 175.925781 61.226562 175.867188 61.261719 175.796875 61.261719 C 175.683594 61.261719 175.585938 61.238281 175.511719 61.191406 C 175.4375 61.148438 175.371094 61.097656 175.308594 61.046875 C 175.25 60.992188 175.1875 60.945312 175.125 60.898438 C 175.058594 60.855469 174.980469 60.832031 174.882812 60.832031 C 174.769531 60.832031 174.636719 60.851562 174.484375 60.894531 C 174.332031 60.9375 174.175781 60.992188 174.015625 61.066406 C 173.855469 61.140625 173.703125 61.222656 173.550781 61.316406 C 173.398438 61.414062 173.261719 61.511719 173.136719 61.609375 C 173.015625 61.710938 172.917969 61.808594 172.84375 61.90625 C 172.769531 62.003906 172.730469 62.09375 172.730469 62.171875 C 172.730469 62.257812 172.757812 62.328125 172.8125 62.382812 C 172.867188 62.4375 172.9375 62.484375 173.023438 62.523438 C 173.132812 62.585938 173.257812 62.644531 173.398438 62.703125 C 173.542969 62.765625 173.683594 62.824219 173.832031 62.882812 C 173.976562 62.945312 174.117188 63.003906 174.253906 63.0625 C 174.390625 63.125 174.507812 63.179688 174.609375 63.230469 C 174.742188 63.296875 174.863281 63.367188 174.972656 63.433594 C 175.078125 63.503906 175.167969 63.574219 175.242188 63.65625 C 175.316406 63.734375 175.375 63.824219 175.417969 63.925781 C 175.457031 64.023438 175.476562 64.140625 175.476562 64.277344 C 175.476562 64.34375 175.472656 64.40625 175.460938 64.472656 C 175.449219 64.539062 175.433594 64.613281 175.417969 64.699219 C 175.402344 64.773438 175.375 64.859375 175.335938 64.960938 C 175.300781 65.058594 175.261719 65.15625 175.21875 65.253906 C 175.175781 65.351562 175.132812 65.441406 175.085938 65.515625 C 175.042969 65.59375 175.003906 65.644531 174.976562 65.671875 C 174.78125 65.851562 174.550781 66.019531 174.285156 66.175781 C 174.023438 66.332031 173.746094 66.46875 173.460938 66.585938 C 173.171875 66.707031 172.886719 66.800781 172.597656 66.867188 C 172.3125 66.9375 172.050781 66.972656 171.808594 66.972656 C 171.691406 66.972656 171.558594 66.949219 171.414062 66.902344 C 171.269531 66.855469 171.136719 66.792969 171.011719 66.714844 C 170.890625 66.636719 170.789062 66.550781 170.707031 66.449219 C 170.625 66.351562 170.582031 66.25 170.582031 66.148438 C 170.582031 66.101562 170.597656 66.042969 170.628906 65.980469 C 170.65625 65.917969 170.695312 65.859375 170.738281 65.808594 C 170.785156 65.753906 170.832031 65.710938 170.886719 65.671875 C 170.9375 65.636719 170.984375 65.617188 171.03125 65.617188 Z M 171.03125 65.617188 " fill-opacity="1" fill-rule="nonzero"/><path fill="#000000" d="M 177.261719 64.074219 C 177.335938 63.769531 177.453125 63.445312 177.609375 63.105469 C 177.765625 62.761719 177.972656 62.417969 178.226562 62.070312 C 178.480469 61.71875 178.785156 61.378906 179.140625 61.042969 C 179.5 60.710938 179.914062 60.398438 180.382812 60.109375 C 180.457031 60.0625 180.570312 60.015625 180.726562 59.960938 C 180.882812 59.910156 181.039062 59.878906 181.203125 59.867188 C 181.398438 59.65625 181.660156 59.554688 181.992188 59.554688 C 182.378906 59.554688 182.707031 59.652344 182.976562 59.847656 C 183.242188 60.046875 183.460938 60.316406 183.636719 60.652344 C 183.691406 60.761719 183.742188 60.871094 183.789062 60.976562 C 183.839844 61.082031 183.878906 61.191406 183.910156 61.308594 C 183.941406 61.425781 183.96875 61.550781 183.988281 61.6875 C 184.007812 61.820312 184.019531 61.972656 184.019531 62.144531 C 184.019531 62.539062 183.957031 62.9375 183.832031 63.347656 C 183.707031 63.757812 183.527344 64.15625 183.300781 64.546875 C 183.070312 64.9375 182.792969 65.308594 182.464844 65.664062 C 182.136719 66.019531 181.777344 66.34375 181.375 66.628906 C 181.105469 66.824219 180.808594 66.972656 180.484375 67.082031 C 180.15625 67.1875 179.789062 67.242188 179.386719 67.242188 C 179 67.242188 178.667969 67.191406 178.386719 67.089844 C 178.105469 66.984375 177.871094 66.839844 177.683594 66.648438 C 177.496094 66.460938 177.355469 66.234375 177.265625 65.96875 C 177.171875 65.703125 177.125 65.410156 177.125 65.085938 C 177.128906 64.769531 177.171875 64.433594 177.261719 64.074219 Z M 178.503906 64.171875 C 178.472656 64.285156 178.453125 64.394531 178.441406 64.496094 C 178.429688 64.597656 178.421875 64.699219 178.421875 64.792969 C 178.421875 64.957031 178.445312 65.109375 178.484375 65.253906 C 178.527344 65.394531 178.597656 65.515625 178.691406 65.621094 C 178.785156 65.722656 178.90625 65.800781 179.046875 65.859375 C 179.1875 65.914062 179.363281 65.945312 179.566406 65.945312 C 179.945312 65.945312 180.296875 65.847656 180.625 65.65625 C 180.953125 65.464844 181.242188 65.222656 181.496094 64.933594 C 181.753906 64.644531 181.964844 64.332031 182.136719 64 C 182.308594 63.667969 182.429688 63.363281 182.5 63.085938 C 182.546875 62.910156 182.582031 62.746094 182.617188 62.589844 C 182.648438 62.4375 182.664062 62.292969 182.664062 62.164062 C 182.664062 62.035156 182.640625 61.914062 182.59375 61.800781 C 182.546875 61.6875 182.484375 61.5625 182.410156 61.421875 C 182.367188 61.335938 182.320312 61.25 182.277344 61.15625 C 182.230469 61.0625 182.191406 60.972656 182.15625 60.882812 C 182.117188 60.953125 182.074219 61.015625 182.03125 61.066406 C 181.984375 61.117188 181.917969 61.167969 181.828125 61.207031 C 181.738281 61.25 181.613281 61.289062 181.460938 61.324219 C 181.304688 61.359375 181.105469 61.390625 180.855469 61.414062 C 180.6875 61.46875 180.523438 61.554688 180.351562 61.667969 C 180.183594 61.785156 180.015625 61.917969 179.855469 62.074219 C 179.691406 62.226562 179.539062 62.394531 179.390625 62.574219 C 179.242188 62.753906 179.113281 62.9375 178.992188 63.125 C 178.875 63.3125 178.773438 63.496094 178.6875 63.675781 C 178.601562 63.855469 178.539062 64.019531 178.503906 64.171875 Z M 178.503906 64.171875 " fill-opacity="1" fill-rule="nonzero"/><path fill="#000000" d="M 190.605469 60.792969 C 190.429688 60.792969 190.242188 60.835938 190.042969 60.917969 C 189.84375 61 189.636719 61.113281 189.421875 61.25 C 189.207031 61.390625 188.988281 61.550781 188.769531 61.726562 C 188.546875 61.902344 188.328125 62.085938 188.113281 62.277344 C 188.003906 62.371094 187.898438 62.457031 187.800781 62.535156 C 187.699219 62.613281 187.601562 62.671875 187.5 62.710938 C 187.429688 62.824219 187.355469 62.976562 187.277344 63.164062 C 187.203125 63.351562 187.125 63.554688 187.050781 63.777344 C 186.976562 64 186.90625 64.226562 186.835938 64.460938 C 186.769531 64.691406 186.714844 64.90625 186.667969 65.105469 C 186.644531 65.210938 186.625 65.3125 186.609375 65.414062 C 186.59375 65.515625 186.578125 65.621094 186.554688 65.734375 C 186.535156 65.847656 186.511719 65.964844 186.484375 66.09375 C 186.457031 66.226562 186.421875 66.371094 186.382812 66.53125 C 186.359375 66.625 186.320312 66.699219 186.265625 66.757812 C 186.210938 66.816406 186.152344 66.859375 186.09375 66.890625 C 186.03125 66.917969 185.976562 66.9375 185.917969 66.945312 C 185.863281 66.953125 185.824219 66.957031 185.792969 66.957031 C 185.601562 66.957031 185.449219 66.910156 185.328125 66.820312 C 185.210938 66.730469 185.148438 66.554688 185.148438 66.296875 C 185.148438 66.226562 185.152344 66.152344 185.15625 66.078125 C 185.160156 66 185.175781 65.914062 185.203125 65.816406 C 185.3125 65.34375 185.417969 64.917969 185.519531 64.539062 C 185.621094 64.15625 185.726562 63.804688 185.832031 63.480469 C 185.933594 63.15625 186.042969 62.851562 186.148438 62.566406 C 186.253906 62.277344 186.367188 61.988281 186.476562 61.699219 C 186.589844 61.40625 186.707031 61.101562 186.832031 60.792969 C 186.953125 60.480469 187.082031 60.132812 187.222656 59.753906 C 187.253906 59.667969 187.332031 59.597656 187.460938 59.542969 C 187.585938 59.484375 187.722656 59.453125 187.867188 59.453125 C 188.054688 59.453125 188.210938 59.5 188.335938 59.582031 C 188.457031 59.667969 188.515625 59.789062 188.515625 59.949219 C 188.515625 59.964844 188.511719 59.992188 188.503906 60.03125 C 188.492188 60.070312 188.476562 60.113281 188.457031 60.160156 L 188.128906 60.9375 C 188.335938 60.773438 188.554688 60.605469 188.78125 60.441406 C 189.007812 60.277344 189.242188 60.128906 189.480469 59.996094 C 189.71875 59.863281 189.960938 59.757812 190.203125 59.675781 C 190.445312 59.59375 190.683594 59.550781 190.917969 59.550781 C 191.398438 59.550781 191.773438 59.679688 192.042969 59.9375 C 192.308594 60.195312 192.445312 60.589844 192.445312 61.128906 C 192.445312 61.441406 192.390625 61.792969 192.285156 62.1875 C 192.175781 62.582031 192.042969 63.003906 191.878906 63.453125 C 191.71875 63.90625 191.542969 64.378906 191.355469 64.878906 C 191.167969 65.375 190.996094 65.878906 190.835938 66.394531 C 190.792969 66.535156 190.746094 66.652344 190.699219 66.746094 C 190.652344 66.839844 190.59375 66.917969 190.527344 66.972656 C 190.464844 67.03125 190.386719 67.074219 190.300781 67.097656 C 190.214844 67.121094 190.105469 67.136719 189.980469 67.136719 C 189.789062 67.136719 189.652344 67.097656 189.578125 67.027344 C 189.503906 66.953125 189.464844 66.839844 189.464844 66.679688 C 189.464844 66.539062 189.488281 66.367188 189.527344 66.167969 C 189.570312 65.964844 189.632812 65.742188 189.707031 65.5 C 189.785156 65.257812 189.875 65 189.976562 64.726562 C 190.078125 64.449219 190.191406 64.171875 190.308594 63.886719 C 190.40625 63.65625 190.5 63.429688 190.589844 63.199219 C 190.683594 62.96875 190.765625 62.746094 190.835938 62.53125 C 190.910156 62.316406 190.96875 62.113281 191.015625 61.917969 C 191.058594 61.722656 191.082031 61.542969 191.082031 61.378906 C 191.082031 61.222656 191.046875 61.085938 190.980469 60.96875 C 190.914062 60.851562 190.789062 60.792969 190.605469 60.792969 Z M 190.605469 60.792969 " fill-opacity="1" fill-rule="nonzero"/><path fill="#000000" d="M 204.671875 57.476562 C 204.53125 57.523438 204.261719 57.621094 203.855469 57.777344 C 202.972656 58.109375 202.421875 58.277344 202.195312 58.277344 C 202.039062 58.277344 201.921875 58.234375 201.839844 58.140625 C 201.757812 58.046875 201.714844 57.9375 201.714844 57.816406 C 201.714844 57.464844 201.875 57.199219 202.1875 57.019531 C 202.503906 56.839844 203.15625 56.628906 204.148438 56.382812 C 205.140625 56.132812 205.738281 56.011719 205.941406 56.011719 C 206.253906 56.011719 206.40625 56.152344 206.40625 56.4375 C 206.40625 56.644531 206.300781 56.929688 206.085938 57.300781 C 205.578125 58.167969 204.960938 59.597656 204.238281 61.59375 C 203.515625 63.585938 203.066406 65.195312 202.898438 66.417969 C 202.871094 66.605469 202.785156 66.753906 202.640625 66.851562 C 202.492188 66.949219 202.320312 67 202.128906 67 C 201.6875 67 201.46875 66.800781 201.46875 66.402344 C 201.46875 65.75 201.832031 64.398438 202.554688 62.351562 C 203.277344 60.304688 203.984375 58.679688 204.671875 57.476562 Z M 204.671875 57.476562 " fill-opacity="1" fill-rule="nonzero"/></svg>